<mxfile host="Electron" agent="Mozilla/5.0 (Windows NT 10.0; Win64; x64) AppleWebKit/537.36 (KHTML, like Gecko) draw.io/27.0.2 Chrome/134.0.6998.205 Electron/35.3.0 Safari/537.36" version="27.0.2">
  <diagram name="Page-1" id="lotb0JhE_bLNRR-RFc4P">
    <mxGraphModel dx="2593" dy="1544" grid="1" gridSize="10" guides="1" tooltips="1" connect="1" arrows="1" fold="1" page="1" pageScale="1" pageWidth="1100" pageHeight="850" math="0" shadow="0">
      <root>
        <mxCell id="0" />
        <mxCell id="1" parent="0" />
        <mxCell id="iLzAXBDjAKeNAdl8jMWR-1" value="" style="shape=image;verticalLabelPosition=bottom;labelBackgroundColor=default;verticalAlign=top;aspect=fixed;imageAspect=0;image=data:image/png,iVBORw0KGgoAAAANSUhEUgAABRAAAAJyCAYAAAC8B+xbAAAAAXNSR0IArs4c6QAAAARnQU1BAACxjwv8YQUAAAAJcEhZcwAADsMAAA7DAcdvqGQAAPhBSURBVHhe7N0HgBTl3T/w73U42tGRIvWoogQrqBT1UEoUVLDEgjGCmkQhxrzKq8a/5lUTk4gmmoDREAsmgEIsgKAiFlBRpJc7QHovR7++/+f77Mwxt7d7t3u3B3fc94OPNzM7OzM75Znn+c0zMzE+AyIiIiIiIoKYfo87XVXT9rdGO10i1dMZZ5zhdIlINCmAKCIiIiIiIiIiIiHFOn9FREREREREREREiinSAnHBJ//F2o/GI/bQOtNXWsPEGBTU7YBOV4xB78uucYaJiIiIiIiIiIjI6aQwgMjgYcz8kejVItN+EK6F21Lg6ztJQUQREREREREREZHTUOEtzGvmPhd+8DCpATBoDnBGX1zUPBMr5zzvfCAiIiIiIiIiIiKnk8IAYuzhDcj1xaOgdlsg7R2g7z+BhLrOpx41GgND5gHNLoEvrgYO5tdDweEtzociIiIiIiIiIiJyOikMIGYVJOJAXgPknPdH5O5PN58kAF3vcT511GgCDPkEqJcK35xhOLjxK+T4klAVX+Q8a3QMYmL86eLn+cxHv3XPX1w4PCZmNGY5w4uZNbrEz0NNX0REREREREREpCo50QIRPtSIPY6Y7H3IT+lmX5CC+l2cT42aTYEffwLUbQ/fJzfjyMF9NnhYJa17HulDfTbw6fPNxFljbocb48tYtQCjZrqfTcBA/2CPdXj+4hjEzABGOUOKKWH6IiIiIiIiIiIiVUlhADEpNht14w4j5uvfIHf7QuTvWAi0vwHofBdQ02l5WKedDR6i68+RfPX7QHxNvosZCTG5zlSqiA734/7CyGAquvZ2Oq3e6JrqdAbVAfd/6YNvwlCnP4gSpy8iIiIiIiIiIlJ1FAYQ831xJsUiKycfx5f9AzkL/xeYfTWQuRYY/DFQp21h8BBn9MHh+b9BTN5RpMRnIj4m35lKEOuex8WFt/I+j9ExFzut8WZ5uimw32np53x3tL1XONiwYMIdjzKwasFZ6NiB3euQvmIBxqT6vxedW4+90xcREREREREREalaCgOIOb4E7MtrhCxfTdt/vKAmCvZ+D1z8QuFty27w8OCc0YhLbow6CVk4nF/HBh+Dm4XRqWNwlnNL8L8wBROdT0rGAGAqpozIcG4D9mECW/TNehZjzppZdFgw4Y5nzBo9CCvGP+jcquy0LrTfi86tx0WnLyIiIiIiIiIiUrUUBhDZirBGzHGbeFuyL7E+8gd9DNTrVCx4mHRmf9Tu+yyyW12HPF+CDT4GtS4dK3qPx4NO9KzD/Y+Efm6g17oPMGXBKDxyf0CzvdSu6D1xUNGWgZ4WjoUvNQk2XjH+Voq/65qBLwPnYw3E0FELMOWDskYQS5u+iIiIiIiIiIhI5VcYQORzDOvGH7aJtyXXOudnQO5x5M+5Drn1z0NubB0c/HAU4hJrIbFBBxz58jFkb/DfGxxj/38SdLgfX/rYkvH2E7cmO8P8rQadl54EG68IBvduB/7lKzW4d1aZ7j0Of/oiIiIiIiIiIiKVWWEAsVBMPBI634rEg0uR/25fHN74JTK/eQGZ069G7g8fICHjHzjwztU4vtR/M7JttRibZbuL6dARZy0Yg2edAN6653/nuYWZLxdZgFUZTu+sGSc+6zAYI3pPxO9CtCDscP+XyBjfGyvSS24dGHI8e4vzIygxtrfuefxuovtClcDnMwbjGSec6YuIiIiIiIiIiFQBngCi046w6z1AfC3EN+mJ3JbXIL7n/yCp/RAkpLRFvV4PIa/r/Yhtch7qXPY8ajfrijpxh098t5iBmDBzFCYO8t9ifDtGeG5h7oD7HznxWcwMFP3sSz6DMNX/mduKcNbowv7UMWcVv8XZVcp469JXwMy4cBwm/+3ODAI6w+yzG78sUxAw9PRFRERERERERESqlhgf7/01Xn24H37adj5w9q/hyz0MX/ubcXjpv5DU4Wrk7VuFpJ1zkNf5Hhz+ZAzi6rZG3Qvuh2/zbBxJfxfTN5+NO5/51E6wZAzQ/Q5dM8oWmBMREREREREREZGTq7AFYue0sVi4LQW+VX9DVs0OyD64DTlb5iFv66eomQgcytyP3O0LUfPsu5AUmw3f0R04snczFm2rgy4DxjpTERERERERERERkdNJYQtEWvDJf7F67gvIO7TZvpSE+HKVAsQh3+ePNfJm5aTYLGT7aiKmTlucNeDn6H3ZNfaz0qkFooiIiIiIiIiISFVSJIAoIiIiIiIiIiIi4lX8LcwiIiIiIiIiIiIiDgUQRUREREREREREJCQFEEVERERERERERCQkBRBFREREREREREQkJAUQRUREREREREREJCQFEEVERERERERERCQkBRBFREREREREREQkJAUQRUREREREREREJKTyBRDXjUfv3uOxzuk9ZSrLcohUZlXxONGxffJpnYuIiIiIiEiAkgOIrEjGxCCmSBqNWSerghl0/r0xPtSMvcsVzWUsthxmHTgfhS3UspV1OaP5+yJRZF2UYT2EK5q/r8gyR2H7RSJqv2Mdxvf2/oYTqXfIA+IkC1jPdrmiuR1D8c7jZMwvmGLz5fYyedXHp2h5XMHWx6laRyIiIiIiIlJlld4CsddzyPD54CtMEzCwwxgsWDAGHZxRKlSx+S/AmFAzrsjl8i7HTGBQpBXwUMtW1mU+mdvAi/PNeA697Pow+4IzuNKrqO130nTAmAXO8heuf3//gpAHxMk0C6NTp2BEhrOMZiV3X51x8tfbKTsuhmAEpuB9d6da977pG4Ehl5/q/UZERERERESk/Mp2C3OoVi2FrY9KaCUYLd75pY7FQneYXa51GH+bGbZwLFLdllDRNHAoRi1cjQx2F/ndJ1q2rRvf2xlmEpcp1LI98r8n1mWwaTnfGz/aHR6D0fzAnV6oz6nI9Exy5xNNJcy/2DrwDyy+nxSZBn/3Sdp+xeZrFFk+Z9is0f7+kn6DNQujC4dzPVTw76Bgy0uhhjuCbpty645OhZGygZgwYaB/OTh9+3c0RjutKO26Kew2o7vj+b9cvN8ossyF6z1Kx1O5dcCQEcAUN4KYsRoYMQQdvL+jyPIU3fdPfO5uK66f4tst6oItk8su24ltFr11JSIiIiIiIlVN6QFEp2LuViCDBSP8rY9W41GnRZQvYwSm3Fa08l9mgfO3lW3Obyy6z3Tn9xx6OaP7dcCY10600op2C61145/ExF5dkBqwHBnPLccg1rBNxfu2sd0x01kfM7s7wUYrYNlGNnaGh5gWmXWweqjzW2eOwsQnA9Zt0M9LW0dRFGz+QddBCftJ4TTYqvFkbT+jyHxDbIOBEzzrL9RvYMBnEMwP9g83acLAiv0dofeZUMMdJe6fZTUQQ0dNxCAeo955eS1cji6vmXlyHxl0G+B2B+7PIXQYs6Bw3fpmdsfYZzmfCjieyqhDp+5YyFaXxqwZE9H9RDTVCLHfdOiE7s7FiHXvT0H3UcAMu5gZWA1nHy0v83uL5KFmvdgLLiH3ZQ93m7nratBJCGqKiIiIiIhIpVO2W5idjwqtW4vlcIIHbgXVbaFXXoHz5+2AnJ8Z/uDJvH/WUwlPnTICGUGWo8OQEeg1cQZmMShg14e/sj1wQhi3+oaaFnu8vzW1S/FAYLDPT+Y6Cjb/YOugpP2kopc12PbjcO98S9oGrlC/wd6yepLWtyvU8pb2O8qyf4Zh4ATnGB06w79uAgOJvUZgCFc69xFvt/0wDN7WcoMmAsvXhg78lbQOvNs8kvmXhi1b7TzWYe3yURjqXamh9hsbeF2OteaHZKzujqEPdsFyRhA5fvdO/n20vMzvLZKHusHwkMvk4W4n4u8z3+CyioiIiIiISPVStluYgwmspFal5+OFw/v7Sn2m2UBMsOMOxQxbOT8FrXYyVjutjE6VEOvgVO0nEW2/UlT5fb2C90+22PTNdIJpUcLgofcZixXZorbMnGDgrPcxpfvQ4vtEiP0mtQuwOmMWZizvglQ+S3G5WW/m+O1eJAJZQar8viwiIiIiIiInQ3QCiPY2vLGwdxSeDHZ+J15YwFv/ggbLotUKMpSA322XY9RQDFw3HqPtw8QYqMnAc72WY+0m/ziFApct1LT8vZGzz/nzvNThZAu2DhDhflLR2y9QONsg1L5uX6IR4rdV1O8Itbyl/Y5g26a8+wkDfEVuk2YLwAhvwfWsJ7vMTnchT2u4Yp9X9PEUpoFDu2PsoLHFg3+h9huDrSPx5JNYzmcmmn/snTED6BKV+5dLUMIyBTVrBiZ6WySKiIiIiIhItRGlFogDMSHjOSwf5NwKx+S+GKC8TAW36DMY+aB/Mz8+Ay3VP+y21d2Lt0bqMAaPOs9kq5CXV1hFf3cqnyvHF0eYirlZOGd5UzFlxGsY09r5CnmXbdIeZ2CIaZVZ0XVkb090PikX2xKMtzpyu5TQci3YOugQwX5yUrZfoHC2Qajf4H8Wn3e4jadV6O8Itbyl/I6g28b5rKxsy7lBzjRNYmvB1yJo6WnW02t8TqHz/WLHNNdj9xN5QZHPT8rxFCZ7m2/A7ctWqP3G4PYwB+cIJzLH3onLu5yEQF0Jy+Ty5r98xGd5W++KiIiIiIhIlRTj431rcvrjm4RnDIXvZARRTkdcf092OfHsRJHTHS8W8F032udFRERERESqveg9A1EqnVmjPS2L2HpIwcMymIXRdv0tx3ORtKgTERERERERETlNqAWiiIiIiIiIiIiIhKQWiCIiIiIiIiIiIhJSzKFDh9QCUURERERERERERILSLcwiYs2ZMwcDBgxw+kSEdFxIZaV9U0SkelL+LyKnSkxmZqYCiCKCr7/+2hZGDh486AwRER0XUllp3xQRqZ6U/4vIqaIAoohYKoyIFKfjQiqrSPbNSWsSna6Tb2TnHKdLRESiIZL8/+OPP3a6JNDll1/udIlIuIoEEJOTk+3fY8eO2b8iUn0EFkaUH4jouJDKK5J9kwHEHo3ynb6TZ8neOAUQRUSiLJL8nwHE8847z+kT17fffqsAokgZFHsL844dO/DVV185fSJSnSk/EClOx4VUVto3RUSqJ+X/InIyFLuF2c14LrroIvs3Ggp8BXjx8xfxypJXcKjGIaQ0TkF2VjYObTmEFjVb4KG+D2Ho2UOdsaPrdJ13Xl4eyvr+m5iYGMTHxzt9VcPChQvx/XeLbXftuinocX4vxPgia01RgBjMfX+6vUoXGxeLq6+5Bs2bN3c+jY75L7yApa+8gpqHD6NRitneOTnYcugQarZogT7/8z84e2jZ97X8/HwcP37c6QtPzZo1ERcX5/SVLNjtEGXND2JjY+3+Gck+yuXkbzwdJCUl2ePMKysry+mSk6WgoMDui+URzeNCJJoi2TerWgvE7OxsTJ061XYPHDgQDRs2tN3RkJ9fgD/9aTz69r0UPXqcbfPryoD5VUGBz5TP4nD75Dz86+aqVU6rynJMWY3n7ISEBGeIlMUhU949bMq/FaF+/fqFrewksvxfLRCDK2sLxPXr1xfWx7hPtmvXznZL2TDP+OGHH2we3K1bt2Ll9i1btuDAgQOoV68eWrdu7Qz1Y969atUqdOrUydZ55eQo9zMQV65cGbyCZnYCVp9z8nPw3HfP4cOjHyJtQBqub3E9aph/3El25e7CP1f8E5u+2oSfd/o5xgwc4/9umKrrvBmI2LhxI+qaA6kwROHMt1BgvwcPwjZt2qBGjRrOkNJt37YNixZ9a35zDBJNYbvJGa1QwCCm87mdF+dpOvgb7V8O9f9nu2PjY7F18ybkmIoBx+nVu3fYlYKpU6Zg8uTJ6NqlK87ueS4GXXND8PUfApchryAPj//m/sIM5qabb8JZ3bvb7tKUtr3zTQb23Z/+hKN8K9pVV6HFddcirlYyfAVmX9i5Ezv++U+sM5WDmGuuwVX33+//boS+//57u+zhFnBzc3Oxd+9eXHLJJc6QkgUrjJTVf//7X3tC7R7m+l26dKk9IV977bXOkPAxGP7dd985fYazTcLBCtu+ffvKdQvDkSNHCteZGzDlLSS1atWyy8agKAvV7Od+T/zL/pSUFNt/WvJlm3QEiI1exT9SO82xx3yuPOs5WscFv5+bl2/2jePwxcQiKSEeiYnxaGAqRRVN8z758963b789Vx/Lyjb5QgFqmPNmTbMvNmzYIKJzV0ki2TcrUwCRFYUvv/yy2LmsSZMm6N+/v+1eu3YtNm3ahAYNGtj16J7Hli9fbisLXjzXdezYERdccIEzpGTMk996awo6d+5kprUGrVq1MJXrc1GnTm1njFPjq6++NZWhXPTp0wtTlhRgRI9YTJq3Ff27NUDrJqdf4ITnSZZleR4OxHMpz5MsR1R00IgX5OfNm2cvYvbt2zfsi64Vjcc137TLY6C3KS9XhcrxggULIrpwHKmLL77Y6So75ifz58+3ZTfmn3Xq1HE+qVoiyf8VQAyuLAFE1hl4DmdAm3kX1z/3eR6n5fHmW9OweMlSxMTG2ToMy66JiYm2zJKYkIh4U35h3sR6RSzrOaZMwypFAY83k3jxiee2Ap9J+QXYYurt2dm5pjsfF5zfE7fePMI/oxAyMzML6yjRwvWya9cuG9wrCdfhihUrbHf79u3RrFkz203MnxctWmTXdaNGjQqnxfM+j2G2umVco0ePHrZeVR4MCnM+7gUld30rMFlcuZ+ByP02KzvLrmgeUPzrTU98+AT+ueVV9E7rjd4pvW3GfU39a7DlyBYsj1luv/PW5rewfe52vHXtW+jdtrcz5dJV13kfPXoU20zG0KlzZ//8PfMl+5f9ts/p92AB/IwzzojoQJvz4YeY98k8bNu+DX369seI2+5C7Rqeq/acpeevf5n88441fxl4PHwsGxP/Oh5bt2zmmBg0eBAu7dPHdoeywFQyFi9ejIz0DLRq3Q59rrgSsaYyFh/HikfhrluyuFh8MOMdU0ioha2bNiLZ/G5mPJEEEEvb3h/+9rfYNmkSrrj0EjS87BKzZPnw5ZnvmXoTl5LrZNebb+L9nTtx3VtvoU2vXna6kWCFa9CgQU5feN577z1TGSl5HbsCCyNlyQ9ce/bsseuYrUjatm3rDA2OmT8rkgyyleUqHr97+MhRu48V2zYcIaDbi8M/MQUrVhrKYuLEifakx5M8TzBsKcNK8Jo1a2yhlMN5Quf6YDCV63LatGn2JMV1wxawDz30kDO100jBAcQe/SMKkq4GEi90Bp58DEKwANO4ceMyt2Aq73HBwsjGjZuw/2gesvLj4YuraQuIvrzjSIzJQUoNoPWZLSO6oBMuzfvkz5v53voNP+BYjg9H82vAl5Bsz4f5ucdRw3cMtRJ9OLNlC9StW/5KayT7ZjgBRK63gvw8xJlsMt/kmLFmnTFPLY9gAcTt27fbgA3PDV26dHGG+i8GuZV5/qbZs2fb4/fCCy8sPI8w72R5ysWyEPPb1NRUnHPOOc7QkvF3TpnytsmvB9j+rVu3Y+XKVaZMVBsXXHCuyS8a2eEnE5dp6tT/omvXTuZc0RX5pjIYZ85pb32xAym14jHwR42dMU8fy5Yts8cLW5UEw1YpPIeyRUpF+uyzz+xFdeJFp3AD0RWJgQ3u1y5WZNmqrLTyVFmxnLJ161bb0odBXbbK5Xrn/CKpPLOcSu76jAYuG5eLyhtA3L17tw0esvxFzN+4vTt06GD7q5JI8n8FEIMLJ4DIfa9Vq1ZOH7B582a0bNkStWv7LzgxiMXzkHecwO+EI23wdWZarMvE2hRvjvm4eP85OD4u3nbHmW7mBf5uk2yAyz+OHW4Sz5kbN21Gzfg8/LB5O5o1SsGhrBgsnD/bmVNx/D4vXvFYiyYuz7ZtW4u1GgzEfZh1KQZleWwyGMj6GXHd8rjlsrF84AYQWa/ituC5kwG/8gQQuc72799v5835cH24w4nnIS6bWqifUKxkGOnzE2KcSrtNZmMX/jVp84HN+Pfyt1BwVgFSElKw6ugqLNuzDGfWORM1Y2ti5cGVWH10NTrW74hD3Q7hvv/c50w1PNVt3rnmuF6/pwDrdufj0PGCwvkVBkvYb5bD/g3oD0yR4kHEg4oZjM8crPGmhrE78zB2mcS/uw+Ybqb9/r87DhzCDtO9Y/8hbNt3CFv3HmQcz0ynwE6HyV41KQUzjo/MiY8Z9RktWiC1Yxd06NQNbTp0NKlTqaltqkntU7F3zw7s2rEdCSYTYIYWqZK29wGTga2cMgVnmdVat0dLNP7JLajV7UwcW7MKxzNXotblfVHj0kuR3LEjuplMcsp9ke1rXixsh4vjluW3epX1eSoM2KxevdpmuCXddm33A7M/MdBTnoJxnNm5vPt+YXK3WUCyJ2GnuzxY8eCJiwF5/mZWiPi7ebwwIMoWoLwyxooxhzN4z/HcW+c5frRkm0r5ot69kf6rX9ljNBR+xnE4Lr8TdXkbEXvs96aAwxPtqW3JwZM990EWDJiXREskx8X3S5dhxyEfcmq3QZ0m7dC0eQu0aHEGGp7RBnH122Fvbm2sWL3WXhiKNs3bP+9mJ2nezM+WLF2O/VkJyKrdDnWbtLFX0ls0b4bGZ7RGXMNUHCyog/SM9fZqf0Uoa55tC+HZWWhS04dL2tdDUv4xZB0/ZlsvVARWBBjUZwWAxyiTtyUQg0q9evVC165di5wbGMxwx2dFmRUPVuYixXMj82X+bd26FQYNutIG7xYs+AozZrxnKoBbnTFPjh9+2IRGjRoUls9++m//ek+Mj0GCqSDuPVT+F9Hk5uaZ83GWWW/H7b5/+PARc546bNbhocLEfiZWZN3KU0VhyxLyt7IpnrhPeoPFFSEjI8PuU9wP3MR98lRiC10GD7lcbNXEVjfE45rlimhzg/Wff/65DR4SK9K8eM+7Sbg8keC2a2HK69FKLF9RJIHMULgO+ds4LfeuELZuKqmcWpWUNf+X4Fhmb9q0qb0LjYHC9PR0my8xWMv8i4kXIrlPsR7DcViuZznfbVEXNie7dfNdH/+53eavN3HcYMOYP6wyZRvm4bv2HzXLWQ+HsvzTKAm/zzyfx0O9enXt7+J5orTkHT9YN+tHdtnCxGOdxyLrTcTv8oIj84HA+hrX8bnnnmtbLJYXL56wPME6Q926dW35g2UMdjOf4G/ixSX+HvErsjW48ljJjQR3ErdSHsNk+u1fkz5bNx+ZtTORm5yLr7Z/hSXbl2DFlhX2VtLDxw5j6baldtji3YsR0yQG++L3YfvB8Cu01W3e89fmYNq3WfhwVY4Zv8A/zyDJLlOQ4W4i92+4eBAz02xpDmI+2zE+NgZtz0hBO5PcvzY1r2/+1kd7m1Ls3w5mWNtmKeZ7rKT4p8NkJupMvWTdunR1umz+iKycPE/KLTFlM+oaBVxfobb3+vnzUccUwGon5uDApnnYt2E5Glx5G/L6d0OdYbeica9L8cPCj3Fk5VI0Md+L27sXB8sYuMnKyrFB3NJwHI5bHmXJD7xYOWTm6xZIg2Hh3b1SHek+WYjbImD7uN3Bkhs4dLt5ZYsnfG969913nYmXjEFaXhEfO3YsfvGLX9grjgwOhkqs6N5333341a9+heuuuy6igHBJGAj8bsgQ1D/nHBz+/nus/uUvgwYROWyVWc5MU8Bs2r+//U40g4i+nMWIz55o/i6DL79iAiSRYL7FEz8rhayIbtiwwfmk7CI5LhYv/h7ZMbWRV6eN2dfiuasiN68Ax7LzkZdvcjMOSG6MnMQmWLJkqfOt6NC8/fM2pyqk7zyGr9Yf9F+0quB558anILd269C/u1YzZNdoZiomKyIqWIejPHk2L+7ZgGHucUye/CZSGyYgkUHELP8tPRWBLQl4bAbekuxigI/BiGB4W9S6devK3CKJ+f+e40mFQUSm5s3PwI9/PAgDBlxuKgu7MXXqdFNhXFdhv9/F/YDz4a3UzK9ocFd/8Tzf7D9dz6yPJRvLn5/u23fACRQeRGbmIZMOYv/+TPuXFSP+Trb6Y2CRAVT+rUicH/Nl7rfBUqSVz0jxt7IMwrIKAwBMrDQySMD5nyrueYq38/Ouk6uuusq2ruEFCrclXrSwFc/MmTNthZ2VdN4qfcUVV6Bfv362BSLXP1sV8hE6keC25brl8rKbQcjAbcl+Do9WOag0DEwwwMKALMtfw4YNsy2XuV55sbeq4z5bnjK7FMVHK/HOITZgcVu3d+7c2SbvOYHdHObuS2effbYNMHIY6xPh4jlowGWX4IZrB+PG64ZghPl7wzCTrjXd5u/wawbiuqFXYdiPr8Q1g6/A1QMvx+Ar++Hyfr3RoG5N5GUfQZwvF62bN0L71s3QoU0LtG/b3HS3sBcxS8JjkcchA9Bc5gMHMm1/ack7fqjuSPJwtnxmYJABPeLFf37fvYhSEXjBiHVIljVYLiBuU56L3WVnYJHbx10uCdICkU3kI3kwvA2kOKlIyx+TMvZlICslC1k7s/B0k6fxt45/wz97/xONajZC37Z9MbH7RDvsJ7k/QUFOAbKTs7FsW/gHW3Wbd26eD01T4tC6UTxq1zDzMju6N7nLQ95ucvuZ1u7Mw18/PooX5h7D8q3+wmppeBDxgGJiECIuzhxs8bGFKcGkeCazR7HCZr5hK2u5JjNloC87hxUo3h7ln4adTgSZCnGyXL/1atXwpJoB/UVTnZrBKx+R8q6/wO2915yw62UfR1zNLCTnZCB3+lBs+mIazrr1f9Hi4kH46JmxqP3Z7xAXvwkx5ncnm0LqtghOKq5vvvnGFhDYgiArK9tmbgzIutjNYfzM38rgmP1OeUSaH3ix8MkTMFuQ8MpNIBZYecsyK4/h3noWjN0vnP3fbhN2e44Lm5zhgYnf4dXFHj/6UZEUbmtIfp8nFRf7WSBm0NRNfI4XE09SrLhxHLuszjKUV9b27fh6yBCccVF3u67PveN25GzJwIpf/KJIEJHdy3/+c+RsWoPzbrsFHVu3RttrB9rvchrllv0REvPfRd7xBfDlmcK4+Y2nkptncR27BQFuK+9tYWUVznGxefMWZOUDRxKam0IlL/j4cMzkg0ezGVAqwHHTnZPLVzuZ/bdWEyTVbWiPl2jQvE/M+3iuqRwe82HHoRg734qaN6+S55js+EhCs1J/d1ytxkiu1xjLli/3fzmKyppn81hhC8ScrCwbnHv88d/i7Fb1EJd7FNkVGEQ866yzbKCIQRsX80nmozxHsNLPbi6Ti8+gYuuOsj56gvnv0bgmmLq8Nmavq1sYqGRiHsGWkOef3xNXXnm5vcD0n/+8bfaT5YXBvWjbvHmrba3Bebvr+bqzuacA+b581K+ThEPH8k0qb6CFz+lKMZWxhua8x5bwzdC6dUt06NAOiSktseZwMxyt2QFt2nWwz+rk+BWJv5WVUG7jYImfsUJeEXg+4G2dZ555pg1iehNbDbPsFGkZNVr428nbItftdj+LBq5btlbjX7bkYcCSZTL+fl7s/JEpCzF4yRZWLKfxuAsXx+X3OC1WuvloF3Jb8HDbcv2yxdHJqpQzCMDyAFt/czvzeObxTZXlRUrlVdb8X4riHSveegDPEQxiuRe0/HUtf37Bbres6T6Owb0gw1t3w92/W5/ZCr9+YCzu+tmduPWWn2DwoKtwx09HYuTtt+H222/Fbabcftstt9rP+vXtg+uuG4ah11yN3r16m89uw/1j7sevH3wADzzwK9xxx0g8+Otf43/HjcOLL/7F1MdOPCokGB6LPCbj4uLN7+DFzxjbX1ryjh+qO9J8lHmG/0LWYbsdmEdEo64UDAOUzP+4nO65l9vT/X3sZuLn3PbM0xRE9CuyRRgxd5+hEC6uVCZW0N0WWW7y1TI7Dc95/nJQqQqSC1CQGH4htTrOO9tUQI7nFMDUTwqXIViiUP1JCUCTlDhzwozBlv3hFc7ch7My5ZmUk5ePddsOFEnr+Xe7+eukDTsO4Icdmdi48yA27soEH2afV+CfBpM3+BUufoPzDjflckVFgbvugm3vmibTqcvZsFxk/mYe8Znh9mtWfKIPNZv7kOi/CwM1zPhJTkYVCQYE2cTcTUePugXtLCfxtqTjRcYpz1X0suQHXiys8aouT7w8gTATdrGflUNe2WPl0H2WSFnZbeNsDxss9GwnDi9MHB4k8TP3tmamsuB0+AzE66+/Pmhyr3h75xsNX5tpc/mbN2uHI6bQnrNhI7oMugZZG9dg3p132sAh03zTnbV+JTpdPgh5O3fj0PbtaFyzAdpdPwRfDx/uTK1sYo7/Gwn5c5F7eJY5Bpx9zhyssbmzEXvsj+bzyeasvMk/vAIxX2Ggli0f2DqJJ3uuG+L+x2OEw3hlNNJCjSvc42Lfvr3Ij0m0z+AzRSgcyc73B5LMXwaTsvP4GAr/LYo1EmJMPlHbfGe/8+3y0bzjkRBnsmST/5vZ4XBOHPZl+wuzSWaetWrERX3evOLui61ddN75PG+axGPQjOOdd2yNetize4//y1FSrjzbHA+8wMdjiFhwf+L/PY6ebeojJvuIDS66BexoY+sqtgxyW17xghMDsvwtfAESzyM8nonBxbK+OdPF/WALOpm8AWid4m+hzOTNK5g4/wsvPB9Dhw6xv33atBn4+utvbT4STStWrEL79m1tnuTmS+4tzLzwyovH3do2wuL15W+FaM+DnmSDlr4YLNkGnNP0GBokHsOna/OxM7uevWukIrkV8FCJlXC2CqwIfNkHAwKsJLqtD93EYQwoRXwLYpSwBQ655ykuj9tK1/0sHPyuW94Olhi0ZyWdd07wJUTez1xskclnBHJaPO7CxVs5uS7dbcnbAPk73Mo3/3I4z8du2ZCtIdli0U2cRjSxLMoAKefHW7PffvttG0Dw3iYeDQeOx2Du2liM+neCTW8viUPGnrKVKyNRrvxfimBrXHcfZSLml9x33nnnHfz+97/HM888Y9Ozzz5rnzfvBg2ZOB7PEzyPRvKIDftdU0/evWc3lixZYo5F1vf9j3ric3HZnZObg68XfW1vmd62fadtrMPjq7ZJtZJ5uy1bKm9C0yaN0b5dW9Q0eZmPd0CUwJ/P5NhjlOcE/pZwknf8YN2cpntOCxcvlvDuNb5Yk4/aYECxonD6LA9w/RK3G5eff93Ez/lbmJiHVMRjd6qiYjkaC8GRPD+BVeDCyrr561bemXq164UE8w/1gBvX3Yh+3/RDvw/7YefRnZi9bjb6fWH6zbBnsp6x00qqlYSWDcM/0KrjvP0BRHOCN/s65+sm8v4N7Hb7id9lEDLbFErDxQzAzRhtRmMyqIZ1a5hU00k10MDpZ1PqBnVqor5NNfypdg37HXca7nQiZr5zPDs3IJmMutgwf2Lrx2goaXunXnwxCkymcsTUQ/fsjUeDG9/Cmb2vR/o7D2L3kmno96vxSBn0S/jMeZ1F4TqmwNSgDM9s4smItx+5txjxr/u8Ijd5P+O45a3oRJofBGLFkBU/PqPCrQASK4psLcdWJdF4eLXdNs72KAwaOv02OdstWCLvbc1M5gM7PFzudLzTdLu5PFksSJt0nIWRbJ54c3HhRRfhX6+9ZgMLZsQiiSepcKWY6WSaQsq+PTtwyFSumQ6vXYcOl1+J7ZvT8c5PfoKpN9+MfZvWon2/NBzbsq1wvKxaNbHl8y+RcmFZX3Rilv7YXxGX9wVyj8zz95P5DXnHv0HB8U9QcOw9+I5OQPzxZxBz9P9MQeZES6JoYosHtvhkQYpBBxZAuC15DLjblfkOA9duEJEVnLII57jgbYH5cbVwLNcUQsx8jxwvsC2yj+f5C4IMMrH1dlJCLGqYlFirLrJNwSUaqvu8s825ZkH6Afzj8/345zfHsGh7LDYfScTLX2fhH18exBsLdqBWYnTnzfw2OzbZP++1e/CP+bvwr0VH8K8lBXh9WSxe+/YY/vHFXrzx+RY775q169iLcdFWnjzb5/xzseX0U//3O5zXvqE5lg9VaBCRD/hn4JCVNh6rbBnGFiBMDG7wmOWxzOfOXnnllc63ym5XbkMcPu7DWWf4H5ju5tsMnrBs4uYZTGx5cPbZZ+H664eifv16mDnzQ8yf/4Xd5uW1a9duM/0E8/vYAspfzqLCW5hNgY2PYmlWPxnrdx4x5ajyrX/3vOT+Np5rVu6KQ8tavPDjQ+3EApzfMgt1TZlt0a5G2HnYHLCO1bvjsfVgnGcPKR/mv1zf3K7BEitvZc2jS8JKPYNVrBC6AYLARNwfOd7JxPXhtpTj7aj/+c9/7IvX2FKOQS4eF+HiOmReECoxeMYWUtwHvMMDb1fmPBmY4rpw101peB5mayz+5XouCY8vVtp53uYdIW6qiGAY8xn3FlTuX/xtbHnJ9R0N326OxeMz4zH1+xO/+cM1sXj24zi8vigOOfn+fKailLfMLifw2OA+z/2EjTG4br/77jt7x9SNN96Im025mn+vueYaW8dhq2XWaTg+92de+IrkeLX7pDn++dgKe9HRZ+rKJv9ncp9fy/odzxkZ6evw2eef22OVL1vhMcx8gyneFLJ4ASQlpb49l3FaDEqWhOcEXpxo0qT0VDulYdDhwRKnGUl9xsVHPjFQx+/zN1UU5pE89hnwJG43N2/gXy67Gzx0A4j8TEy92/lr8QCJ+PkJLIyYlW8LJE7BxCYzLK3NAP9Db1ku4Zy4D/EZuMw/2c2WwPzL0og5JzHKfFb9s0xPmKrhvBn0y7ItEH2F86RgfwO73cTv2gBibvgFUW8AkS0HWYg9nmMytJxcJ/mfSchg3onnExZNbA14YhplCyByXacEuVU51K3M0bqF2ay4kNv7TFOZ4fY+YuqhMfVT0KjDWVjzyljkzv4jdo6/CfsWT0Nes4tx4Ae7ue32rn9W6dubD+91H2zNkxbXGSssrCQzsTswgBj4Ob/D73IanBanGa4y5QcBmPlzGqwEMFDI4A2ny4IwC8pctrK8eTkQt4PdLt6/zvZisuM43YGJ4wUm/zfCw2m4fwO7mbifu7ed8ySVl2dS/olbarkeAhNbZYbr7D/+EU2HDcPKT+fiyKG9OHbwoE2HV65F30v6YtOWdGzfug4X9r4ER9f9UPh5blIMlkybjIR2ne00IleA2CNPIC5viQ0WFuI68JnfkbMO+VmLTVpqU/bBt0wG9hliDz8AX+5aZ+ToYEWPBQG2JGABgIn7HNc3jwEXCyTc/1goZKGED8bm+o5EuMcFX+wTxybJZv57j5iKcJ5/PnzDbYL5X4L5PJ7BNNPNt60mxfmK3HJeHtV93pweW4HXT45Fo1q8ddl/+2fT2kDTOjFoWpe3qkZ33sw3+PvsvM0xUD85Dg1rxaKhqQM3qFGAJqa7ae04NK3nn3eNeF71jmzfK0008uxAvPDzh2eexgUdGpnjvGKDiHz+Gi8uhQpS8Bz24x//2Okru4PHYc7XCTYPZjDbzbfZH3gu8Cbm16mpHXDttawwtrVBxFmz5mJ3OVqSfvvtYnTqlGq74+MTCtdt4S3MrDyaMhdbtHZp3QiLMsrXYtb7e1gZOp4Xh/QduWb/ZODUXyzlemhR14e+7fOw43AsPlmXZN/iyePlyx/iMHtNoilH+qcXDv6m6dOn480338TkyZML/zLfZl7tDdx5E/NvjvPGG2/Y77h/v/jiC2fKkeM0+QZwnit4jigpsRLOMopbuaxoPBfxnMRzGZ8PypaB3OdYvmTQi88mdPfVk43BPWIeEynvMnPfCob7IwMu3haIvBAebdznGURkuZNl0j59+vjra1GwZlcMJi6IM+c8YHC3Ajyclof/NzAXP+uVb84FPny+PhaTvy1S7S4mdts21OnRA/XM+q7x+OOMaDiflK4i8v/qjOVwXohm/sX8yH2xEcuRzB/cfIrdPGZ5rPKRKOxmnsE7q3gRLlx8YZmtA5hygc/8ZV2bDQ+OHD2Go2bb5uRk47P58/HsH36PT00eNvODD/D94m9tfSIhkYHDeJu4jImmfGtfWmqW3Z5TTHdJePydcUYz+xzgUIm3Ei/YUoDr/7Y26OfBEqdZlscDMH/m/BhIrEjMm/jbiduN698dxsRuN3H7MolfsZws0ucnFAmmMDkrncOT8hNxU4ubkFA3wWwZMzLPO2Yf/mrHV1hzYI2/ORaHmXMzrzQ9kPqAWaCSM1ev6jhv7y3MLs7f/RssEU/abmIAMctMJ7IAopmnk7m5tzBv23e4aNp7GNud7u37jmAH0/4j2Ml04Ij5jj8jc6fDaUaKy8/KYLiJrR6joaTt7atRA81vuAG1TYa9efpezO3bEzteG4/De4EV/8rDhxfehEV9b0G8Oa9ze59pMsWjc+Y4Uw6NLTF4C4d7MmJzdd52wwdaf/75Z/j0009NQfgTfPKJP7Gbw/gZx1m4cKH9Dr/LaXBa7u0j4YrG81T4QGH3NmUGEHmLKYOorBiU5e2ZgbzbxW4nZ7t4hzMFjltSCpdbGPZ+L7CbuK/Ex5+4ilUsmc+9/ZHg7z3vr39FnUsGYPVXXyDn2AFkHzxoU9aKtRh0/oUYeO75OL56vR2WawoiiS0aY/ncD5HQ8Wyc+5e/2GlELha+uM6IifPcUsXfy+Bh7hbzt3jLkbxjXyP/+ELEHX/efB6dygH3KRbguN5YmAvFDSy62OqBQUR3G0UinOOCt37ViMtDchJbPvqQaDYrn4HHN9gzgMbnxTKIxhZ5Nc2pIjY/C8m1otPiorrPu0ZiDM5smIwrOtdC/3YJqJ+UY/O/m3ok4abzU3DdeY3sckV13g3qo2Zsln/ejevgiq710LdtIq7sAPy4kw/XnZOMmy5siOsuaOaftzk+2Kou2qKRZwdipXT8n/+Eizo0Rt7xwxUaRGSFns8oCwxUsJ+PgIiGvIIYHM/14dDRLLz77gcmvY///vc9k97H9Onv2vTOO7zFcYZN06ZNx9Sp79hnIf7731PN32nmPPulPa9u2rTZDmd3pPg7mSfx+YesZPG5g/mmMkgnbmH2IZsXfE1q3aweFq8vfwCReSUDKcz/Pl4bg3OaHrfnMpbJ3HMaxZljtUcLH3q1LcBXW5Kw83AshnbLNeVHHz5caw7eMDGPZcsclgHc29P4l5VELoe/POifr385/LfeEsdhSzZ+x/3LIFtZMQjNC5hu5Z/JPTe4yR3OfY7Lx/JURePv5e9i0Iy/kc8f5DM+hw8fjqFDh9qgF5flVHGDqNx/IsHx3W3J/Y3BF94pwPO2i+uav40BA7bkcpP7PLmqgHWyN781Gbsx+uJ8XNM9H20b+nCG+QkXtC7AI1fm2SDigh9isW5v8HUYu2YNavfujVizfihp/HjUHjSIK9/2hyPs/H/jKxjWujWGveJ5ySGHDXsFoV97GIFoTuskY17FeoqbV/Jcx5Z+bit4/uUdVAxAMx9jizQmdz//+uuvbT/LmBzGaXmf4VuSnGyT//AZ9iYxL8o1yc0bs81nCxcuwLr16+3xwunzuc8J8Qk2YMhU0ywb/xLLX/781N/oqDx2ZGbhuj9/jeHPfYOt+49j3+Ho3LkRCs8ZDPJXRCtkL7aQ5ry4Prmu2M1txr9uXYx/uS8wcRyudzH5lfPX4oYqy8biinYr7N6KO6Pg43uMR+9avVGzXU1TczAjm3zwxk9vxDOrnvEH18x+ntw5GTfE3IARzUbY6UWius37aFYBDh3PR64pVLrzI/cvebuZ8bmZGwsATAwc8oHcnFa4fCbz4bTcACBbICYnJhRNSSbzSoo33fH2bw3z101JCfE2mMfnQbnTcTPFSPArx5xWj/xbNOUVS2wZGS1cr6G2d8+//AV1zUm7PU8w645j/WfAiun+OPExs+7PNqmeObZibrgBZ06fjlpXXeWfaAlYeOW0eUwyw+ItHXPmsLLzjqnUTMGUKW/hrbd4Jf91m9jNYfyM43z44fv2O/wup8FpRVLJKWt+EIhXkHi7KE+GPOlyGdi9eDFbXnRyxiofuy1M5u7dNu5w92+oFOzzSAVOx9vNf7ZllDkJuckWTJzCSWDwkClS/O0Xvvgi6l56JdYsW4KCvCPIZbDQpILl6chfmYGEhg0R36oVcGZTfDt9Kmpf0AcX/PWvZQwe+vlq3oC8uIsRX9sUcmPMSdUcoAV5283fbPPbayAmvrGZftEHwvry96EgZ7XJzF51hpQPb+1igY55nJu3MHHdc11yXZP73BL284HuzAv5hj3383CFe1zYK6e5x9GgViya10+0f+slx6NOUixqJ8WhlvmbnOh/DiAr6nz7LQPr0aB5x6JpvQTUrRFj58dh2ccOIykxDjXNfJPioz/vNqYyVpB1yLY69M472cwv2cy3hjnnu/OOjfUh+3AmWrZo4Xw7OqKVZwfDlhUv/uV5XNihMXKOHTIVm2x7nFUEbhPeZsrnHRJvW47m70pO5F0YZhsUJNq3Lv/4x4MxcPAQXHPNEFPpvdomtjK87rqhuP76YRg+/FqMGHEdbrzxetx00wjzd7j9e8MN1+Huu+/EL395tz2/RurrrxfZh9szsMKKDCt67jp1b2FmP1vx5vDuk9x8tGvREN9lhP8yC68vNybiyw2xdn5M2w7G4fCRo6ib5LQ+DEiuWkkxGNTVhzMbxmLqskRc3DYPn6/3B2LDwbyY534+15LblIkBfQaOmG+73DKhm4fzM5aDOK77PQ63x3kZ8JmGnJ5bFnbXtZc7jH85jttqPdSbwqOBZWpv8JAvoIv0vBQMz38MwIZKxPIYj61gn7m4HXi7MyvZ7stcSsMgLd9uTfwOA4bcD/jSJG4/Pt6GxwyffVpRedbJtPNQDHYdNr/vDB9+1LL4flXLFI+uPds/fO6aWCzdVjzlPPoUYsw+nvvjHyPrmWeQf/bZiPv2WyT++9/2e6WJOP/veTM6vz8W3hhi1LS5E9On34k2Tu/JwrpGKCV95mJwm8ceg9d8DiLzASbmA8yHmBfwM47jBr25f/M4cuvZ3Nf5GcfhbdD8nNNgILEkHCfHfJ/TsRdzzDC2IGT+wLsVEkw9+oFf/waPPPIoep7b015U6Nq1i9nmNW0QMSGBF8UT7XHGvLTAOZ8UmHp3ac9ALAkfu9LlVx9h+iL/yxYZPGx01wdode9sPPnOGhzNjk5DnUhxnbP875YT+Bgj9rN+GS5uS65f1iF4gYt/3fOjm9x6Gdcrtw3zaAkIIFKkz0/gCi1M5mAp0m9SfFw83uv5HobVGoaUS1JQu3dtxPY0FebupiB/WU2ccc4Z+J35d3fdu50phq/IvE7zef/m39vw5pc78e26PVi04TD+szQGo17OwF0T0zHKpLsmrLXpZ39fgzv/vtok8/dvq20/P2cabcZn+s8SmGkcstN684sddtql4UNa3Yx07+49WLl8Cb768vNi6WumBZ/jGyctWvAFvln4BRaZtGrZ99izd1fhdMoSQIyN89/CzFTf+Vs0JRVJdZOj82a1Its3yPaONSeLH73/PmoNHYpLU1LQy1QGepjh3Uym098UkrJNhSjmySdR9+7wtjdbIVyRdjnS0q7ABRecbwpd3XDXXT/D4//v8YgSv8Pvchqc1uVXXGYzy3BF63kqLBDzxMztzpMpg4e8vZnrLhq8AV2X2+0OD9Zf0rBIeb/r7Y6NPRHIcpN95iJPSuzmZ55u/i0L7pe9X3oJ9fpciTVr1yC3wFTOTGHEZ06AZqVj++efY/N//4Nl099GvUsGoNeLL9rvlFuNIciNuwxxyb1NQWUffM5LVOKTL0F8nZFIqDcKCXWvRVyNE2/azs9ehXjfGlNjLN/DiNmKlSd9tkC0BSazfzFgzkIAC3DcBqykuBVVDuN+x3G7dCn5rXQlCee4YOUpuWYimsbtRetGiWhcLwn1kuNQu0asrZDXSuR5wr+PxOUewu6dO9A5SgF1zfvEvOuY+Z57Zjyu6Gj2i3izX1bQvFkQTUpMQNP4A6X+7gRzjOzYsc0+2y/aKvIZWHyJwisT/4aLUhsj++ghk79E/oD0cKWmptpHb8yYMSOqLSrfXlqAu6fm2Qp9dl4Mbn4tH3sOA39fmIT734mzLTU4zu2T8yLujgQrpHv37rO3eDGPYt7Fh9/zlmUqvIXZDOcFYz4Hka0QWzWpiy9WRfYcWW6iv34K/M+sFPxuVoE5z/C5TvH49zc5uLCl2/rQvx3tXM3/+BZx8z/b737erlGsqdRyX/ahVoIPuyJ4BOSll15qW1myEs7fSu5fl3vedM+TxPycxzWDWgyyMs/nm4EjxUom78rgOYDnAs7b/c2By+F+xr8clxVV3s3BFqPRxvJYRQQPieub57lQiS2ouD5ZNmO3OzzwsTIsr3E5OZxllHB4tyEvZDPwwnXKYdym7mcMIDJQU9VtcXYNtjoMpY3z2fdbY/Di53HFUsHipfaYO/bKK8g2dYWscePs+HFLTKUtTJHl/x0w+r7OeGICn18dwGmhyACYTU5rwo2vDCs6zLY0fBgPDzsx7sOcXJEWiPPwsPsd7+eFw4ZFJYjJvOX111/HnCB3eHEYP+M4JeExzmM+MI9gYJD5AMuaHO5NPC4uu+wyGzRnXs68nYEn8o7HIHxpEkz+xO8yn+KzDfl8XAYOOYzHDft54bv72d0x4oYb8Mv77rdlYN7CzM/4eBTWh1zMwRlI5G3RZXVRagP8qM2J1sCcfEqtBNsS8bEpq3HZk5/jSFb5GuswP2D+7uYLwbBcz3XgYp7iXpTid7l+2R9JAJHfc9c31yMD8Mw3OR8O42fuMnEbMp9mfiZmmzl/LW6Msjw/wT3pByb3s+TYZLze9XUsTFyI3+T/BrcV3IY7Y+7EX/f+FSsarcCYs8bYccsicJ5ucj87XeZ9JCcOd6a1wQNDO+LXw7rgroFdcM1FrWy6OjBdyNTS/r3mojNtGtqrdWH62aCueNBM44FrOuKOK9qicf3S34Brr4zzKohJe3fvxNRX/4aZU18Pkt4oTLOm+dNskz58+02889pEHDGZszsdtmqMxNrVKzH7vbcx9d+vF6ZpxdIbxdKsd6ebDDV0phSuwO3sJvezWJMRdX3zTSSaQmoDU1jGrbci/o47sP+FF9CmRw+cNXasHTccXDM1a9Q0JyO2HPSnzz77HH976W8RJX7HOw1O0z/10pU1PwiGV+n4xj9Oj5kxrxJFtfIcsE2828XbzcIACwZuCwR2u+MEprLyft/ffSJoaAOHTE6gkH8Dg4f8W575s5hgji7EHNmDHD6PxeyPx+bNQ6IpWNZvUg++WFNJ9o8aNTFJfZCXcBPiaw1ATJy/1YH5EShIuBL5tR5FQe0/mtpMfyTUdip+PlMIy99nSmWL/f1lxH2U69MtoLGA4d4axcKAe1WYJ30WCFhB4/otz74XyXHRrWsX2/otKXc/mtWLR8Pa/hZ4fIEI1w+fAZiMY8hYswLnnHO2rcx5b+0qD83bP+8GZt5XdmuA0Zc1By/CV+S8zzGF+sy9O5CYvTfo7443804qOIz0FUvRI8rzpmjm2aHwds43Jr2KC1MbI+uIvyWiW8mKNh7bbtAhGr76wVSwM+Px8OXx6NOhwN6K27lJIv6+MBFtG5th7f37x3XnxOJfN8dH3B2JRYu+sy9mcVsuMv9iMMU9P7u3MDOAaFYC8kx5ibFFlmUapdTFio3h38r82Acx+HRdDBrVjrFBv5krCvBFRh5S4g8jDrz1zqnkmvmwsum/44StVkxZzQzj2YjbYPl2s2z5ufZ5pkezC5ATwYmE57TrrrvO/kbOi9NjBY35MtcBK3LMs5lH8yIjk9vShy13+EZOBtp4G7tbOQ8X96F3333XTt8NDHh59y92M3F5OR+eU9zPP/roo4guwJamIoOH4WBFmIFDBjz4GBz//ncCl4/BQ5bdWLHmbdVlwXXJIGFguYb9fIwNf3NprbMiwbIdf0tJyRXsM2/itMLBFvV0rITYxXFnUo1r+3B5x/xiKbtNO3usJ/7zn/ZZiEmv+u/SKDDbKBxlyv/7P41JGOkP6hWah4f7PoHOkzbZZ/htmv8YenLwxlcw9onOmMRhJk3qvA72ad2L16DDc864k27G5JEPmym4NuKVYSNhvuT/3KSn+3P663Cf079p/hC8P7b8tzvz+P7tb3+LuXPnFgkispvD+BnHKQ3zCDefcBP3BR4nDE4F5h/s53Aex0w8p3Ofdr/rTqvUY9scDzZw6CSO7789ObHwFmWbGFQ0w5k38ZZl5lMMPDLgGGvK9/wejy07P7Nb2qB/0UMvIh2a1cLHj16CiXf9CHVrxqNJ3SQceGUIDk/6Md7+1YW2ReLTM9KdscuG+T1bJfM3hcJW7HypmosXlvidwBTONvZi/ZTbiOcJnou4DFz/7sUSrksmltdatWpltzGPtequ2N4c8fNzuGLtH89fk/wfFf3bqWEnPHLWI3j1vFcx4YIJ+OkFP7VXFd3PI8Z52T/VYN4xcfhqQwHmr83Dp2ty8fnaXHy9viBkWrguz6YFNuViQUYuvnTSZ2tyMM9MY56ZxoJ1+di4u/RoPQ8sNzOMVoq00sGKypJvv8EqU/mKJC397usSM6WwcPvaP6Vv74adOqHZzJk4d9IknP/yyzj/Zz9DwqxZhZ+Hgw/iT0ryX21xE4Mh7gmKidPjlRJv4jDvOPyOdxochxWDcEWcHwTBbf373/8el1xyib06yodxDxw4EE899ZS9mhcNdpv4OwtxXbjrnH9ZGGamz6tUfB4J035zomflyR3X+51wuPtwsO+y238i91dK2NqPfwsDiebkVNgdkMqC+8y8e+/Fnvmz0SU+Dgnpu1DLDGcbXO797E5YuxNdEuOx59PZmPfzn9vvREtM4o+QX/NXiK91JWLjmztDHbH1TQnhcRQkpiGupv+Nz7alYv4O211WLNy7+Qn3bb4chVeD2cqQBRIWAHh1kvs+CxUc5i2AlFUkxwVbUuVnHcWRvVuR7DMVxYQc1IrPtUGs2Kx92Lt7B9q3a2tbd/EZpawA8CpqNGje/nnXMfNOjqv4efOY72kq2UcOHsDuTabSjSOom2jmG5uN5JhjyDqwFVs2bUDr1q2wZMmSqP9uikaeXRq+hGLq5NfRs219ZB0/Zo6/aF+S8L+8hS9VYcAoWs+gm7smBm9848Nt/4rB5EU+7DvqQ2aWv5Xo8i15qOXbiY+W7MZHS3fj46V78PGyPZi3fA8+Xb4Xn67Yi/kr9+LzVfuKpC9W7cUH3+525hAe5ltbt25Dhw7t7T7D/IvnQib3HHLiLcw+7DyQhX2HckxFLRsHjuagScO6+HRZ+HnnL/vBVOp9qJcM/POnyZj6bS7+/fVx9Gp51Mzbh3xeIHbKeDyl+XgByiyHe85i8pnqwowlBUiMK8Cv3o7BSjP73Yd9mLYk/PMlA4KDBw+2FWz+Vreizm6em5nYQoiJ5Rfm3exm/s3xLr/8cvv4iUixJau7ft0Lh0zuuSMQh3E8lhV4Kz2PU+6PDCLw+WbRcKqDhy7eBsl1ynPnBx98gI8//tjmi27rX966zfIzW5BGGrglrnNy17mLF5G9wVg+vzZa2IqMLwwsKbnLE+wzbwq31Wn7Rv79aNn2GOSGeNPy91v927dfagFu6Fk81X/i1zyJoOb//A/qmP0hfs4cFLRogZxbbrHfC0dZ8v/+ox/Dmhc8AbyNG7Cm52MY3d/pd7Vph86YjJGt/QHC/k8/DTtKzyG43L1Xuf8A3Iw12OA+bn3jx3gfAdPi9O10nBaIfZ/A4sVOMLKcAoOIkQYPeSxyv3T3D3+eyBchHrcBRB6vvKPFxc+ZbzHI7s1POA12u9NhP6ddGj4r3Q1eMT+w/Ql8OQpfkpLgb2mYwBexmTI+Wybafg5PtONxGANdP2z4AfM++Rg7TZ3LBsIirG97sZU9WzXeZTbyqj9dgavPO8MOr10jHtde0BxLfn8ZMo+FF2gvCfNXLjvrZswfmCe5iS9Y4i3KzJOZeA5h4vHJ84Qb8HdTpAE+97FG/J5/vZ8I4nLbcZpsYcrW2pwnl5Hzrc6KnK0ifn6CYQsZnuRyu0P95YHFjeIeZGXBaXkT8Qqh2+39ywzE7a+oeZPbHepvWeddryafK5iIZJNq1UxCzZqmu0bwVLNGgvnrjpPgfwYhn8GUxGa6cTYzqVWzBmpxHDM+ryiUpjIEELkOeTCXJZUX5+1NLrc71F/+zjLtazGx9u1/8+fPL0xsNcUr+G668MIL7dVjb+Iw7zj8jnca3323mAvnzKRkZckPguHtFDyB8uTNVgYMInJdMIg+a9YsZ6zy4fr2Ji/2c/3zxM8TESsEvOrJE8HiJUvRuXOnEr9fEla6AgVOiynYPukGDt3PveNHioHAj3/+c+yd/yHOM8d3na0HUMcMZ3Hp2JmNcLRVI9vNYXW27MN5ptCx59MP8fEvfhHdIGJCKgpqPYK45MsQE1f0OUpWzVsRG98OsXENzfGfY3bzyJ/3GIj7EtcfC3i8OsiTvhcrn9yPub9F46U9ZTkuzjyzFerXMwXTnCwc2rcLmXu2I+vYIdsyrUP7tvaZb6xMsnLK38P9k2+jjQbN++TOm48s6NwpFc2bN8PhzP3Yvnk9tm9ajwN7dqFWcg30OLu73Q8rYt7RyrPDwSv1OTm5yM7y3wIbTaxEsFWA++ZXBi8irRAE879X+XDTef6WQPuOArsP+VshstVQ3YTjOKNhXTRtlIIWTerjzGb10bZFA7Rv2QgdWzdE1zaNcXa7pujRoSnO69QM53RoYipsiVi28bB9tmUkli9fAT77kHkTcR/gOdI9D5B7CzPz54T4WFOO86ck092obg2T2cZh/fbw7iFuUtuHIzkxOKNeDC5NjcelHePRq+Vhk1eacw+fz+uci4r+9Z+X2MKSf/+7tACXts3FtT18SN/tw/rd/kAi32weCQbKGDQg5tUMSvHij7vvMtmWNWb/4nD34i8vCpU1ML5o0SL7G7iOid1MXO8sG3A4u93twGHEC04MbLmJ3+EL4cqL0+fxf6qDh8RtkJaWhvPPP9/WDVg+49tmmScxUNKmTRvwzedc/2XBlqPEyj4r/i4GY7i+XZxftHC/YevKaCROKxx1zGjnnVmAPUdi8NqiuGJBxCXbYjFrFZ//C5xvxgsm7+KLccSUiXMHDbLPP8z56U9x5JNP4DP7YTjKnP+3uRPPDXkfEz52+n9Yh+D3hvTH02Y7bdo0AHNs8M/b0jBCPR/DfDstNznByCjwBhEjCR4SL0Bzm/MYZRCL+QETn9vJgBGPWT4P2A1c8cICl5/7Mtc9//KN6e73eC5jYIrHGY+l0rAFIZ+ZzvwgxuS9/J6b3NubGTTkOG7rRH8LxDi7bBP+/nf85S8v2IsB06ZNw7fffWvz8/KcoWcv3WWDiNSiQU3bEpEv93IxkDj6ijblvo2ZeT7zH67TjIwMG5R1Ex8hwXyJF1yZeGGDifkon23rDfpzmHvhIhIsb3BdcnvxwhWDhpwOtwXzP+bVvJjEPI1lHuZnDGxWV3EPPfTQ4063XXHceLwyHm5Fi98hbyXY7fd2u395UHLj8MTEDcNmv7n5BdhrKvaM7kYicN48iCdMmGCnyYOWhRQGCbhDvfXWW7YAyoBKNObNnYsHKHd0Tpc7HguDfEsuMx3u7HxrE0/I77//vl0Wdpd13t9vzkdKvdrmd5oKsakf106KQZ1afEFJTPFkKkhJfFi7p7t2TZPhxPLWlHwbNORnHM7bq+JMRf7iDieeKxDMyhUrsdocrDxo3DTmgV9h4OBB6HdZf5v69u+Hfv1Nt5P69utnh+3YucNkuMtwyGRuG8024u/l98/qfhY6lvL8qVUmI+C29Dp89Ajq1K3j3P5pMlr7N85eLWeGa3YIO97nX3xhK2XcB8wMC69wMiNmxs7nSDQxBYRwnOz9PDsr21SAz7SJQREmFjL5AGo3nXvuubaFhjdxmHccfsf9fmbmAfObzzbLk1P4e7wYWOOb77i8VJb8IBB/N49JrgtO59prr7VXev72t7/ZVje8beWCCy4oVwtRbk93OwQmF7cDC7A8KXE9NW9+BrZu34E2Z7ayBQae9LnN+Jf7JluHhNPS4T9Tpthm9XzTdOC8uZ8wmR67v9lKmdlP3Upa4PjetNvsJ2ytEQ5WMOf+4hfY++mH6GsKE3W27AGPZqbMts3xQFYuPkEsrmqYgvqZh+3wmgePoUWjhli1PgM7V69Fu4ED7XyjwRdTG76EXojJ+Rr5sZ3hi/U+38gcp7498OUuQVxiW1PSH2xKTP6rmWXBoCFxm3H7cZt5fwcDxtwHGYzgcVeW31ie4+LHm3+Me3fci2f2PoM1BWtw2xm3YnLBm7g+8zr8NesveO7wc3io0UN2XOZHfIs6ufNiASac/bA0PDetjl2Fd33/xcakH3BmvVY4I/nEeq+IeU8/NB3tE9ujZiJvT0w2+3Ndcw6rZwrytWwB/cMjH6JRXCOcf/b5Ffq7g83bVdHrnPNsbPa7xo0bmfNPCpJNAdnlnTfzJ4p03pHsm0v2xqFZcuhqBB8rcsycW1NqxGLz+vQSbynkW2H7Xj4AsxYsQ52UBqhRM9nkacEvBuw8FosejYq2UGRFh/l/sJdofWHO2yxPsbDu5oE8hvkdBoJYOQvEQj1/O4PCJeHhf5HJdhom5+GTNTE4YlZbYrw5X5vK0T2XxiA5Kd6WlWxKTkDdmiY/NX9tcrrj42ORsS0Tny/fZipTiRhy/hlo24ztu8PDc8y8eZ+hf/++tkzIPIl5F88JLEseOnQETZq3wqOzTTnNnD627tiJds0boGaSqSSa8g6Dfgwo8qV136dvR8/U8AI7JovEp+vicGlqAl6edwjXdz9m5x/PAGKQv6yg8pY4/j2SHYPJ3+TitgsLzPmLL4Tw2RaIr90OnFOGogH3WQbPeVGHxyOPFZ7H3b+F504H95Vbb701aLmlNDw3sLUI9yGua5ZFeN7gccIAEcse7jJw+pwvl4HbhBVWlzsey1T8XiRYX/jwww9twIG33XG6lSF46OJ64fmRzz/kuZKJ24jlSZaPuD7CtWXLFrv/uM815DmYlW/3AgDzKh6vXCcMIrISzv2A44XK+3jMMK/j9uGylYbbidN0E/MTJm8wOFTi+O4zN5m854vSdGriw9ebYrF+bwy+3WLKcUdi8MM+Bg7jMHOVP4gz8oJ8tG8UOh/2mXw797rrkHPHHci78kpGw5xPiosk/2fgu8jLhzK/x38+BK66sSd4mSalZ1N8PGws5pzRF3c8dB5y/ud1HBx2I3ryQ3fci77H799ugCt6/ghXjB2Gup+9iQNndUT6whPTwbyJuHPzRXhiBMw+b4bffTkS/nMH5jYdiyvcmz9SDmLp/4zFdz08w6KMxzPL+v1MPbSk4CHzFu7jXu7jE5hvcDo8PliHYqMOt67A/Zwt4pi/cBwGD7k/M9jFZ7SyzM88h3kNz1nhtD7873uzcNWVl5s8Ng7bd2w39ZV0JCbxNuUk2/jCnz8zT45HuvmstakfpqTUt8vHxPPj1KlT7DHF/Ir7RYfUVJxt6n0fzZuPK9Muc+YUXKh62N7DOfZFKpd2ZhnaP2z8rPX4dNVe9O7YwLZObFqvhjmXBs/HGGTjOi0Nfx+POY7PdVwWXA/Mx3gsR4J5Eh/jwDoi80LmRe5FLG/+x3yN8R23zkEsv4Xz+043RbY2M3hGdsuCG80VrJt/eUBxHjzoWDhNT8/A+g0/YOmKleUqsLvzYObIk8sVV1xhD7bXX38d//73v+2VNRYseRU7WvN+88037XQZPODOw9ZdzKCZuBPyZMXCAm8FYNBy+vTp5Zp33Zp8lpIPdWvF2VSPqXZs0FTX7bbjxiDFdNdMKkBCbAHq1Ukyn8Wbz/yf8x0jnHZp+ABWFry8iQcQD7aP5s61acP69TbDchMzT64bHoSsxDElJiUWfp8ZcaS4re+9917ccMMNuPHGG3HTTTcVpptvvhk/+clPcMstt+DW227F8OHDcZ4pAJ3bsyf2HQj/eUElCbZvk9vNv4H7+dq16Vi1eg2++W5x2NubBUpe4WKFkomB0H/+85945ZVX8I9//AMvv/wyJk6caINzf//7321iNxOH83OON2nSJPtdToPb6+DBQ2EXVsuTH/AKEE+2vAWG8+UVu2uuucb5lI+HvLXwwdyvvvqqHZ/9HDdiZp17t4UXh3M/437I38P55eXl4utvvkFDc4JhYJ+fMbjIAiwLDDx5ZTkFstLYZ3maZeZ83ETefg6xL3kx6939G3JcJ+WbfShc8379a2yaPBkDaySj8eZdtqUhU077M/HL7Hxc3b0n0lK74hd5PuS2bVX4eeONW813auLgws/tNMqK69ctLHFd8tjPyqmJw7EPISuvuR3mJn5W4DP5Dd/QHFcfBbHdnKmUDSsmPLnzJM/Cs7ssTMxjWKjjODy5u8P4l/tBmfY1I5Ljgs/Bvbv+3VjWfhmeb/a8HXZLvVts/5st30RczIm8l4W3X5vtwOOey8tCCvdFnkPKuqyuRccX4b6d96F7je5oEN8A0w5Ncz7xi/a8795xN+7acRdyfcFva3lo10O4Y9sd2J/vL+hW1O8uTWWZNysX0Zh3efJsMrmP0xUay1eX9r8c0+YsQK269c35nQ8+L39LYmJrdV4047oJhvPmhdvyGtApH8O7bEFtU6ZatS0fPc7IwqHjucg2eaT7rEEWT9jogsnni8H+Q8fx8fdb8J+P1yAOubipz5k4u42/hWQkMjLWITW1g82vmNdzW/Oc7A/aMXgWg71HYtCjZSL2ZNXEvqRz8MOBJNR0WiDWSOAbvWPRrnkKDh3Lww42pQwDWz6dmVKABav343huDNbt40Vlf6Au8K998Zfn7/Of5OOW8/IL945hPWIw8+cxaOM87jZSrHAPGTLEVsLdwB23uTdxGD/jOKyQsxxZFlzHvA1+5MiRuOOOO/Czn/0Mo0aNssFrfubOn+cQN3EYtwcr/hyX32PZkuVOXiwMF7etWw5ifYDBBXazkUFFBw+95WtvN5fJm794P+P6YOWZLaVYl+J64OdlzY8o8LsMEPARE/z9nA+7Od+KxDIw85ZwUnlagtc29alHr8rDha192H04Bp+kx+K9FbFYtTPGPvfw15fn4/zWJ9Z3tJUv/++Ppyfd7OnujCf6em4x5mA+o/GJvv5hrfvi/SHP4U7GKRc/gb52mEl83GGRty+3wZ3PPYY1I53PTXp4npn+/KLD3Je0RBMDh+G2PAyGy8V1ymOA5Vs+foHlRwb/vYl1Pe43bDTE+qcbcOJ3I31kDsvJb789Ff8wdbi3p72Dl178q72oxmPEHicmMV/mEeMfZgfZ1LdvH1NHfNXmd3wWIB9P0JR1TvNhacdwSZ9f0L4+/vHJRgx6ZgFmfr8TOzJNfcrULcb9eyX6PP4Z1u8q+RwUSf7B/JdxFebJkeL6YJ4dafCQ9WNe0OL3GLtht9s4IRCXa8CAAXbbclkZsGfgmA3YypNPVkXFzlxleX6Cu1N72WEOdrPCxgNjz569WLFqJTbbgkOS2Qmz0bCe/zaBsvDO2y0IcAfgb2A0nlcgWBjhSZotr6I1bxZkGUScNXu2bUHFefH26UGDBtnPeQAwoMnMgydiZjDlmXfd5HjzO2JRp1YM6tVm8gcAUwKSDSw6wUH/31jUMmXx+Bg+f4HBQ39Qsa4Zzr81aphuM+3SMANlxulNPFhWrliBGe9Mt2n1av/VWjez5QHGq4zc7vl8u6BJfDi3+31vwSVc3N783rKlyzDrg5k2bd+23Q4LTO4eyO+wqXd5efc1lx3mYLd3P1++YiUy1q03y8JbpLLRvAlboYS3vTmdvXv320In07Jly2wr2ocfftimcePG4X//93/xyCOP4NFHH7WJ3Uwczs+ZJk+ebL/rn84hW0GN5HlVkeYH3CeeeOIJvPHGG5gyZYqtFLMFKK+G8hZrFwP8fCYiW/ByH2Ggc+rUqXjooYfsvhOJolskOK5PBo/YAunjeZ+igdkOrEBwW/HYdFtD8gLAuvU/mJNHeLfLcT8LPGm4+wT/ertt8JDJDvFzx2HitLicTJGciLabQm+j2jXRcN9BsIrFlN2hDX5xPAeDunbHL812+M306ejbLhVj+CbPdq0Lx2u47wAa+GKww5wwI8Xl5LZi4rp1u7lOmbJz4pCVU8d282TsXlhA/jbE17gA2b7eyMn15wf87ZHg+uH8WVBjRY+VEebzzHPcZeFfngtYgGQ3E+fF73F+3u5IhXtcxJl/rRNb48yEM9E43t9SqE5sHdvPVCumaMslnsPuueceezWUjyNgZYBXk1mA5LKW1bdZ3+KKWldgUO1BuKnuTYWtHr2iOe8/Nf0TuiQWfct1v439cKTA/wbEx5o8hl7JvWw3VdTvDsfpNu9I8+xCNh8yf8w/HlMsSzEFtj5ihX/h92tQv3EzNGjcFEk1a9r8q7wYOOUFNgYQeUwyP3YTzyHMR9zzBltzlQdz16a1sjDxJz5c2SUf57XKx+6D2di856j5m4ODx3LNOdvklSa/3LrnCN79ch0+/m4jWjdMxI2mUt2pRemtSUJZtowv7+luu9183h+08ydqVd+H9vWPYv2efDQ25bY1+2rhT/MSsXE/7zrhXSVxNp3fpRXmLXEfNla6K7v4sGJPMh6+IheLtibi95/UxMHj/kChf/7+vzZ4aFsixmL1Lp+9oNbJ0+jOjIaa5SxSsUUPK+i8cMfjgMkbwON+x3Mz94lgLVXLi/s458F93Bu4ZHL3+8B9P1K81Y3HtPu7eEGL5x2Ww9hyzN3e0cbjh8EwXhglLod7nuNFf/e2Yi4Lx2MQhHi3Dy/2Eo9HBkWYuLxlxX2cQWBenPXiuo1GvhEOblPmHeEkjlsevJX5zl55ePaaXPyiTx5+elE+/t+gPDw5OA8dG1dc8NAVdv7f5k5MLxLoM/o/jU3uMHbbW4tNYmCxczsz3L2F2Z+m3+l8u8jtyM6tyN7ps9vzvac5QsCwwvlWIqy/8MKFW0Zlq0QGCBn45rHF8zaPJzaA4Oc//elP7T7E73D/di8MRuLTeZ+YutNUe9xxGswDs7Kybd2ZL7gqyDdlV1M24Pz41n52e1+CVadObQwbdi1+1PNH+PWDD+LyK64Iqz5R0jjxcTH45z3n4rM1ezH49wvR/O5ZeHTKKvvZgvT9OOc3H+PljzeaadhBxYQzfy+uQwYCI8kfmZewsRYvUESKdWR+n8cNY0bEumko3C5s2cqyGuu1rD8yiOjNZ6uDIluHJzemsuBpIPBk4O1nYZgnKRYGWzZviSsuvxxHs4+jntlRWnibVZeBd97cUVnY5HMPeIWTfxldZuWRJ8RozZtBjzvvvBNHzG9i5ZgBErYkYNN3d1n4lzsTx2XwpjzzrleThTpTaEuKQY2kWCSawltCXIE5sIunhDgfEuJ9SDQpLsb/gOwayXw2Yqz9rjexwMhpl8ZmWqyAexLXtR1uMlem3NwTQUNvYsHfHYctttzvR/IyD5ebEe02hRG3xadb+IlE9wiuInt59zVXqP38jDOaYfCggcgtyEeT+g0i3tdYmOPJg4m4j116aR/MmPEBZs2ag48++hTz5n2O+fO/tIndHMbPOA7HdW9j4DTYwmbHDhbiii5/KJHmB9w248ePt8FKZr6cp/uXQc1AY8aMsYEenmC5znh1ngGmxx57LKLKczh7EU9E8fEJ2Lx9B7p16YIuXbraeTBv4HzZqoAXAlip2bFzOy41ldRwhDpZePcJdhcmsxxF+p3E9cB1wIL6hg0/mEpT+M8bGjptGg41OQNftG+DApOvHOzQDo8dz8YFnbvi/ilTnFv7Y/HwjBno2KYdnsrJxcH2bVFQuza+aHsmtsTE4ZqpU52phYfrjom/n3/dAB0Tf4sbLHSDie6wmIKNiE9ogmN5HXAcQ+x3mS+40wqHzXfMuG5iIY3T5/7NvPhEfpRbOH12u/Nxh3mnwRSuSI6Luxvcjf7JwZ/s0zK+Jf7U7E9O3wncV2+//XZb8eSzp3h88Bjiiyv4O8vix3V+jPePvI+btt6Ef2X+K2TLwGjNu1ZsLXPuKdoq7bq618FUyW13ckwy4mOKVs4r4neH63SZd6R5thfzobiEBGzfdxC3jvwp/j7xZfxtwkRM+tdr9qVXXskm76hXvxFqJvO2qvIHAhi04PHr3krGoBHvGmGeyAATKxTuZ6zE8dZKrp+y8pdd8tCoNvCLfj5TbvLfFsyUk5uPI8fz8H3GHkyesxIr1m1H7871MfzS1mgT6QP/AmzZstX8rqa2gsntnpUXi7dX1MTmg/H+x1uYxHXJFpDPzS/Atv252HKgADsPFWDtTh9+9noB5qezFaI/8TmMP+w8gswjJx7qX5IeLX24tF0BPtlUDxelJuPn/eLMfGrg5QXxpvLpBA/NuvA/F9Hf/8R7ObinT/m2byhXXnllYeWLv90NJLKb5wsGFni7fEVgJZC/L1TwkomBxPJwA3VsscI7YvgIFzYu4PmHv7si8eIZW8e4ZWZyz3Vct+45j+OxrMnxWH7n7ybuo+6ztcv6/EPi72W9iLcVeh/fw7KWOy9i5b+isBwc+KbWUMktM5dXvZrA2c19uKhNAc6oy5dQOB9UoPLk/4HmPexpHchWhTbqV30wOMhzEPME98IC8wbmGbyIdccdd9jEczf/chjP10w8vt2LEHzcAQPo4bryqkH405//jMsuu8zWS3j8JddK9gcK2RCH5ddcf/k135zDck15nndVMZjo/9x/jPvzcnN8mcOfx7YnGyiTfl0b4Zv/64frLmyOOgHvTTieU4BNe48VPicxGliujyRP4Hry5i/hYhmD+STLF+52Zt7EvJvbMRSep3v16mUfI8B8g3koz2Msv5X0vdNJscgRVySvSIUtoOAYWJBkP3dmVuAyMw/awmCDhg3w7fffIzkxwT7ovMyCzOu2226zBXGesNgakFf3WSm/8sqr7PBozbueOel+8803tnDDAi0zCbZKJDZzZkbDZ9D5r6b77H3z5Zl3nRpxMHmGnzlGs3MLcOBIdrGUyXQ0GwfN30PmL6+iI9Yc7HZdFT+DcZqcdmnYai3XHBTexIws12Zc/go7AwWBwUMmPs/PHSef+4L5289kjtF8eUOktmwO/XynoILsa16B+zmPo4YNGuLr775FneQaEW9vnrT4gPrNm7fZdPSov2VVampHtG3b2qQ2aNOGf02lps2ZNvm7/Z+xu0OHVPsdftedDvuTkkp+3qVXJPkBT7h83igLp3/5y1/svHiFho8OCHzGCLHCyNuKeHwy+P7CCy/Y1mKsPLMJebh4uy9bAPN45Pe4vExuN4evWLUaqzPW4fK+fW0BkSdULicLzMz0ue14kudzMwc4x3E4eFIPC/cXk7x7DfcZJq4nFjZ4wuRJKPPgAbMe6jhjla528+a47v33kX7wKOa1OxOvHj+OZp264IFp02zg0MXux959FzXbdcDr5rd/0+MspB86Zr/LaYTLXxgpnvwFmqJBRa5jFqjY7cvfj+SELTh8vDmO+m4s/J53muEI9j0eL8RAA+flBgltnmO63fG4bO53vdzPwxXucdEnuQ86JxV/ZhvVj6uP4XWHO31Fcb/gS5D4cGieYxiI57mTrdy5v0aKwcpFbRfhgYYP4Lus7zB6x2jnk+KiPW/XLxv8EjViS27dUVHzDsfpMu+Iy3CO2JhYU3hOxpG8OLzxwRf4+79n4YXXpuP3f3sdAwYOKby7ghISk5Bojrk4U0HispcHW2+wouVtZcaW+myhxb88plk58D77jBUFtlDgm2LLgkc6K1oMkjExgMjnN8Wb7owtezDzy9WIyz+O269oi2svbo0zGkSnUr506XJceOEFhUGrJduTsPlALKYuScTjsxLx4nctMHX7Rbh3agKS45Ow82AMVmzNx4KMXGzcm4/z28Tix+fEoUYiWyCyJWIs+v6oDT5bGn4w6pzmeRjRIwdJ8TFoZ+pbf70RONdM9443YjB7lacFoknTvsvHBWfmo3H54qYhcR58FA2f2cZ8282z2c1bf3nLMMepCG4wwP7egOClO5z95cFjl9Phud3l3oXCskdF4u/gvFgGc7GbAUMmt3UifyOPP5Y9vHfIcPlYZ2Ji+ays+PsZ1HLXayjlXdfh4u9kWc+bOOx0Udb8P1D/pz2tA0t6wUmwloynAdYT3GPE3W+9x6xbnmRifsXE8i4bUPAvy53EY44BqXCxrt2s2Rm44cabMOCqK/Hgb/4H/fr1N9M7kTey3t20SVN7zNhhTr6Zx3FMSqyRiGZnNLPL4C6jWWBnDmXXrWVdTBt7ITJfHYJxQ/3n63ZNauGzxy/F727oas+j0cQ4TrC6YyCWD8J9PFggriPeLeotfzBwyfXsfZwBYxkzZ84s0hqbZZ+ePXvaBkO8qMlW1hyPeWZFX3iuDIrk5u4JI9p4oHEjsXVIXXOCWm8ypNo1a6Jt29J3jEjxagmvlnNjcuMycMfgHk/gF118cdTmzdt42FqAzzAhZtqMQhMDhzwhs8DLEzIP3vZmhyzPvJum8CUhPhzNyrNBweN5MfbqdciUH4vj+XF2PF4d4PMKjmWb7wYkc0630y4No/Le1odMPFCYabl4VcQNGnqTtwUi9wN+d4tZF5HcShst7vNrmMmXt+ITyLuf10yuiXWbNqJerdpl2t58W/Zll/XF4MFX2cQAJPe5/v37mcpTA5Ma2r8NG9YvkryfcVx+h991p8NpsiAXjkjzAwbsuI15/LFVH7c9T6S/+tWvnDGKu/76620Fkd/jy4Z4NY/fWbhwoTNG6fhd74tjmM455xybsTMf4LNKL+ndC0OHDCo8yXBbufskCwdr1q7FF19+iavNMR0JBi+5jty3gTExCMBAKpvFs2UNCyHc0wKDhy7uL1yezz7/zF+R7hj57VpuEHF1/VpofGkf/DogeOjisP+dMQONLumDVfsPRRw8JC57YOI65H7lJv4OFm78V/SSTIV3PxLjtuBQViqyfBeacU5U3rzTDId3XHfe/Mt1yG63QsSgLJNbcXGT9/uuYMNCieS4+N3e3+G/h//r9BW1IWcDbth6g9MXHFvosADfv39/e0WUFR3evumtFIZjS+4WGyA6r+Z5GNdoHJZkLXE+CS1a83bx9+b7wsvzoz3vSFTleZenDMe8Ickcr/UbNkGLNu3RtlM3tO/cHWe07oApH36BKwf9GHfffbcp5/wIh47lIN4cWzFmnyoPnidYUHfLUYH4e9hCIBiWr3grWSTnikImr+DtXrbloUm5uflYlrEd781fjub1YvE/w7tj8IWtkMKHmkUJL+Rt2rQZc+Z8hLffnoFp06Zjz7LpaHD4Gxw5uB+7D+Vi84EYbD8Ujx2ZBYhDHi5ul4/9Rwtsi8SUpBz0qLUEE975Ci+9/RX+Ou1r/GXaV/hm5WYsXR/ZLaYpNQpw4Zm5Zvv5+/ulAm/9NAa7DuXjJ6/kYu0uH7JN2fHvnx7HT/13dFUYtm5juYznTp77mfiSEfeFHhWF5wtyK9huecBWth3lDWox0M3psVUKcfq85ZHKcqtdpFj3YaXW/U28OMtyGY8rb57Cllasw3gDiAz6cRswMeB4umCe6j4awU0cdjooT/4vxbEe4R4/bGnGBg7s58U9Yh7i5iMcxmOIxw0bU/BYZytjNy4QDh6bn3/5FRZ9txgZ638w047HipWr8d3i7/HNosX4dvESm777fpk5YSdi3Q+bsWTZcixZugJLl60wdY6VWLZ8FX7YsMmUfZNNvWQNVq1ea6fB809J3N8RDj6Oia0Qf3ZZGyz5/WW4uFPJD8ONZNqBeA4oqVUwLzRG+lIrL+ZtF198cZFn7LJRGIOKzLdZpyde1OW5iZ8FYp2Tz7VlXsm/vLON57OKvvB8qsVkZmaWKyxd0xwsbEkWWDFzu5l48PHA2PDDRuw/dATNGtZHixZlu3XYqzrNe+e+Q1ix9SiycqLbNDYpMQ7dW9Y2y1byM314EI29734sX2YyLscvx46xrciImSUDhTzA3IIYE9fB9yYzXLbEX2HNPHQQTRr5b4e4486f4raRI213KPM//RRzPpzj9Pn95NZb7Buhd+70P1Ola9cuaBrk7YuffPSxraDQhh9+wDmmkMrMgkG15mY7dDYHu/fKcEki2d58Qc623XvRrmXzqOxr9Pbbb9vC39VXX20yzA42wFgSNmdnhvfee+/aqzhs3VIaBgB5qw2Dq2UxdepUe4WGBWMGjpiB8iUBbNpfEl4B5oPKWYlgsIdXeFgx5DMcy8oNIHm3j5uIJzRuKxYGVq1Nt48HuPTi8G5b9urTp48tfLu3jvB3c95u0Ir4ch8WIryBLO+y8GSz6NtFaNe2nd1WVQX3d+YL/OtNXLf+v+bEawNGBea38gKI/2127jrwJq4bd32E48Q8/AU4N3GY+3kgd527ifP1/g2lPMfFzVtvxqW1LsU99e9xhpywPHs5Bm8ajM0dS28NzRcM8XENDE6zsMSHZEdSaHpx/4uYfni6DSB+dewr3JFyB25Pud35tGRlmfe4XeMw5fAUXFPnGoxtONa2gExZk4JNHTehXmw9PL33abx18C1cXPNi/LLhL9E1qavzzaLK+7vLoyrMO5J9c9KaxGJvQw7kP4bMMW2Oa3bz+M46dhT79+xC5r5d6NKmOTbt2o9aKU3QqFlzc16sVeKxQ3z788jORa/Gs2LFN1Dzgi8L3y7mA+5D75kvvvvuu7abrdg5LvGCi/fqPs8fLOizFQIrfOHYnXkcr81Nx5W9OuHrlVtN+SoTl5/TEr26lfwW5/Jy8yeXmxcRc6wDx0x+ZLr4wpO7puThqk4J+NNHvNLvw99uyEbbhsznPPkb/5iv10j0vz06GvabOs+zc03+tCMGv77ch34Vd2dpEbxrgWUznj9Zdrj//vudTyoG9z8GXHjeZlmB5wHiNuJ+z32M5UW+iKCseFyyTMTp8UKp2xqfFzLT0tJKPXbKir+BgUq2qmFwjI914gVVlgl5nBCDtGzFywAah3EZefzx4iffEO/+jdSXX35p/3or5OXlbg9Ok7+jPHhBl3UTL+5z3uBpVRFJ/v/xxx+Xa18+XfHRZpdffrnTFxzPxd6XofDiHus5PF6I+ydb6XrHYeu1cFrPeU3+9zRMf3emydaLll+ZT/BxY8zs+VxaXgw2Az3d/laSbDnO4RzGz/zd/nPMeT174LafhL5gzTyDj3nyn1RKd+h4HuoG3MocXIzJi9JtoK883AuqXly/FXWRifVtvhCXZQrOg3eDMJ8sKU9kXsoLMyyTMNDIel+4MYaqqEgAkSdS4kk1XGx54x5ErsCTIgs7Obl5OHD4CDq1b+t/K1AUVKd5MzDHFk3cqaOFy8tMkIEb9xbAkrBg8Oj/PmJbUvGEe96FF6BmUg17W7K/0sEr5cVfAMGXnGw0GTDtzzyAxg0b2QLb1UOvwc9/8Qs7vCQfvP8+Fny5wOnzBxDDESyAyN+8a/cuDBw0yD6PJlyRbO99Bw+hS2r7qOxrzNRZ4GSrFGZmbAES7ApIMDyh8a3MfJYGK1/eQnIwgYWRSPMDBpD5EGEWSll45UmZtyiHg4V5vkma3+V+/uKLL5brxMDfyTeiebdZ4Pbi7ceHjhxD3VrJ5iRRtmdicvvw9mmXdx5uNyshLMhzmdz1z8+4v7Agy8ovb3Fg8LEq4u/gemByu11uXuCuC/5lcteFuz7KitP3JndYKO78vak05TkuBm8ejOVZy3Fvg3uRmphqnwPINyJ/fPRjLMtahplHZiKzc3i3h7FlwZw5c9C3b9+Irmq7duftxubczWiV0ApN4yMLhEU67+15J26pbBTXCIkxiXZYs/hmMFsdO/N2wuwx9vMGcQ1QIyb0vl/e310elX3ekeyb4QQQA/FY4q1Tx44cweGDB5Cdddzevlw3pT5q1anrVDhKFiyAyAoZyxMsR3gxsMLzFTFfZKCRF1UYTHQvRPH8wPOxF/NRBp/4Ippw7D14HM9NW4qGdZNw2Y9aoEeH6JQLo2nKkgLMXhGHVTuAZ4f5cOmJd5CdlrjPPv300zZP5oviohmACobHDG+d5j4eeE5wE8vG5XmLK7HMztux+ZdlMJbFeDyzu6LwHMxjhy132M3AIctTDMK5FynZUobrmC182drGxbIml5H5j3t+ZnAt3FsEWe6KpA4ZCbZWrchnJVY1keT/CiAGF04AMRAbHvDc5R7DrKMxiFjW22gDcVqcJs9r7kUHN/EzJrecy3yK9RwmLo+bvHfiBNZdqyL+Xl70cFtOs5EJ7zCtSLy7ga1J3XXIiz6l1dPYCpXlE+ZTkdy6XhUVCyDyx/PEUaa3+Mlpj0Ei4sHEgkc4t2HwwGcAlBhYYkGfmMGFG0BY8v0S2xyY02KmyEyzNMxk3VaQH338EQZeNdA+HJxBKgZ1wpnGqcbld08cXHduZsbfFhiw4brkb+Jfbh9+hwVIrm/3pBJYYfMKVhiJND/g8rKpP4OcXMeRYItAtj5kQTecgHZVwX3f3UaBuJ3Ke5tUZeUWcFwn83iL5rzLc1z87cDf8O3xb5Fo/p1T4xz7UpVPjn6CqQenoiCmwA7/yxl/ccYuHSsGbiXhZNO8T77S5h3JvlmWACL5zzH5yDUVGZ53mGfx9uVwX54SLIAYDpY1eGGJLQ7ZArEsD0gvyY79R3FGg6JvQa9s3lhkKodmFd90XuiLIqcT93Z1986W0wnLAOW9YFYVML9gObAisAwrJ0SS/yuAGFxZAojExiluuZ7nRLdeGw1uvY/BQzexHsG/br2Wf8mej029zq1LsO7Ev24qrd5XlXB9s3U665YnIzjH+TFoydgD4wbhnpe4nU7Xep1XsVuY3YevKoAoUr0EFkZI+YFUdzoupLKKZN8sawDR5Q3KRxKQL2sAUUREQosk/1cAMbiyBhBFqrtyPwNRRE4PwQojItWdjguprCLZNxlAPFUUQBQRia5I8n8FEINTAFGkbBRAFBFLgRKR4nRcSGWlfVNEpHqKNIAowSmAKBI5BRBFxFJlVKQ4HRdSWWnfFBGpnpT/i8ipEvPhhx8qgCgiIiIiIiIiIiJBqQWiiFRpu3btcrpETg9NmzZ1ukRERERERCoHtUAUkSrlwgsvdLr8GEDs2LGj0ydStaWnpyuAKCIiIiIilY4NILZt29bpFRGpvH744QcFEOW0xgCiyOlOQXIRERGRqkcBRBGpMhRAlNOdWiDK6Y55tvZxERERkaon1vkrIiIiIiIiIiIiUoxaIIpIlaEWiHIy7f3HX7HvtZfhy8l2hpQsJjEJDW+7C41+9gtnSOTUAlFOd2qBKCIiIlI1KYAoIqX6yS23Ol1FvfnG607XyaEAopxMa/ucgyY/uQUxCfHOkJL58nKx+4030emzpc6QyCmAKKfS6tWrkZGRgfz8fGdIyeLi4pCamoouXbo4Q0qnAKKIiIhI1VS1b2HeNAkjRkzCJqdXRCq/+Z99hmef/SNyc/OcITDduXj2j3/Cd9995wwROfXY8pDBw9xDy8JKMfEJYbdWFKmMGDzs2rUrzjnnnLASx+V3REREROT0VzyAyKBcx47o+Oh8Z4Df/EfNsJKCdZEE89x5eFLA7ESkkmFrQ28qq9WrVmPJ0qV4bvxzNojI4OGf/vRnLFmyBIu//94ZqxJYNx69e4/HOqe30pk1GjExMTaNnmX6K/vyRqqifk85phtXt5HTdUKwYSJVFVsexsbG4tixY2Eljhtua0URERERqdqCt0DscQNuWPsiJrnRwE2T8OLaHujh9AbVeiSmTBmJ1k5vqXqMw9z0dHu7VvrccVh7l4KIIpUNb112b192u0PdzhyuUaPuwsUX98bSpcvw5+f+jGef/ROWr1iBSy+9FHf+9KfOWFVMNIJd3mmUOr1ZGD1oOZ7L8MGX8RyWPxkwbkUF36qxuLqNUf8nT6B235ucIbDdHMbPKrUNLyEt7SVscHqlkqqo7VSO6daoUcPpOiHYMBERERE5/YW4hbk9rhgEzJznjyDO/8dT6DTIDHBsmjTC03pwhD/Q6LZAdP5OYovFcFsXMvjIIOKLTgvGIi0UH8WJr8/Ho4XDzXS/cQbT/EfNMGdZRKTSYouVu0ePRq9eF2HZsuVYuWolLr74Eoy662f2syqpwxgsWDAGHZzeMolkGuvWYjm6oxNHjsa8pVT5h/bg+LJPUPNHA2zgsNYlw2131qrP7WenjWgEsbzTqGzBy8q2PJUYA4Vnn3022rRp4wyB7eYwBRFFREREqp+QtfU2I3+OTk/9A/Nt68Nx+Fl/5wOj9cgp/paDTC93wlP/CIgQLnkK669wP78B/3EDgyVp3RadlqzHRgYJ055Cp5f93587bi3ushHITZg04i7AGc705AX+r9qAo/1oCkaG3QRSRMIR7Nbl8rZC5C1vRw4fcfqAw4cPmmEFTl/FWje+d+GtvzFspRfYWq9I/2o829sZN6Y3xheONAuj3WmYNPoV5zvOd8eP5vDRZqwSxrWfGe78Cue7DuNvG4uFC8ci1Yzf+8RMHWZ6qeZzTMQgTrPnMPT0Ti/Y9zltZ/6FvyPosgYI9j3n9xQulx3H/1mRdVtkPqMx2lmPo2eZ5SvsLv554XCvoMtRXLFta4cGrH/ndPW+/d3OsKA/vrijX07DsUUf2MBh8nmDcPz7OTgy/y3n09NEu3sxd+69aOf0lkk0piGnXFZWFnbu3InmzZvbwOGZZ55pu3fv3m0/ExEREZHqpYTmPn1xxQ3/wV0M5v084NZkbwvBu/4DrP2haICwxzj8rK/T3aZ9ybc+B9r0A9Z6vt+6/yD0+M9HmL9pHmbCM13XkqeQlrYeP09/0iyxiJwM3mBipNxnHrq3Lffu3cu2RHSfiVih1o3HbWO7Y6bPB59JM7uvRomP/1+4HF1e84+b8Rww9jYnwNebTbT9w5kmeDOfhWOxeiiHT8DA0sYNqgPGvPYcevV6Dhlm/AVjAtsWDsQEszDu574pfVG0LVDg9zMwOnU1HnXm78sYgSn2dxhFljUQA5XBvuefP8Y+a8ZgsHIKRmQsABezw5gFhb/TN7O7GcWJzLnrceYoTBx0G+B2u7dee9azfxxvQDPUcgQIum1DrP/C322SdznCERPjdLgC+0+eDS+lISUlxZ/Yqi6wdV2R/nS8kOaMm5KGlwpHmosx7jRMGvO68x3nuy+N4fAxZqwSxrWfGe78Cue7AS+NHodFi8ahpxk/7cRM/ex4YzCmcLnMNP0zKvrb3OUNtkwcVuJ4/uSfbinLQ8Gm5/zuwvHtOP7PQi/nid81Zq6Zb2F38c8Lh3sFXY7iiu0DdmjAdvrSDsTsYuujdJs3b8bWrVtt4LBly5bYvn07Nm7c6HwqIiIiItVJifcL9v3ZOPTADbjCW+Fl8DBtJgbNdVoCzuU4UWADh+1x4kaZMPUYh5cLWymKSGVWUFCAP/35ucLgIW9bvufuuwufiTj++eedMStIh07oblvu+QNUAycEC5x59BqBIU78rsOQEei1cDUy1r2PKXgOD4b6Yi/PZ6WNGyZvy7riLRJLYW93dlorMrH1In8HP/Muq1FkPo98Efp7HcbgteeWm89SMWXEazZ4aHlbCg6aCCxf6w/MuesxtQt6ebv5GXnWMwYOxSgz57XuVamSlt8r2LYNtf69v9u7HKXgbctuy0O3JWLtvjeaT05BEHHDSxg9rhumZmYi06Sp3dKx3vkoqEUr0XGCf9zFTwHjRjsBvrThMBOxw5nGX+yMT4vGIX0wh49HWmnjBtUO9054Cuef/xQWm/Hn3hukTaJnuTKnjsSk4f7AYLt75xbOJ3NqN4x7wYl4FVmmuRjTMx2/ccdbPAzT7e/yjsfvm+n+gcNLW55Q00vDeLvSXjBjMAg5HcMWzwW/Hno5nd9lf9NowO22y+H53H7vxO/2K+F3eQXdB0Jsp6DrQ0REREQkfCU/cIzPJgzWsq/HIPR3miRumjcTS/yd5eDctsyWjvZW5qfg3hVtp3/DFejbuj8G4cRwrzYjp+Bl3IURegCiSNR5X55S3luX+YzDnj1/VBg8ZL/7TMRLLrkEF/cON5RTVgMxwbZEG4oZNiAV4tbdSsbbsq94i8QwuK0VC1PwwGmR+YxsXOL3OnTq7nQ5GDxMZWtEZ1y2knQ+Krewlr9ity1flFKze//C25Z5OzO7a3S99NS8ibldKrphEoY7LfHSxjOgVoLzh+EqJ17W7qphOH9ROtZvmI3p5rx6X6gvnu/5rLRxw+RtMZf25r4iy4W0wRiJlchgZMvbAm/4JGBlhj/gVWSZMszYXAfOeD3ZutAJpHrHa98R5zudgYosz5NfhZ5eu3sx4amV5rOemD5sgg0eWiGX0/ldnLe3m59RsN+9xekv6Xd5BdsHQm2nMNdHIN627LY8dFsiep+JKCIiIiLVR+RvLGg9Ej/v9BTSnFuYH1zfqWwtEHnrsXsbdMcX0X5uOp60kcq+eNJ5KzM/S3uqE162H7TGyGdPDGfyvkSl75Mvo9NTaQoiikSR99mH3lQeA9LScPfoUUVemMLue+4ejd69eztDKsi68RhtW/Ax2JSB53o5Ld08LdrWvT8FC51uLzt81FAM7DAEIzAW7t25JQo1bhjz845TJoWtBTuh+8Iwl9erxO/Nwmh7Z/BMdB9724lnEnpaEob8XaWZNQMTOR33uRklLYdt8egECoNtW0SwrUrBF6UcePOxIs88ZDeHnZqXqKRhvG1hNhgf2ECTtwVb5eVtsTf3Jw2doQG2vIS0nmzl57SYW/xU6ICX05rQnaa/ZWL4ii1PCdNrl9rN6XIweBjuckYqrN9VsfsAX5TSrFmzwtuWeTszu5s0aaKXqIiIiIhUQ8UDiGx1OCXgmYfkGd73yRMvMpny5JP+4e7ngd8PNj0Oc77vTwEvPynyuacFZMD3nhzunXZfPGmGTdFbVEQklA6dgLGp/lth3dtvL3dvx/XfInvb6u4nWs4t9L+IhMNTp4xAxgS2e/M/Y3D5IP9wJvfFHMUFGTejhPm5OozBo6P8t+1GfMsyFfl+KvjMQu8ynHjBSEn8zzos/j2+lITRQ7YCNOPwWYepozGL8+x+Yn0F/V2heNaznXSRt0qHWo4AwbZth0i2VenyD+11uk4INuyk2PASxtgH4zGItBhPne+0YPO0VNswezoWOd1edvjIwUhrdxWGYRzcu25LFGrcMObnHadEcz/AJLbMa2W6PS30Qk6XLfAWhbn8XqGWp8TpzcUYe2fwVHQbN/rEMwnDWc7SeH83lbQctsWjEygMtg8ggm1aCr4oZdmyZUWeechuDtNLVERERESqn5gPP/zQ17ZtW6dXRKTy+uGHH3DhhRc6fX67du2yLZKlimIrQr5XpUjQsHJY2+ccNLnlJ4iJT3CGlMyXl4vdb7yJTp8tdYZEjhfHmjZt6vSVhC/KGI5JTt/5Ty22z/TjLbk9x/nDWOePHAms7IgJE4DRvA3WDjXYus19S7JtRXfis5F/eQorX4P/O3x0n/dtyoHjTs3EfRkh5uf57twxKeDdve4yFgqYnpkipjot7dzvUKjpWoHT4G8LHI/jhLM8FGx6c1PxglnXfK7geP/Cwd87HmYjlLyc3nm73fw82O8OHLfYcrjD+XxErqfg+0Cx7eRuU+f3B64Pr+nTp+Occ87BsWPHnCElS05OxtKlSzFs2DBnSOmYZ4e3j4uIiIhIZaIAoohUGQognoYqcQBx7ysvYt+/JsKXk+0MKVlMYhIajhyNRj+91xkSufADiKeBEgJZp7VK/LvfffdddO3atcgjJkrCF2OtWrUKV199tTOkdAogioiIiFRNNoDodIuIVHoKIMrpTAHEaqAS/+41a9bYfTA/P98ZUrK4uDib/3bu3NkZUjoFEEVERESqppjMzEwFEEWkylIAUU4n1SqAKNWSAogiIiIiVVPkb2EWERERERERERGRaiPqLRB5ZVlEJNpCtVhRC0Q5nagFopzu1AJRREREpGqqkACiKvMiEk0lBVWU58jphPu6iIiIiIhIZVMYQIxmy0FV5kUkmhRAFBERERERETl1igQQo3FLiSrzIhJt4QQQn3zmeWeIiIiIiIiIiESTAogiUumFG0B89IFhzlC/5q0vwvZNXzl90VER0yQta/VeVm0rLWt1X1ZtKy2rfr+WVcuq369lrRrLqm1VfZdVAUQRqfTKGkAUERERERERkfKLdf6KiIiIiIiIiIiIFKMAooiIiIiIiIiIiISkAKKIiIiIiIiIiIiEpACiiIiIiIiIiIiIhKQAooiIiIiIiIiIiISkAKKIiIiIiIiIiIiEFJOZmeljx65du9C0aVM7sDw4nY4dOzp9Jfvuu++cLpGq6dxzz3W6ivr000+dLgmlX79+Tlfp0tPTQ+ZPbp7z5DPP49EHhjlDRURERERERCRawgwgbsBLaT2R/ptMjE/zd49bBJz/1GLMvbedM45fpAHEUAEYkcqupP2XAcQ6deo4fRLo8OHDCiCKiIiIiIiIVBFhBhDnYkzKBxicOR5pc8cg5YPBMJ0nhjljUVkCiAcPHnSGiFQN9erVUwCxHBRAFBEREREREak6In4G4twPJuH8ju1NV3t0PH8lMjb4h4uIiIiIiIiIiMjpJ8wAYhrGTwWGp6Rg+KSR+A1vW577AsZhGK4qegeziIiIiIiIiIiInEbCb4GYNh6ZmZkmObcss3/uvVD8UERERERERERE5PQVZgCRz0AcY/7vxZepBA6rAvYtwCuvLMA+p1fktHJoNebMWY1DTq+IiIiIiIiISHlF/AzEoqL4DEQG9p55Bs846ZUFlSDEl/5u4fLY9G6680EVo6Dp6Wnb15g2bdqJ9PU25wMRERERERERkegpJYDIVoYpSEkZjknmH5+BmFKYemJct9+Aj0Msv3S8+/JqdLnrITz0ENO1aLz31Ia79i14Bc+8A1xrl8efrsUas6Qip96h1XMwbSHQ6/rrcb2TemErFEIUERERERERkWiLyczM9LFj165daNq0qR1YHpxOx44dnb6Sfffddzj33HNx8OAivPvMGnR+6GoU+yZbz738GfbYnsboc9ed6N3QH+B7+TP/0MLhMOPOALo0/gyfreqKa+300s2038EqZ8yul/XBnuXuOM6wax/C1UVmvA8LOKGh/nkVU2SZnPlw2Iy9ZklWYZX5oOu1d6HR5y+Di2in37Do5/ab7nxDTi/EcgZbJ0V+u/3AGZ+/xb8c1LjPXRiKGSfWXeM+uOvO3gj2MyW0evXqFe6/wXz66aeoU6eO0xdth7B6zlfARQPQpa4zyMVbmO1HXVDX3s680rmduS66DfCPz+DjnJXuTc7OcPi/16reSqzc0gq9rr8QLZwxKsLhw4fRr18/p6906enpIfMnN8958pnn8egDw5yhIiIiIiIiIhItcQ899NDj7Dh69Chq165tBxbHloht8eYZD+Gq9s6guWOQcvcGjLjtfNR3BhGn07BheOGoHTt2oHnz5sjOro2Y/dPxzvQv8MX+Jrikk/v9dLz7wmac+9CduOaSS3BJlyzMmbEFrXu2QsNWPXEJhzE12Yo3v4/BJWcew/eff4aYSx/Cndd0QkMbCHwTx65iv3/cTjW2eMbhd/dj+uf70MVMM9mZK/YtwZzPY9BlAKcRiMs0G7Wu9X+/S+wXZt61nXlvQuuf3Ieb2phpvrP4RDen3xlY434+wJnvO2vR5JIYfBlyesGW8zg+CrZO7PSDjd8JnVrHYu2W1vjJfTfh4uQleGt6DK5yvt9k6/c43inY75SS1KhRo3D/DWbjxo1ISkpy+qLs0AZ8vyoGrX7UEoHxQ2TvxfqtQMv2OVjy3h50uH4ALuraFV1b5uD7r/aicfvGqNu4PbpyGFO9vZi/IQZdG2dj/aqViOl2PQZcFGS6UZaTk4M2bdo4faXbt29fyPzJzXM+++Jr9O3dxRkqIiIiIiIiItES5jMQ1yN90UgMtq9fdqTdh6cwHbOj9AzEjlc7twp3XnPieYP79mIPVuEd9xmEbHW3Z6//WX5shecOf2cV4A5v3AcXu60J963Fanj6Xd5xGjZCY6eziMaNggfVuEye7zfs1AWNVzm3NjfuAhv75DS93fyM3GHUsTO6ml+3N6Ok6QVZzpLWSTi/yw7n99+18+h4dZBWn1L51a2LEts3HjqEg9iChe7zEdkS0Qw7bD9bjTnu8IVbgIOH/K0U63ZDl4psdigiIiIiIiIiVVKYAcT26Hj+JHzgfeXyhtmYvqgbUqPyDESPjlfbZyB29QTR7vI8h/Ah9/Ze7zMT7+oTPFhWVgyy7VmNtZX1rSPB1onzUek64mr7nc5YY4OQ/kCiVCF166LeoS3YVtqrlut2wwDPMxKv523J9rbmLWg1wBk2oFuFtzYUERERERERkaotzABiO9w7dyow3PMSlZ7TMWzxeHgbJZYZA4LeNxzbVn6N0NAG8j7Dl8EiXJ7WfPvWrnaeBxigYSd0QYjvl6gjLu4DfPZy0eBa+rumP2CZ7Ly7do68FV/6Gqzib0iNcHolrZOSeFpuvmvfcM1A4l3o03gPTvH7aiRiLdClG7ByztdFXpqy7WtPvw0yrsTqYG9VqdsKLZyo4aFtW5xnJJ6emre+yOmKnoqYJmlZq/eyaltpWav7smpbaVn1+7WsWlb9/oqgZdXvrwjVdVkryUtUNhR50Qdw4mUpRV8YYrD13Z29se/dZ8A7l+2grl2BPY0wdCgww777xPNSkIDvuy9RKRyHnwd+x1H0RS1G12vxEN9iUmSaRV96YqcTrJvL5v0d7vfYWdr03HG80wxcJ4G/PeD76c76atznMjT+7BM4q87034U7g74pRkpyal+i4lf0ZShGq164vsuhEC9RMdgi0Qw//PU08M5lO6hVK+BgXVxk8pSv3O/5P6pQeomKiIiIiIiISNURfgBxw0tI6zkOi3A+nlo8F/euH4OUP3TE4rn3wnsXc9kCiAedIaexwICgVGmVIYBYlSmAKCIiIiIiIlJ1hHkL8wa8NJq3LGdi6khnUJRfoiIiIiIiIiIiIiKVTwRvYa6AF6ZUJw174061PhQRERERERERkSom7FuY545JwQeDMzH4gzRk3BfdW5hFqiLdwlx2uoVZREREREREpOqI4CUqG/BSWk+MW+T0YiSmZhZ/C3OkAUSRqkwBxLJRAFFERERERESk6jilb2EWOV0xgCglUwBRREREREREpGooJYA4F2NSPsDgzMH4IGU4JjlDixk5FZnj/W0RFUAUkWhTAFFERERERETk1CnlJSppGF94mzJvWc5EZrE0FSMnfYC5dhwRERERERERERE5nYT5FmZvIDFQSZ+JiIiIiIiIiIhIVRZmAJF4O3MKUgpTGl7a4HwkIiIiIiIiIiIip6UwA4h8A/NwYKrn1uXFwzC95xjduiwiIiIiIiIiInIaCzOAuB7pi0ZisPc+5XZXYdj5K5GhVogiIiIiIiIiIiKnrVLewuxiC8SeSP9NJpyXLZtBLyGtZzp+E/D8w0jewvzOO+84XSJSHV177bVOV8n0FmYRERERERGRUyfMACLxGYjDMcnp87+VufjLUyINIJ533nlOn4hUJ99++60CiCIiIiIiIiJVQAQvUeHblj3PQNSbl0VERERERERERE57YQYQ2fpQL0wRERERERERERGpbsIMIKbhvqdW4gNFEEVERERERERERKqVsFsgvjBuESYNT0FKijepVaKIiIiIiIiIiMjpLOwWiEWff6jnIIqIiIiIiIiIiFQHpQcQN7yEtMra4nDjKxg27BVsdHqD8o4TzvgiIiIiIiIiIiJSqJQA4ga8NHocuk11WhxOBYaPqUQhxDZ3Yvr0O9HG6S1VpOOLSNiWLVvmdBVX0mcVqXnri5yu6KmIaZKWtXovq7aVlrW6L6u2lZZVv1/LqmXV768IWlb9/opQXZc1JjMz08eOXbt2oWnTpnbgCXz78gcYXHircmB/cZxOx44dnb6SvfPOOzjvvPOcPoMtBMeuQ2dMxuTF/kE3T9qEp/vzo2Ho+4QzED3x2PzpuBMcH3juOWCs+Tuk8xN4YrJ/DP/3NuKVYX3hfq3nL34BLGhQwvimg8vQ9wm4c0LPxzB/+p0wEzoxf2eYApEifkeOHMH/+3//D2lpaRgwYIAz1G/OnDmYO3cufvvb36J27drOUODbb7/Ftdde6/SVLD09PUj+5OfmOU8+8zwefWCYM1REREREREREoiXMZyCeRIvXoMNzm7Bpk0mTbsbkkQ9jnhnc5s7p/mF2eGc8MYFDPRY/gXUDPN97gbcqt8Gdzz2Gngz4meHThzdwRjaCjj8PD/d9Ap0nOcPnm+9y3I2vYOwTnTGJw0ya1HkdfrATERFiYJABQgYKGTB0hQoeioiIiIiIiEjVEUYAcRKGFz4Dcbjp8/ZXwDMRew7B5W7Tvv4DcDPWYAMfWsiWga1bozXTyMnAmg1Fn2XY8zGMZgtCatvBH/grSbDxN27AGu9wV5t2tlXkyNb+YGb/p59G4Cgi1V1gEFHBQxEREREREZHTQykBxFBvX3bTSXoL81beVvw+hswPaBkYbT+sO3HrchH98bRtfTgAc2wQ0x9IFJGivEFEBQ9FRERERERETg+V7xZmr3lzMJktEluabk/LxI0fvx8i0BfC4jBvOWaLx8Xv4+PA1zRvfAUPv8KBDCTOx2M9nVaRIlKMG0RU8FBERERERETk9FAJn4H4BPoW3qoMTOLLStrcifs6nxg+dl3n8Fsg8rs38/bj1hg2db8zMJT+eJrPV+zrzN99mUqbdjAD/cNa98X7Q57DnXqDikhIDBwqeCgiIiIiIiJyeijlLcyRK/9bmIHnKssbjuc9jNZzBmCTfT2ziEST3sIsIiIiIiIiUjVU7luYT4F5DzutD5nYAlLBQxERERERERERqcYqVwCxzZ2YfopbH/Z/2nlRi01627KIiIiIiIiIiFRvaoEoIiIiIiIiIiIiIZ3yZyCKSPWlZyCKiIiIiIiIVH6nNIAoIhIOBRBFRERERERETh3dwiwiIiIiIiIiIiIhKYAoIiIiIiIiIiIiIRUJIPJWwPImEREREREREREROX0UCSDyGWPlTSIiIiIiIiIiInL6OKUvUeFLD0Sk+nr0ofudrpLpJSoiIiIiIiIip84pDyCGG0AQkdNLJMe/AogiIiIiIiIip45eoiIiIiIiIiIiIiIhKYAoIiIiIiIiIiIiISmAKFJJ7Ny50yaJnuatL3K6oqcipkla1uq9rNpWWtbqvqzaVlpW/X4tq5ZVv78iaFn1+ytCdV1WPQPxNOHz+RATE+P0SVWxY8cOTJ8+HVOnTsWXX36JzZs3o1mzZs6npzc9A1FERERERESkalALxNNAfn4+br/9djzyyCPOEKnM2MrwpZdeQv/+/dG8eXP8/Oc/x6effoqLL7642gQPRURERERERKTqUACxisvNzcWNN96I119/Hf/3f/+Hp59+2vlEKhNv0LBly5aFQUOv4cOHO10iIiIiIiIiIpWHAohVWFZWFoYNG4Zp06Y5Q4Bt27Y5XXKqhQoassVooNjYWFx77bVOn4iIiIiIiIhI5aEAYhV19OhRDB48GB988IEzBPjNb36Dv/71r06fnAqRBA29+vbtq9uXRURERERERKRSUgCxCjp48CCuvPJKfPLJJ7afL095/PHH8fvf/972y8kVTtAwLi4OP/rRj0K+6Ob66693ukREREREREREKhcFEKuYffv24fLLL7dv7CUGpJ599ln89re/tf1ycoQbNOTnL774IpYuXWq3Fd+WHYjjXXfddU6fiIiIiIiIiEjlEmYAcS7GpIwx//fagJfSAodJRWLQql+/fvjuu+9sP5+bx+DUAw88YPulYkUaNOTzKNlKlM82vOGGG7B48WI7DgOJXbt2td3Up08fNG3a1OkTEREREREREalcytkCcSUyNjidUqG2bNlin5O3YsUK2x8fH49XX30V99xzj+2XipeWlhZ20PDee++1QcHNmzfbAOHKlSsLx3355ZfRpEkT20+6fVlEREREREREKrNSAohsZZiClJThmGT+DU9ht5t6Yly33+Deds6oUmHWr19vg1Dp6em2PzExEZMnT8btt99u++Xk8N5mXFLQ0LVu3Tq73TIyMmw/g76vv/66ffnN559/bofp9mURERERERERqexKCSC2w71zM5GZGSKNT3PGk4qyevVq2/Jw48aNtr9GjRp4++23MXz4cNsvJ8+IESNKDRq6Vq1aZbfbpk2bbH9SUhKmTp2Km266Ce+8805hC0bdviwiIiIiIiIilV34tzDPHeNpfegmPQOxIi1ZssQ+85DBKqpVqxbee+89DBkyxPbLycXnFpYUNHR9//33drtt377d9icnJ2PGjBkYOnSo7Wcg0aXbl0VERERERESksgv/JSrDV+KpxYGtEMdDbRArxtdff43LLrsMu3fvtv316tXD7NmzccUVV9h+qZy++uor+5bsPXv22P46depg5syZuOqqq2w/X8Si25dFREREREREpCqJ4CUq3ZCq5x2eFJ999pl9YceBAwdsf8OGDfHRRx/hkksusf1SOfHlKgMGDCjcbvXr18fcuXPtrcwu3b4sIiIiIiIiIlVNmAHENNz31Ep8oPuVK9yHH36IgQMH4vDhw7afAaZ58+bhvPPOs/1SObF16KBBgwq3W+PGje3tzhdeeKHtd+n2ZRERERERERGpasK+hfmFcYswabj3+YdMegZiNPE5eddccw2OHTtm+1u2bGlbI3bv3t32S+U0ffp0+3zD48eP2/7mzZvb1og9evSw/S7dviwiIiIiIiIiVVHYLRDHF3n2oZ6BGG1vvfWWfctvdna27W/Xrp0NHnbs2NH2S+U0efLkItutTZs2drvxhSuBdPuyiIiIiIiIiFRF4T8DccNLSLOtDtPw0gbTz7cyp70Edkr5vPrqq7j11luRm5tr+zt37myDUG3btrX9Ujn94x//sNstLy/P9qemptrt1r59e9sfSLcvi4iIiIiIiEhVFGYAcQNeGj0dwxZnYupIZ1DafXgK0zFbEcRy+ctf/oK77rqrsGXaOeecg/nz56NFixa2XyqnF154AaNGjUJBQYHt79atmw0etmrVyvYH0u3LIiIiIiIiIlJVhRlAXI/0RXoLc7T9/ve/x/33318YhLrgggvsizeaNGli+6Vyevrpp+128/l8tr9nz5426NusWTPbH4xuXxYRERERERGRqirsZyAOHjmp6FuY576AcRiGqxRULJNHH30UDz/8cGEQ6tJLL8XcuXPRoEED2y+V0yOPPIJx48Y5fUDv3r1t0Ldhw4bOkOB0+7KIiIiIiIiIVFVhPwMxbfxidPxDCoZPWoRxPVOQMhyYOvdeKH4YuQceeAC/+93vCoOHaWlpmD17NurWrWv7pfLhtho7diz+7//+zxkCXHbZZZgzZw7q1avnDAlOty+fOs1bX+R0RU9FTJO0rNV7WbWttKzVfVm1rbSs+v1aVi2rfn9F0LLq91eE6rqsMZmZmTaKtWvXrqjcVsnphPvm4CefeR6PPnS/03f6463K9957LyZMmOAMAa6++mpMmTIFSUlJzhCpbLjd7rnnHkycONEZAgwaNAhvv/02atSo4QwJ7aWXXsLPf/5z292/f3/bYlEiO/7T09ND5k9unmOn98AwZ6iIiIiIiIiIREuYLRDnYkzKGPN/rw14KS1wmITC59+NHDmySPDwhhtuwLRp0xQ8rMT4huXbb7+9SPCQLQinT58eVvCQdPuyiIiIiIiIiFRlYd/CHNxKZOgtzKXKzc3FjTfeiNdff90ZAhtMfPPNN5GQkOAMkcomJyfHBnnfeOMNZwhwyy234D//+Q8SExOdIaV78cUX8fjjj6N79+66fVlEREREREREqpxSAohsZZiClJThmGT+DU9ht5t6Yly33+BePQSxRFlZWRg2bJhtaeji7ayvvvqqfR6eVE7cbkOHDrVvT3aNGjUK//rXvyLebl27dsVvf/tbLFu2TG9fFhEREREREZEqp5QAYjvcOzcTmZkh0vg0ZzwJ5ujRoxg8eDA++OADZwjw4IMP4q9//StiYmKcIVLZHDlyxD7jcNasWc4Q2Beo/P3vf0dsbDkb7YqIiIiIiIiIVDHhR0PmjvG0PnSTnoEYysGDB3HllVcWvjCDAUPexvqHP/zB9kvlxO02YMAAzJs3zxkCPPLII/jzn/+soK+IiIiIiIiIVEthBhDnYszwlXhqcWArxPFQG8Ti9u3bhyuuuAJffvml7Wfg6dlnn7W3sUrltXfvXlx22WVYuHChMwR4+umn8eSTTzp9IiIiIiIiIiLVTwT3Y3ZDqp53WKqdO3eiX79++Pbbb20/b3nlSzQeeOAB2y+Vk7vdFi9ebPsZ9H3++efx0EMP2X4RERERERERkeoqzABiGu57aiU+0P3KJdqyZQv69u2LFStW2P74+Hj7spR77rnH9kvltHnzZvTp0wcrV660/XxJyssvv4z77rvP9ouIiIiIiIiIVGdh38L8wrhFmDRcz0AMZf369TYIlZ6ebvsTExMxefJk3H777bZfKqd169bZ7ZaRkWH7GfR9/fXXceedd9p+EREREREREZHqLuwWiOOLPPtQz0D0Wr16tW15uHHjRttfo0YNvP322xg+fLjtl8pp1apVdrtt2rTJ9iclJWHq1Km46aabbL+IiIiIiIiIiET0DMS5GFOk9WEaXtrgfFSNLVmyxD47b9u2bba/Vq1aeO+99zBkyBDbL5XT999/b7fb9u3bbX9ycjJmzJiBoUOH2n4REREREREREfELM4C4AS+lDQemelofLh6G6T2r9y3MX3/9tX1r7+7du21/vXr1MHv2bPsGZqm8vvrqK1x++eXYs2eP7a9Tpw5mzpyJq666yvaLiIiIiIiIiMgJYQYQ1yN90UgM9t6v3O4qDDt/JTKqaSvEzz77DGlpaThw4IDtb9iwIT766CNccskltl8qp08//RQDBgwo3G7169fH3Llz7a3MIiIiIiIiIiJSXJgBxPboeP6kom9h3jAb0xd1Q2o7p78a+fDDDzFw4EAcPnzY9jdt2hTz5s3DeeedZ/ulcmLr0EGDBhVut8aNG+OTTz7BhRdeaPtFRERERERERKS4MAOI7XDv3KmA9y3MPdPxm2r4EpX//ve/uOaaa3Ds2DHb37JlS8yfPx/du3e3/VI5TZ8+3T7f8Pjx47a/efPmtjVijx49bL+IiIiIiIiIiAQXwUtUAt/EXP2Ch2+99ZZ9s3J2drbtb9eunb2VuVOnTrZfKqfJkydjxIgRhdutTZs2drt17drV9ouIiIiIiIiISGilBhA3vJSGlLSXEPiow7ljUpAypvq8QuXVV1/FrbfeitzcXNvfuXNnG4Rq27at7ZfK6R//+Ifdbnl5ebY/NTXVbrf27dvbfhERERERERERKVkpAcQNmD0deGrCvQh81GHa+KkYOemDavEW5r/85S+46667kJ+fb/vPOecce9tyixYtbL9UTi+88AJGjRqFgoIC29+tWzcbPGzVqpXtFxERERERERGR0pUSQOTbl0O9KIUvVjn938L8+9//Hvfff39hEOqCCy6wL95o0qSJ7ZfK6emnn7bbzefz2f6ePXvaoG+zZs1sv4iIiIiIiIiIhKeUAGJJQcKSgounh0cffRQPP/xwYRDq0ksvxdy5c9GgQQPbL5XTI488gnHjxjl9QO/evW3Qt2HDhs4QqS6at77I6YqeipgmaVmr97JqW2lZq/uyaltpWfX7taxaVv3+iqBl1e+vCNV1WWMyMzNtdGzXrl1o2rSpHVjE3DFIGQ5MLfLSlLkYYwaufGox5t5bNILI6XTs2NHpK9mTzzyPRx+63+mrXB544AH8+c9/dvqAtLQ0zJgxA8nJyc4QqWwY6P3Vr36F8ePHO0OAyy67DO+++y5q1arlDJHKIpLjPz09PXj+ZLh5jp3eA8OcoSIiIiIiIiISLaW/hTltPDIXd8QfUlKQUphsRLFY8PB0wFuV77777iLBw6uvvhrvvfeegoeVmLvdvMHDQYMG4YMPPlDwUERERERERESkHEoPIFK7ezE3MxOZnjT+RHPE0wZfkjJy5EhMmDDBGQLccMMNmDZtGpKSkpwhUtnwDcu33347Jk6c6AwBrrvuOkyfPh01atRwhoiIiIiIiIiISFmEF0CsBnJzc3HjjTfi9ddfd4bABhPffPNNJCQkOEOkssnJybFB3jfeeMMZAtxyyy34z3/+g8TERGeIiIiIiIiIiIiUlQKIRlZWFoYNG2ZbGrruvfdevPrqq4iLi3OGSGXD7TZ06FC88847zhBg1KhR+Ne//qXtJiIiIiIiIiISJdU+gHj06FEMGTLEPivP9eCDD+LFF19ETEyMM0QqmyNHjthnHM6aNcsZAowdOxZ///vfERuruLiIiIiIiIiISLRU60jLwYMHceWVV+Ljjz+2/QwYPv744/jDH/5g+6Vy4nYbMGAA5s2b5wwBHnnkEfviGwV9RURERERERESiq9oGEPft24crrrgCX375pe1n4ImBw9/+9re2XyqnvXv34rLLLsPChQudIcDTTz+NJ5980ukTEREREREREZFoqpYBxJ07d6Jfv3749ttvbT9veeUty7/+9a9tv1RO7nZbvHix7WfQ9/nnn8dDDz1k+0VEREREREREJPqqXQBxy5Yt6Nu3L1asWGH74+Pj7ctS7rnnHtsvldPmzZvRp08frFy50vbzJSkvv/wy7rvvPtsvIiIiIiIiIiIVo1oFENevX2+DUOnp6bY/MTERkydPxu233277pXJat26d3W4ZGRm2n0Hf119/HXfeeaftFxERERERERGRilNtAoirV6+2LQ83btxo+2vUqIG3334bw4cPt/1SOa1atcput02bNtn+pKQkTJ06FTfddJPtFxERERERERGRihW7a9cuMJHbXZ5UGS1btsw+O2/btm22v1atWnjvvfcwZMgQ2y+V09KlS+122759u+1PTk7GjBkzMHToUNsvIiIiIiIiIiIVz7ZA7NixY1RTZdOwYUPUrl3bdterVw+zZ8+2b2CWys273erUqYOZM2fiqquusv0iIiIiIiIiInJyVItbmFu0aIGPPvoI55xzjv17ySWXOJ9IZdayZUt8/PHHOOusszB37lx7K7OIiIiIiIiIiJxcMWvXrvWdqlaDTz7zPB596H6nr+L5fD7ExMQ4fVJVFBQUIDa22r0w/LQXyfHPFx81bdrU6SuKj05gHman98AwZ6hUdUeP5eDQ4WynT4KJj49F44a1nD6pTA5kHkdWdp7TJ8Ek10xAvbo1nD4RERERqeyqVQBRRCoPBRAllONZufhm8VanT0rS9sz6OLNlitMnlcGefUexau1up09KcnbXZqifUtPpExEREZHKTAFEETklFECUUPbuP4qVa/wBGLVQCu7goSz7t2GDZJzVOfixIafG+o37sHX7Idut/Tc4d/9t06o+WrdSAFxERESkKlAAUUROCQUQJRQ3gFgrORHn9WjhDBWvrdsPYv3G/SEDiDNnb0Vurs/pA5o1rYnateOdPimL7Ox8bNl6zOnzuzLtDNSoUXS9ugHEM5rWQcf2jZyh4sUWmmypqQCiiIiISNWhAKKInBIKIEooCiCWrrQAYmzSP+E7ET+UCrL0u6E4u3t9p89PAcTSKYAoIiIiUvXozRQiIiIiIiIiIiISkgKIInLaat76IqcreipimqRlrd7LWlG/X6oOHQPV+/eTllW/vyJoWav3smpbaVn1+7Ws0ZyubmEWkVNCtzBLKLqFuXS6hbly0C3MZaNbmEVERESqHgUQReSUUABRQlEAsXSlBRBTGr+BgwdznT7ghecuxDVXt3b6pCxWrcrEwB/Pcfr8tm26Ac3PSHb6/BRALJ0CiCIiIiJVjwKIInJKKIAooSiAWLrSAogNmr6JAwdynD7gzdf64uYb2zl9UhZLlu7Hj87/r9Pnt2PzjWjWrKbT56cAYukUQBQRERGpevQMxLJYNx69e4/HOqfXCjZMKoF1GN87BjHaNiIiIiIiIiIiZaIAYrR0GIMFC8agg9MrlcS69zEFo8y/KXhfEUQRERERERERkYiFEUD0t+AaPetEd0xMDHqPVzSmCLcFovN3/Gj/emLyrztnHGdYTExvaBVWvHXvTwFGPIih3RdiihtBLLKNRmNWYL87TuG28gxzWzLaz53h9rhwu0VERERERERETi9hBBAzsHrhKAwdaDpnPYux3WfC55uJ7mOfVcAklIVjsXqoz6wnk2aOwsQnGXSahdGpq/EohzFljMCU23RbbcVaBxs/HNIBA4eOwsIp759Y34XbaAK4axft57Yai+4z/dsq47nlGMQocIdO6L5wtTkizJTNhLuPAmbYg8AcI+iCVHaKiIiIiIiIiJxmIrqFedaMiejVhWGSVHTptRxrFf0KrtdzeNBGpYzULujFv+vWYjkmYpDbqi11LBY6wSipIPb25REYwvvKBw7FqIWe25i924i8/dxWnv4OQ0ag18QZmIWBGDrKv99nrO6OoQ92wXJGEDl+9066fV2kStuI8X1aIyYxWHpYF8xERERERKRaCyOAOBATZsIGvgZNHIVHx3Twt0R0AzMSvl7PIcNtgWiT0/pNKgRbCS5cOBapNmg7CBPhuY25jFK7AKszZmHG8i5I7TAEI5bPwKyM1ehum+iKyMmw7oVhQYJ8wdKwUh8VMeted9y+GPuVM7CYyRhkx1EgUaqGaB4joc3DaHc6985zhomIiIjI6Sq8FogDJxQNeLFfLwyJjL39dSyeVe3zJOHtywsxyrkN2aaZAbcxhxKwrWwgctRQu++zNSKefBLLRwwx+38HsHfGDMA2zBWRSmYxxnYtb5DEi4FEBRHldFKOY2T2HEx0OkVERETk9BdGAHEWRhe+LMKll0bwmXn+lm2el2yUaCAmZDyH5YPc75jkvpBDos/evhxwm7J7G/Mmpz+kotsqdWx3zJzgTKhDJ7Pt/c9VdHsnLu+i1rgilZo/SNL7hY1Ofwg/mwRfzqaANAmjnI/9JmNQNFtbFRSY/OoHYMG3wHfLgP2ZzgdSbRw5CixZ6d8HVqUDObnOBydTmMeIw7ZwvHqy0yciIiIi1UFEz0Asqho/A7HDGCwovA2ZaQIGchhbZbp/nVHtuG5/4PfUirPiBG4HayAm+BZgzOUlbCNXkW3lvdXcmYY7slrjipxaFz2GjGJBP6b5eO4iZxzHwl+PDdrKatS7znde6u8M8eqPCYHT+sec8l9AS98A/OJ/gdbnA137Af2uA3r9GDijh7/776+dokCSnBTm3IK3PwB+fDvQ9GzggkH+7d4jDWhu9oHb7gO+WuyMXE5ROEaK3K5sUuqvo7RsIiIiIlJllBBAZCtDtsDis+M8L/+wKRVjuz96IogiIiJSqbTBmM82wbfqMf+LrKzFGPvTV4q0/B740iZMuMrpCclM61XvdCZjxmynM1K5ecBvfgeccwUw8Q1g115zJjan4kYNgDq1/IEltkS771Gg+2XAZyEfzChVFYPHlwwFbroX+PBT/z6RXBNo3BBIiAcOHQH+/V+gzzDg5p8DmYecL0ZbeMeIiIiIiAiVEEDsgDELPK3lApN7S6eIiEhl1eFOvPbHnk6P8dX7J97GHokO7dDd6Syzw0eBwbcA41/2999xA/DJVOBQOrD9e2DfKmDTImDis0C3TsAPm4GrfgK8ZsaR08P8r4CLrwYWLQGaNwP+8Aiw5jPgwGpg22L/vvDNTODXdwO1koFp7wOXXANs3uZMoAJE6xgRERERkdNaeLcwzxrtaX3opmr+DEQREakSOgwaUqSF1epTERzJzwdu+yXw6UKgdUtg4XvAhD8Al1wAJCY4IxlnNAFGjgC+NWfYR+4H8vKAUb8B5n7mjCBVFlseXv8z4OBh4CfXAivnAWPuAtq1hilU+ceJiwN6dAOeehhY/jFwwY/83xv6U38AuoKUfozwVn7v7c+bkOENOoqIiIjIaS+MAOIsjB60HM9lBLZC9D4XTkREREKa8AbwwcdAs8bAvKn+IFFJGEh67FfA7/7H/6KVkWP8t7ZK1cRtyOcaMnh46/XAq3/2tzAsScvmwOw3gXO6AivWAI8843wgIiIiInLyhdcCEd3RSc87FBGR6mr2HEx0OoGe6BLJOZEtx3433t/94lP+wFC4HrzH30pxzz7gz393Bp5+Fn61GAsWnsYv5vjPu8Di5f5t/8KTJ1oclqZ2LeD1v/gDyi9PBtaH95ZkEREREZFoCyOAOBAPPrccM3S/soiIVEXr1mGh0xlx8M8x693JTpdx0RAMiWQaMz8C9u4HzuoMDElzBoaJgaZx9/m7J031t2Q7DTF4uPDr0ziA6D7HcszPSm95GKiz2dmuHeS/nX3ydGdglEXhGBERERGR01tYtzA/O3YhJg7SMxBFRKTqKVfwj9a9gif/4XQbo8bdiYgm8d5H/r9DryzW8mzuR9uRNvDDktMfjyIt7g6kbR+AtEun22E33/IFHnhgKe4a9U3x8U06ciTPmYPfylWZTpeU1datx5yuE264+dNi637a2/5Wgu/P3GL7r0n7L/I/WWCH/WR6crHxA9Mr/8yw4xbBfYf++6H/b5SV+xgRERERkdNeWC0QJxR59qGegSgiIlXDuheGYZAn+Nfr+ssjC/5hI8b/9IkTrbMuegwPXuV0h4vPryO+WTnAjp3H8NHH20tOn+zAR/mt8RHa4aNFh+ywz7/Yje++O4CvvtpbfHyTcnOLtlQ8eDDH6ao8eNvyn577h00LTPfChSf6mfh5ZXL0WK7TdcJnX+wstu43bfa/7GTbNv+23TF/OeJ8BTiEJLz15fFi4wemdesP2e8XwdartCoj6q1Qy3+MiIiIiEh1EN4zENeNR2/b6rA3xvPNfHwrc+/xOBUvshQRCVfz1hc5XdFTEdMkLWu0pzkPoxNbI/XXniDURY/htfvaOD3hmXVvX4z9yulBTzz36p3oE+myHnVarvF5dqeBaG0rn8/8jw0ynUaZDCIW9ptkPy+nijoGIlEL/sDjESTC5/7YSNVx9h3expxTPJBZosXO8zeLKfsxUjXyAD8ta/VeVm0rLWt1X1ZtKy2rfr+WNZrTDSOAuA7jb5uCERk+zBzlDBr4IJ7DFLyvCKKIVGLbNxVGfqKmIqZJWtYyTvOrJ5Ca2BoxxdJIz0tP6GbM/CyyW48DW2aNenc6xpgJRLys9ev5/x446P9bxUVr+/fu9f/buxc4rap6f/zf8YL3xNQoOgXpDHhD06MFVF7qoIKXpJRSEymNOWrpoHYSO5hJqUct0DoaZGXejqKlKYFpauo/sDTUvBAMGpY/DU1F836b/6w9+2EuzJ4LzNDMPO/377V/rLWfZ/as/eyZOfXpu9baJU6qOTo7Rg6vb09qaK84V//66uqu34HOWB7rZ//2j9fq/0PXKqaiz+U/O+uvF7Fev4Z2R73xYpf/jvSovwHtMNbyHqtnZazlPlbPyljdv7F25XU7ECDWxsL5dmEGoJc6+pKoe+Oszi27cdPkZpVZI867I2Z0dupyyc47NPybduFtYbtt+8eJNTu0fXxlmzhx7T/EiTE/Thz/b9m5Lx9dFePGfSDGj//Qyu+vP9Zff+38OzQYOLCTG3ewkndvtl7ealT95fpn0+Kz//d/3yJ7bcdhm2X9vb+yR7yxznqxYbwZZ41vONfW8fGRA7Kvb6b0s7PLsGi5jmaXWJXfEQAAykrFokWL6oYMGZJ3Wze3uiKuP6guDrp+ZCz62ryoqa2OiqnbRu28mtVaJ2fq2efHlFNOyHtAOenM7//ixYtjwIBW/kt1vWXLlkX6G5Zd76Sx+Vl6s38893I8/OenY6MN+8WuH35/frZRqgxsNu2ySApFLtwr73TCkh/HyO2arHu4qtcpmXNbxEFfjPjAwIhFd0Wss07+QgfNuiHiC19t2I33T7dmp5548oV4dOlzsfm7N4wdtln5d+PdA66I559vXPfwikv3iMM+v1Xe63nSmodpdm+qPOyp7n/gudh5t1/mvQZP/fXz8d73bpD3Gjy69Nn65/NivG/AJjFk64YwMcZVR1x/U8Sp9c/x9JMbznXG6MMjbv3/Is7574iaL+cni3X770i9Zt+jk9d5ZNHT8cyzL8fgD2wWgz7QPz8LAEBP1qE1EEfPqI1tp1bEmJnzY1JVRVSMqf/vQ6sZHgLAaht+WtS+8XjUtXb0hPAw+Y9PRGw9OOJvT0b8qMlutx3x+hsRZ0xraP/n+IZ/+6A0XXnER1d/ynKPVX1Ew78/+GnE359paHfUb+t/GlN4mNZBPOwz+clO6OrfEQAAylLHNlGJyqiZZwdmAPqw7ggPk37rRvzPqQ3tU74T8fv7GtrtSbvtHlf/dYsfixi6dcSXD89f6HtGDN+lS9Y87LE+9fGIA/aOePGliMOPi3jl1fyFdvz1/0VMqGlon/LViPds3tAGAIA1rGMBYtp1OduFuelRHXPzlwGgV+uu8LDkwH0app6++lrDdNSrftn2NsP/eC7i88dEXHpNxLs2jrhmZsS6nZz6TM8y85yIrQZF3PX7iL0PTXOd8xcK3HF3xO6fiXjy7xFjPhlxYmknOwAAWPM6ECDOjeoxD8a02qYViKoQAegjujs8LDlrcsQx4yNeejli/PERIw+MuOjSiPsfjnhqWcTjT0TcfEfEpG9GbPOJhjXztnh3xA0/a1j/kN5t880i5lwWMWSriD/cF7HjpyK+dGL98/11Q5j41NMRjyyOuPznEfvX/5yM+lxDeLjvnhGX/SBi7eYb4wAAwJrUwSnMdmEGoA+6aXJUNAkP027L3bYuXAqAzp8acfF5DVNR//iniBOmRHxkTMSgj0RUfawhOPrfSxqmuqbgaN4NESN3zS9Ar5cqEP+/X0YcOS7irbcbwsKDJ0Zsu0f9z8BuER8e1RAqpiB5ow0bNly57icN6x8CAMC/UAcCxNHxtWkPxvXmKwPQl6TKwwMbNzVJ4eG84wfnvW40/pCIhXc1hIl7jYzYsMkuvv82MGLiFyJuu6ah8nDwB/IX6DP6vyviR+dGLPh1xEnVDRWJa+X/cSytl7nrThHf/nrEI3c07Nqs8hAAgB6gQ1OYz500P2aOsQYiAH3X/JP3iIp+gzp8jLygnTXs2pIqytJ05l//X8TzCyOeeyTin7URj82P+MF3Ij7+kfyN9FnbD40469SIh25vePbP1v8MvLi4oer0v46NeN978jf2BLdHdYuf/6qTF+Sv1bt4QrPXKvpN9p8RAQD6mA5VIM5otvahNRBb+t3vfhfrrrtu4bHffvvl7wSAFioqIjbeKGK9fvkJyk7aICeFyqVKRAAA6GE6+J9U50Z1s+rDkTF9Sf4ScfXVV8dbb71VeNxyyy3x7LPP5u8GAAAAgN6jAwHikpg+ckzEnCbVh7XjYlaVKczJO++8E9dee23ea92bb74Z1113Xd4DYHVUHn9d1L3xeMNx51Gxynt8VR4V80rXWYVjjayXCKugy35HVtgrZjT52W//OMssFQCAPqYDAWJtLJw/MQ5q+p8EK/ePcSMejEWqEOOuu+6Kp556Ku8VmzVrVt4CAAAAgN6jAwFiVWw7YmbzXZiXzI5Z84fF0NX/n7R7vY4Gg7fffns888wzeY+e4O23346//e1vWQicqkh//OMfx3e/+90488wz46yzzoqzzz47zj///Lj00kvjxhtvjD/+8Y+xfPny/KsBAAAAykMHAsTKqJk3J6LpLsxVC2OKTVSyAOrnP/953mtbWgvxF7/4Rd5jTUtTzVMAOH369Bg/fnwMGzYsNthgg/jgBz8Yu+++exxyyCFx9NFHx8knnxzf+MY34tRTT43JkydHTU1NHHnkkXHggQfGrrvuGptttllsscUWseeee2bvveqqq+Lvf/97/l0AAAAA+p4ObqLScidm4WFyxx13xLJly/Jeo6qqqrzVnGnMa9ZLL72UBXwpHEyhXwoAJ02aFJdddlk89NBD2dqUqyJtiJOefapWPPTQQ2PgwIGx0047xde//vW477778ncBAAAA9A0dCxCXTI+RzXZhtoFKUhQIXnTRRbHeeuvlvUZFgSNda968eXHEEUfEgAEDsoAvTU9+/vnn81cbrb/++lnY+8lPfjIOP/zwOOaYY7IQcMqUKVkVYqpAPP7447OKxQMOOCB23nnn6N+/f/7VjVKo/qc//SnOOeec2GWXXWK77baL733ve/HCCy/k7wAAAADovSoWLVpUN2TIkLzbmrQLc1UsnFIXM0plh3Oro2LqtlE7r2a1dvabevb5MeWUE/Je75KmJKfKs5brGg4ePDj+8pe/ZIHT7Nmz87ON/vd//zeOPfbYvEdXSSFeWqfwjDPOyKYqt5QC3Y985CPxiU98InbbbbfYYYcdYquttoq11upgEW4Tzz33XBYYpmrD3//+9/Hb3/621WB44403zqZFpyDyPe95T36Wks78/i9evDgLhFuTPvv0Nyy73klj87P0Zv947uV4+M9Px0Yb9otdP/z+/CxNPfHkC/Ho0udi83dvGDtss/LvxibvvixeeumtvBdx8ok7xJ67vy/vsSoe+8s/4/hJd+e9Bo8vGRcf/OBGea/Bo0ufrX8+L8b7BmwSQ7beIj9LU48sejqeefblGPyBzWLQB1b+H+YAAOh5OhAgzo3qiuvjoGbTllOoOD7i0nlRsxoJYm8OEG+55ZbYe++9816jE088MZvaeskll8QXv/jF/GyjPfbYIwuc6Drz58/PKgXvvffe/EyDTTbZJA466KAYO3Zs9qw22qj5f8nrKim8TFOir7/++mxNzAceeCB/pUEKEtPU6RQkpnUXaSBApIgAsX3tBYhrrffT+r9NeYdu88AfD4odh22W9xoIENsnQAQA6H06UH41Og6a+GAsWpJ3M7WxsMx3YS6avnzwwQdn/37605+OddddN2s3lXb8feqpp/Ieq+PFF1/MKvw+/vGPNwsPd9xxx7j44ovjySefzHZQTgFid4WHSZrWnzZlSVOf77///liwYEFMnDgxNtxww+z1tBbj1KlTs3Hddttt2TnWjIGDhuetrtMd10yMtbzH2l33T+/hd6C87z8xVvffHYy1vMfqWRmr+zfWrrxuBysQx8TMvLeyiTFnFTdV6a0ViGn68nvf+95sM42m3v/+98ff/va3LFBK9t133/j1r3+dtZu64IIL4qtf/WreY1Xcc8892fqGjz76aH6mITj89re/Hfvvv/+KZ/CvlHZnTusipjUxX3vttexcmjKddng+/fTTY+21187OlSsViBQpVSD267d27LqTCsTWPPHUi/HXJ5arQPwXa6sCccvNN4qqrTbPz9LUwtpn4vnlr6pABADoRToQIHaf3hogplAwhYMtpVAwhYMlqQruy1/+ct5rlNbhu/POO/MenZU2RUmbpJRCuXe9611x1llnRXV1dY8M5ZYsWRInnHBCzJkzJz8Tsc8++2TTnbuzMrKnEyBSpBQg0r6iAHHt9S+Jd95pTBDXWittgJZ3WCVpuYp33sk7ubYCRNonQAQA6D06FCAumT4yqibNz3slq155WNJbA8QvfelL8dOf/jTvNUprG6Y1Dkv+8Y9/xPve976sYrGpVIX217/+NatYpHNSKJuCwnfy/xY3YsSIuOKKK+JDH/pQ1u/JUiViWiOzFHyOHDkyCxU33XTTrF9uBIgUefvtd+LBhcvihRcbfldoXQoFd9zuvbHpu9bPz9ATvPram/HAQ3+P199o/n/7aW6D9deNnXZ4b6zXb538DAAAPdkqbqLSNXpjgPjGG29k05eff/75/EyDFG6kNfda7ur7H//xH3HrrbfmvUbTpk2LmpqavEdHXHfddXHIIYfE22+/nfUPO+ywLMjt169f1u8N0q7NaYfu0u7dn/rUp2Lu3LmtrpfZ1wkQaUuafpuCRIqlisK11+78TvJ0v1T92bQClJWlADwdAAD0Dqu4iUr5+s1vfrNSeJik3X5bhofJZz/72bzV3DXXXJO36IiFCxfGF77whRXh4VFHHRWXX355rwoPk49+9KPZRjpbbrll1k/hcpreDDSXwrF11lnL0cYhPOy5UjDW2jNzNB7CQwCA3qVD/+2jatuISVVp/aSmR3XMzV8vJ1dffXXeaq60+3JLn/nMZ1pdl2/+/PnZhiu0780338yqDV955ZWsv99++8WMGTOyn8PeaOjQoXHjjTfG+us3TDv84Q9/2OpmOwAAAAA9QQcCxLlx7qRhMaeuLltAvPHo+inNPd3rr78ev/zlL/Neo8033zz23HPPvNdcmnb58Y9/PO81Sp/hrFmz8h5t+clPfhL3339/1h44cGBccsklvX4H41SJ+J3vfCdrp5+F4447bqW1MgEAAAB6AlOYO+Hmm2+OF154Ie81+vSnPx3rrFO8CLhpzKsuhWrf/va3817EmWeeGVtssUXe693SGpjDhg3L2o8++mhceeWVWRsAAACgJ+lQBeL1M+ebwlyvqGKwKCAsSdOYW1sf8Q9/+EMsXbo079GatObkE088kbW33nrrOOKII7J2X5B+Jr7xjW/kvYgf/ehHeQsAAACg5+hQBeKMZlOXy3MK82uvvRY33HBD3mvUv3//bKfltrz//e+P4cOH571G6XM0jbltaaOUksMPP7zVILY3S9Wrm2yySdaeN29etqMwAAAAQE/SwTRmblQ3qz4cGdPLbErzTTfdFC+++GLea3TAAQd0aCfgok1WTGNu2xVXXJG3IiorK/NW35E2UvnYxz6Wtd95551YsGBB1gYAAADoKToQIC6J6SPHRMxpUn1YOy5mVZXXFOZVnb5ckqYxp/C1pXvvvTdb/472tbYZTV8wZMiQvBVRW1ubtwAAAAB6hg4EiLWxcP7EOKjpfOXK/WPciPLZWOXVV1+NG2+8Me81SlNP99lnn7zXtkGDBsVuu+2W95pThdi6V155JW81SDsw90Ubbrhh3mrY6RsAAACgJ+lAgFgV246YGdc3LTdcMjtmzR8WQ/vejNJWzZkzJ1566aW812i//fbLpqB2VFG1onUQW5eCtc022yzvrRwo9hVNf7bWXXfdvAUAAADQM3QgQKyMmnlzIsY0WQOxamFMKaNNVFZ3+nJJ0TqI9913n6mrBaqqqvJWxKJFi/JW3/Lwww/nreb3CwAAANATdHATlZY7MZdPeJiq3n71q1/lvUapOm706M59CltttVXsvPPOea85VYit23XXXfNWxK233pq3+o5Uffj73/8+a6dwvujnAwAAAOBfpc0Accn0kVExcnq0XOpwbnVFVFSXxxYqs2fPjpdffjnvNdp3331jo402ynsdV1SFKEBs3dixY/NWxJVXXpkF2H3Jtddeu2Jq9kc/+tE+u84jAAAA0Hu1ESAuidmzIqZdWhMtlzocPWNOTJx5fVnswlwU7D3wwAMxatSoTh8pMGrNn/70p/jzn/+c9yjZa6+9orKy4SfwkUceKfz8eqM333wzvvOd7+S9iCOPPDJvAXSzmyZHRb9BBcfksvi/7wAAQMe1ESCm3ZeLNkpJG6v0/V2Y0/TStIFKax599NH4zW9+0+kjrXdYRBXiytZee+2YPHly3os46aSTYvny5XmvdzvnnHNiyZKGX6K0S/eXvvSlrA3QbUrB4YFX5idac2WMKYWJu/+4xSyEpTF991LQOChGXrA0P9++JReMXfF1K1+3UbP3deDozBgAAIBV00aA2FZI2Fa42HfceOON8eqrr+a97idAbN2ECRPiYx/7WNb+29/+FkcffXS88847Wb+3uuuuu+L000/PexHnnXde9OvXL+8BdL25xw5qJzhsxd2zY3YP/x8L55+8RxYkVt+UnwAAALpcGwFiZdRMGRaTqqpbTGWaG9UVY+LBaV/r8xuprOlAL+3G23RHXhqstdZa8dOf/jQ23XTTrP/zn/88Jk2alLV7ozT9/dOf/nS89dZbWT9NXS5aGxOgS9w0OcZcnLdzE294POreaHlcEhPz13ubmQcKEQEAoLu0uYlKjJ4RdbXbxtSKimyH2IZjTMScuphX07fLD1988cW46aY1/99EVCG2rqqqKvts1l133ax/wQUXxFFHHbUihOst7rzzzvjkJz8Zzz//fNZPlZUXXXRR1qbrDRw0PG91ne64ZmKs5T3W7r3/26O6aeXh8NOi9o3HY8a+eb+ZvWJGO0HiNxfkjS7W6meQj3XloDMdd8S0Fl8y88zmU6O793PtWuU+Vs/KWN2/sRqr++8Oxur+u0O5jrVi0aJFdUOGDMm7a9bUs8+PKaeckPd6lssvvzyOOOKIvNdou+22izFjxuS9VffHP/4xbr/99rzXaJtttomFCxfmPVr6v//7v6xiL21AkqQALu3O/MEPfjDr91Rp9+gUen7961+P119/PTv34Q9/OG677bbYbLPNsn656czv/+LFi2PAgAF5r7lly5ZF+huWXe+kxl27gVxa93BFgLhLTHvkuujo/wa45ILJMXvMWU3en9ZA3CMm3d3QG3HeHTHv+MENnXaktQ2rTs7TxxQM3nnUSpu0JR19X0mamt1YXXlYzHnjrD4/QwIAANa0tisQy1hRJeDxxx8f5557bpccrUk7MacdmWndoYcemk1h3mijjbL+7373u9hpp53iwgsv7LHrIi5atCj23nvvqKmpWREepirEO+64o2zDQ2DNWbK46Q7/23Rq/eLK45uGhz3T6AMPy1vJn/v8Bm8AAPCvIEBsxQsvvBA333xz3muUdgQeO7ZrKpz+/d//PQYPbr1qwzTmth1wwAExf/78GDp0aNZPuzIfd9xxseuuu2Yb36Rqv57gqaeeytZq3HHHHbMduJO0DEDaSTpNj3/Xu96VnQOgq3QuIAUAADpGgNiK66+/fkWlWFMf//jH4z3veU/eW32f+cxn8lZzAsT2DRs2LO655574yle+km2yktx3331x4IEHxi677BIzZ86Ml156KTu/pi1YsCCqq6tjq622iunTp8cbb7yRnU+B8dy5c7Mdl0trOQJ0t8oh2+StpO9V6DWrsBxeGVV5EwAA6DoCxFYUBXif/exn81bXKLpebW1tFobRtk022SS+//3vZ9OYR4wYkZ+NuP/++7MAb+DAgSumPP/zn//MX+0eaffsM888MwsvU3VpCjBfe+217LUNN9wwvvGNb2Tv2WeffbJzAGtMZWU0/oVcEJO+1Hyjkd7t9ji3tF5ivYmntr1eIgAAsGoEiC2k3XFL002bSlNPu2r6ckkKvd7//vfnveZUIXbc8OHDY968eVnlaJrGXJJCw6uuuioOPvjgePe735193qecckpcffXV2VqTb7/9dv7OzklT3FNo+b//+79x+OGHxwc+8IHYYYcdspCwafCb1mk88cQT47HHHotvf/vbWZAIsMZVHhVTjs7byd1nRFW/QTHygqX5iV5qyY9jZL8JMTPvpg1dWt9ZGgAAWF12YW7hJz/5SRx11FF5r1EKn1JI1dW++tWvxg9+8IO812jrrbeOJUusBL8qUriXKhNvuOGGePXVV/OzK0vTiFOAm6YWb7nlltG/f//YdNNNs/NpWnQKjdM06BdffDGee+65eOKJJ+Jvf/tbPP30022us5h26k4VkGm36HQ9WmcXZliTbo/qJmHbyjq6O/Ma3oW5gybe8LjwEAAAupEKxBaKKv+K1itcXUXTmB999NG499578x6d8bGPfSyrPEzB0qWXXpo9u9aCvDfffDOWLl0av/3tb+Oaa66JH/3oR9n6hGeddVZ85zvfyaoG0xqGKVRO1Y3peaRrtgwPU9i48847x5QpU7IdtNNU5bRbt/AQ6Dn2ihlvXBIT897KFsSk7QZFRb+Go7dVJ848sy9NywYAgJ5HgNjEs88+G7fddlvea66r1z8s+cQnPpFVv7XGNObVk9ZIPOKII7I1EP/xj39klYnnnntuti5iqlhb1Y1M0vMaNWpUfO1rX4trr702q0hMG6ecccYZ2eYuAD1TChEfj7pHTmuyJmLr5p+8R1T0mxxz836Pl0/Lrr4p7wMAAF1KgNjEL37xi6wqraW0McaHPvShvNe11l577TjooIPyXnOpKq6tqbJ03DrrrBMjR46Mk08+Oa688spYtGhRvPLKK9n6hCk0Tp/1jBkz4pxzzskqENOGKOnfNL388ssvj1/96ldZdWGazpwCw5tvvjl7bwqWN9988/y7APQClUfFvBQk5kftebvkL7R0ZYz5V4eIaapzk7G2PFqOfeaBY2O6UkQAAOhyAsQm1vT05ZKi6sY0vfYPf/hD3qOrpVAxBcN77bVXttHKxIkTs6rCtNHK5MmTs3+PO+64bKOUMWPGZNWFqaoRoC+pPP66xlBuperEK2PMsbfn7Z6nYexNp2b3tV2mAQCgZxAg5p555plsLbzWdNf05ZJPfvKTsdlmm+W95kxjBmCNyaoTW6yVePHNPXwq817xtaaViHfPjtkSRAAA6FICxFxaJ++tt97Ke42233772GabbfJe90hr8R1wwAF5rznTmAFYs1oEcvHnWNTDA7nKMfu3u64jAACw6rIAcfHixV169EYbbbRRtj5ey2Pq1Kn5O7rXV77ylVa//+c+97lsAxAAWFMqhxT9D2eDY+gOebPe/D//JW/1JAtioQpEAADoUmsNGDAg0pGU2qtz9FZpt960Q2/LY+zYsfk7utduu+3W6vdPR9EuzQDwL/XQYx1cb3BpzL52Qd6ut8NWUZk3u94usW33XRwAAMqSKcwA0IfNPbbzOxPPveHKvFVv+P6xf5NAbvSBh+Wteh1db3DJrTHr7rxdb+KBe+WtrrFkzuyYn7cjtomhAkQAAOhSAkQA6NMWxKTtBkVFR3dTvmlyjLk4b9cbcfCnmlcL7rt3J3c9XhrTv3RGk4DvsDho37zZFerHW3Vyk+rGo/eO0XkTAADoGgJEACgHF0+Iin6D6o/JBbsqL43pu9e/fmCT6sM4LKYcPzhvl7Tc9fiMqKq/bvVNeb+pmybXf789YlKT6sMR51V3UcB3e1Sn+2kx3jkXdm11IwAAIEAEgDJzZYzJgsSWR/OgL60lOO2Rs1oN+yqPnxbThued3MwDW7lms3Cv3vDT4tKVAsk25OHkStfNjgkxM39bg+LxAgAAq0eACAB92OgL71gp7GvfYTHnjeuipnAtwcFRc+fjMefovNsRR18SdXce1U2bp7Q3XgAAYHUIEIE+a+CgTqcm7eqOaybGWt5j7d77bwj76t5IR3thYgri0vuKK/majnX0hQ3XrW06pbmlFByma7YztXiVPoPhp0VtG+Pt3s+1a5X7WD0rY3X/xmqs7r87GKv77w7lOtaK5cuX16XGsmXLYsCAAdnJ1ZGuM2TIkLzXtqlnnx9TTjkh7wHlpDO//4sXLy78+1T6m5Nd76Sx+VkAAACgq6hABAAAAAAKCRABAAAAgEICRAAAAACgUAcDxMfiwlH9o+aWxnb//v1j1IWPZa8CAAAAAH1TBwPER2PxPRNiv1H1zVsuiFO3vyaWL78mtj/1gsgyRQAAAACgT+r0FOZbfnVJ7DZk6/rW1jFkt4ejVhEiAAAAAPRZHQwQR8X0ayIO6d8/DrlkQvzXsVs1VCLG2Ni3vgm9xpLpMXLk9FhS+jc/DQAAAEDrOl6BOGp6LF++vP6YHmkmc9a/5dgov/xwSUwfWREVFSsfI6d3Io4SYHWv9Pmu9IxGxvTH89dLPAcAAACANnU8QHzswhjVP22eMiqyvVNuqYn+oy6M8pvBXBk18+qirq7+qJ0WI0ZMi9rUrj/m1VTm76FHaPJsGo55UTMof62ksibmzaupf6oAAAAAtKaDAeJjcWH1dTF2wfK4ZkJ+atTxcWZcFzdZA7FBs4q3kdFQjDg3quv7KyoTs/ek15bE9PGTYv78SVHV9HXWvFIFYvZvdVQ3qS6tnlt6y8gV5ypK1YqtPm8AAACAvqeDAWLahXn7qLLeYYG5UV21MKaUKt1qx8Ws8SloGh0zaqdFTDq3/h0pNJwV42rnRU1lZdRc2li9qHKxm+QB7UrhX5H5D8a2l+bPcM7EmDmmOuYumR7jJw2LOfmznTNsYdQWPm8AAACAvqfDm6jsN+GS+NUteTexiUqjJYviwZgZY0pBVVWqLkxBU73Kmrh02oP1r1XFrHGXhqxwDWo5hbm9qcojxsX+pTeMPigm1j/VRTE0hmXPtjpSQeLoGTNidFvPGwAAAKCP6fAaiKOmL4gh56RdmO+JU3fpH/0PibimLDdRKbDSenszYnT+UuXQYXmL3md0zMie50FxfRYYNgSJbT1vAAAAgL6k45uoxFZx7C1pF+bSke/GTEoIY9j8SXFuvmZec3OjekzEnLo5MWzS+OZr5ala67nmXh8zU0ViTI/q7KGlILE2po3IqxILnzdAeZp77KCo6NdwjLxgaX4WAADoC9oJEG+Jmv419f9/+jftwNzySK+RhUu10+LBMfmU1nRk6+2lTVRSepiq0+rfM2dYTKrKK9gqa2LKxIZpsDZR6SYt10BMm508nr/WmqbvT48tTXmuHBr1Dy3/+tI09KLnDdAzLblg7Ipwr7NHQxi4NKbv3uT87j/2Nw8AAMpIOwHiqJieVRqmf5tWH6pCzFTWxLzSunqp3XRKa3a+YfrrjNLc1tEzmk11HT2j4b02UekGLZ9HdsyLmk/lz6z07Jo+w2bTkkvPqeEZlq6x4lm1+rwBAAAA+p4OTmEuVSICAAAAAOWkgwHiqDj+zIeb78IMfUnTSkSAvmz4aVH7xuNR18Fj3vGD679ocNTc2eT8nUf5ewkAAGWkwxWIF5x6T1xyiDUQAQAAAKCcdLgC0RqIAECXumly48YsTY9jb8/f0PO0tiFNR3edbrpT9crH2Oj8nmotNrfJjskNm7W1tOTHMbLZ++qPVfmce+EzAwBg9XUwQIx47MJRLaoPVSACPdvAQcPzVtfpjmsmxlreY+0N9980/OpoYFaoFEIdeGV+ooWLJ3TJ91n1+28ezFXfVH8qH3PVyQsa3tLE/JP3qH+tILirVwodx1ycn2jVgpi0Xf33K9jheqXPPxvPHjHp7vwNK1wZY0rvqZc+g+xrtzsj5mdnmsg+5+JxN9PNz6w3/A6UGGvvGatnZazlPlbPyljdv7F25XU7MYV5+7hm+YI4c7cJ9f8uj+ULzozdJuynAhHosZ58fKX/Zr3auuOaibGW91h70/2vthREFYVQLaRgbnVCxK66/wfPHNuBMV8ZY7qiCu/uM6KqIEQsyQLLdsYz/+RJMX3J0vivQU+1E1zWj7ud77cmnllv+h0w1t4zVs/KWMt9rJ6Vsbp/Y+3K63a4ArHBVlG1fam5b4x9+Jy48LG8DwDQljSNtmkQ1eqGLnfEtCb/Q+n8k2d0rEKuG82/u1R1eFjMaTHeOUfnLyUXX9DONOSVv77haH7PKUQ8N1U9tqfl5/fIaTEif6mhorGxQnHEeXc0+X6PR+15uzS8kNw9O2YXjbuXPjMAALpWBwPErWPIbg9H7WP1rSGl3ZgfjcX3bB9VW2VvAABow9KY/qXGabQTb3i8YDfnhh2fG4O5K2Nqs4q21tb9W7WjM5Vy2XjfOCtG5/2S0Rc2Dc8WxKw5K1+z8vjr8qBt5a9v0PKeI2be0HY1Y6ufX+VRcWnTYDDTEFo27KbdqPL4ae2Ou+ueGQAAvV0HA8St4thbboljt6pvHXtL7PertP7hOTFkgU1UAKBXSVNkWwnTWj86uD5eRyy5NWaVZlAcfUnM2DdvFxh9YmM13fxrb217im03S8FZ8XgHx/4HN4Z28//8l7zVeaMPPCxv1XvoscJ7bms8lWP2b1KFmMLD4tCy3XH34mcGAEDX6uQU5gajpqcdmBsCRQCA9iyZM7uxku3AvfJWGyq3imF5M+5eErV5syeqHLJN3qrXRvC3RjT93OLPsaijg2ll3H35mQEA0Dkd3kSlxo7LAMAqWRqzr23cvXjmga1VO7Y8JsTM/P3NNUyXbb4G36odLaf1rlGlXY2bHh3cqKSrNAs+V9KVzwwAgN6ugwHiqDj+zNLahwBAr9XqJhhFR9H01876SyxcrQ3gOlFJ12O1WLtxDYeFneeZAQDQqMMViBecek9cckha+7DpoSoRAKBNWbVh447IAADQ23S4AnH68rTuYcvDJioAQGfsEtMeaa3asa3juqhZeevf3mHJj2Nkq9WGrXwONzTZRKVHKbNnBgDASjq+icpjF8Yo1YcAwGpZEAtXa2pri6nAq3GMvGBpfs3uM/d7Z6zYiCQZcd4dvTBgW91nBgBAb9fBAPGxuLD61Nj+mibVh9dEHDLqwvpXAADa8qHYdnjerPfg4u4P7nqGpbHoobxZL4WH/9KNWzqlXJ8ZAACt6WCA+GgsvmdC7Nd0vvKo4+PMuC5ukiACAG0aHEN3yJv15l97a5RHQVvzjUiGDekt4WFSrs8MAIDWdHgNxP0mXNJiF+YUKm4fVVvlXQCAAqMPbLK+391nxLk35e1OGxw1d7Zcb2/Vjt5TDfiv0XXPDACA3q6NAPGWqGmy5uEhl0SLXZgPifpTAADt27c6pjWZEjvzwLExvSMlbWkH42Nvzzu9TWemAd8e1a1utvIvVJbPDACA1rQRIBbtvNz0sAszANARg6Pm1Ka7DC+ISdsNKgyallwwtmGzk54WqnXK4Nj/4F3ydsT8k/dodeOWucemTV0mxMy833OU4zMDAKA17UxhTlWIabfl5tWIjYedmAGADtr3rKg9rzFQy1w8oSF0anFUnbwgf0PvVnn88TExbycpRGx5r2Muzl/sicrwmQEAsLJ2AsRUhZiqDIuqEVUgAgAdV3n8dVF3Q9OqtvaN2OZDeas32itmPHJajMh7RSbe8HinP5c1pfyeGQAALXVwE5XWlKoTAQA6Yd+zGjYyaStYG35a1PaVzU4qj4p59fcx5+i838SI8+7I7nHGvvmJnqrcnhkAAM1ULF++vC41li1bFgMGDMhOdkwKEH8V+7WoQkzXGTJkSN5r29Szz48pp5yQ93qvt99+O5588slYunRpdv8vvPBCVqH5+uuvR0VFRXZssMEGsdlmm2XHwIEDY+utt86mgUO56szv/+LFiwv/PpX+5mTXO2lsfhYAAADoKgLETnrnnXfivvvui7vuuisWLFiQtRctWhRvvvlm/o6O23zzzWOHHXaIXXfdNTv23HPPeO9735u/SrJkyZIYPXp09m9fVVlZGXPnzs3+LScCRAAAAOgdOrCJSmubp6TjkLgkf1df99JLL8VVV10VhxxySGyxxRZZ2Ddp0qS47LLL4qGHHlql8DB59tln44477ojvfve7ceihh2aViTvttFN8/etfz4JJIq655po+HR4m6f7SfdL1Bg4anre6TndcMzHW8h6rZ2Ws5T5Wz8pY3b+xGqv77w7G6v67Q7mOdTUqEFvXlyoQ582bFxdddFH84he/iFdeeSU/u7J+/frFe97znuzzSwHjRhttFBtuuGGsu+66UVdXl1Utvvrqq1kQ+eKLL8YzzzyTTXlO/bZsu+22cfTRR8dRRx0Vm266aX62vHzrW9+K008/Pe/1Xekev/nNb+a98qACEQAAAHoHAWILKfC78cYb44wzzog//vGP+dlGKRTcbrvt4sMf/nAW8KW1DN///vfHWmt1fj+atFZiqj5L4cjDDz+cfb/nn38+f7XRxhtvnAWJkydPzoLKctI0QOxrIVtfvreOECACAABA77AauzD3PfPnz4+PfOQj8elPf7pZeJiqCdM6fGeffXbcfPPNMWPGjDjmmGOyNQs/8IEPrFJ4mKSqwn//93/Ppi9/+9vfjjlz5sTll18eX/7yl5uth5cqFadPn56FlaeddlpWzQgAAAAAa4IAsV6aVpwq/D7+8Y/Hvffem5+NLLA79dRTY/bs2Vl1WAoM027K3SXt1pyCwzRlOQWJP/vZz7Iwc7311steT0Hi1KlTY8cdd4zbbrstOwcAAAAA3ansA8R77rkndtlll/jxj3+crVWYpODwnHPOyUK8Aw88MKtA/FcYOnRoNm05rcH4+c9/PltrMUnTnkeNGhVTpkyJt99+OzsHAAAAAN2hrAPEa6+9Nnbfffd49NFHs34KCk8++eS49NJLs/OpIrAn2HzzzaOmpiauuOKKGDFiRHYuhZ1p2vN+++0XL7/8cnYOAAAAALpa2QaIF198cXzuc5+L1157LevvsMMOcdlll8XBBx8ca6+9dnaup0nrLX7ve9+Lr33tayuqEX/961/H3nvvnW3IAgAAAABdrSwDxOuuuy7+8z//c8WU5RTAXXjhhdluyj1dqor87Gc/GxdddFH0798/Ozdv3rzs3Jtvvpn1AQAAAKCrlF2AuHDhwvjCF76wYu3AAw44IL71rW+tqOjrLbbffvv44Q9/uCJEvPXWW+OEE07I2gAAAADQVZoFiMuWLVvtoydLFXqHHXZYvPLKK1l/5MiRccopp/SYtQ47a/DgwXHeeeetCD9ToJimNAMAAABAV1kRIA4YMKBLjp7sJz/5Sdx///1Ze4sttojTTjutx6532FFp7cY0HTupq6uL4447Lt56662sDwAAAACrq2ymMKdQLe1aXHLMMcesmP7b233+85+PrbfeOmunHaWvvPLKrA0AAAAAq6tsAsTf/OY38cQTT2TttFnKvvvum7X7grXWWismTJiQ9yJ+9KMf5S0AAAAAWD1lEyBefvnleStin3326fVTl1vafffdY4MNNsjaaVfmnr4eJQAAAAC9Q9kEiFdccUXeivi3f/u3vNV3rLfeerHTTjtl7XfeeScWLFiQtQEAAABgdZRNgNhUKWjraz74wQ/mrYja2tq8BQAAAACrriwCxFdeeSVvNdhyyy3zVt+SqhBLXn/99bwFAAAAAKuuLALEDTfcMDbbbLO8F/Haa6/lrb7l1VdfzVsR6667bt4CAAAAgFVXNlOYq6qq8lbEX//617zVtzz22GN5q/n9AgAAAMCqKpsAcdddd81bEX/4wx/yVt+Rpmk//PDDWbuioiJ23nnnrA0AAAAAq6NsAsSxY8fmrYibb74526m4L7nttttWrHv40Y9+NAYOHJi1AQAAAGB1lE2AuNdee0VlZWXWXrp0adx+++1Zuy9466234pJLLsl7EUceeWTegvI2cNDwvNV1uuOaibGW91g9K2Mt97F6Vsbq/o3VWN1/dzBW998dynWsZRMgrr322jF58uS8F3H++efHP//5z7zXu1122WXxxBNPZO1BgwbFl770pawN5e7Jx+/OW12nO66ZGGt5j9WzMtZyH6tnZazu31iN1f13B2N1/92hXMdaNgFiMmHChPjYxz6WtZ9++un4zne+0+unMt93331x8cUX572I8847L/r165f3AAAAAGD1lFWAuNZaa8VPf/rT2HTTTbP+b3/725g2bVrU1dVl/d6mtrY2vva1r8Xbb7+d9dPU5YMPPjhrAwAAAEBXKKsAMamqqopZs2bFuuuum/WvueaarBIxrSPYmyxYsCCOPfbYeOmll7J+qqy86KKLsjYAAAAAdJWyCxCTvffeO372s5+tCBFnz56dhXF///vfs35Plqolr7rqqjjhhBNWrOH44Q9/OG688cbYYIMNsj4AAAAAdJWyDBCTQw89NH7+85/HRhttlPX/9Kc/xRe+8IXsXGlKcE/z+OOPx/HHHx/Tp0+PN998Mzv3yU9+Mu64447YbLPNsj4AAAAAdKWyDRCTAw44IObPnx9Dhw7N+mk68Lnnnhtf/OIX46677uoxayP+4x//yNZqPPzww+Oee+7JzlVUVMRJJ50UN910U7zrXe/KzgEAAABAVyvrADEZNmxYFsp95StfyTZZSRYvXpxtTjJ+/Pi47rrr4pVXXsnOr2l//vOf4+yzz47PfOYzcfXVV69Yp3Hw4MExd+7cbMfl0jRsAAAAAOgOZR8gJptsskl8//vfj9/97ncxYsSI/GzDLsf/8z//E/vtt19MmTIlbrvttnj55ZfzV7teqnh87LHHsp2ijzjiiJgwYUJcf/318cYbb2Svb7jhhvGNb3wjHn744dhnn32ycwAAAADQnQSITQwfPjzmzZuXhXa77rprfjbi1VdfjVtuuSVOPfXUbAOWo446Kn7wgx9k55YuXbrKayamTVAeeOCBuPbaa+O0006LAw88MA477LCYMWNGFl6WpHUaTzzxxCxc/Pa3v50FiQAAAACwJlQsX768Sxf6W7ZsWQwZMiTvtW3q2efHlFNOyHs9T6pITJWJN9xwQxYiFll77bXjPe95T7z3ve/NNjNJFY0bb7xxrLPOOtlahUn6+lS9+OKLL8bTTz+dfU7PP/989lqR7bbbLqqrq+PII4+MTTfdND9bXr71rW/F6aefnrXTv9/85jezdl/Ql++tIzrz+5+WFRgwYEDea670Nye73klj87MAAABAVxEgdkCqFExViem49dZb44UXXshf6VppDcaddtop9t9//zjkkEOy9RnLXdOQrS8TILZNgAgAAAD/OqYwd0CqKExrEv785z/PdkROlYlpt+ZDDz00Cy5WdSOTLbfcMkaNGpVt2JKmMafKxAULFsQZZ5whPMz169cvb/Vt5XKfAAAAQO+jArELpN2R//a3v2XrIT777LPx3HPPZVWKaW3EtDFKmsacQsj+/ftnU5w/8IEPZDspp3O0bcmSJTF69Ojs376qsrIy21U7/VtOVCACAABA7yBABP4lBIgAAADQO5jCDAAAAAAUEiACAAAAAIUEiAAAAABAIQEiAAAAAFBIgAgAAAAAFBIgAn3WwEHD81bX6Y5rJsZa3mP1rIy13MfqWRmr+zdWY3X/3cFY3X93KNexVixfvrwub3eJZcuWxZAhQ/Je26aefX5MOeWEvAeUk878/i9evDgGDBiQ95or/c3JrnfS2PwsAAAA0FVUIAIAAAAAhQSIAAAAAEAhASIAAAAAUEiACAAAAAAUEiACAAAAAIUEiAAAAABAIQEiAAAAAFBIgAgAAAAAFBIgAgAAAACFBIgAAAAAQKHyDRDnVkdFRUV2VM+t7y+ZHiNHTo8lpX8b3tW+zrx/Vb8HvYvnCwAAAPQhZRogzo3qMQ/GtNq6qKudFg9O7eKwJwVIeTjZeIyM6Y/nr5cImlbNSp9v/We7qh+iZwAAAADQpvIMEJcsigdjWAytrG9X1sS8eTWRml1qxLSorauLuhXHvKgZlL9W0l3fuxw0/Xxrx8WsqupIhaQAAAAAdK0yDBDnRnXVpJgfM2NMql7bZWzsUlSB1qzSrUmVW9Pz2bVWUan6Lfu3OqpHlr5XPq06e8vIFecqSuMsGle5qhwaw/JmpvDzqX/2K86nz3hJTB9f//zmT4qq+v7I+jc2+7xLX5s/p+nVTb+24YrNv1f90fJnybMCAAAAerkyDBBHx4zaaTGiVME2a49YP3+luRQ0LowpTavcxqdwqCGAHDandL7+WvlXNJOHUoXBUkvzH4xtL82vOWdizBxTHXOXTI/xk4bFnHwMc4YtjNrCcZWxudfHzBHbRlVDp+DzWRLTR46J+g+z4Xz9MWN0ZdRc2vizMK+mMipr5q14vW7OsJh0bp4U1j/PhQeVztc/n2zae3s/C54VAAAA0PuV7yYq7cmmOedViulIlYbzF0ZtOj9iWnxtdP6+Ii2nMLc3VXnEuNi/9IbRB8XE+u++KFJlXRpDw/Tc0TNmxOiicTV8ZfloGtBO3TZqS59v4XObHbOiA8+tacXgmJkRDy5qCPyaPvOqbRuCwvZ+FjwrAAAAoA8QILalZQhYNyPay5+61uiYkX3fg+L6LITK1/n7l4+rByh9Bqnqr2Uot6qfTwoPq2bFuLS5Tuna+Uutql3Y/vR1zwoAAADo5QSIRdK6evMnRWkG6wrZ+VkxO5+HumT2rFVfA7FINiV3XOwf06M6WzQvBYm1MW1EXpXY2rjKVdqIZk6sqNIsfm77x7go+NyaBpBNKkHbfbapUrTJz8JKisYCAAAA0IsIEAs1rJX44Jh8+mk6snUM68+ntfGqGs6NXzisY2sgpg00Hs9fa03T96el+tKU3MqhUf+N8q+vilnjLo2ayqJxlbHRM6J22oMxJtukpOjzaVjvsOn5bCOUypqYMrFhmvHI2fvHlGGNz6Hw2a7Q/Gdh5Q11PCsAAACg96tYvnx5Xd7uEsuWLYshQ4bkvbZNPfv8mHLKCXmvjKWps+MjLm1vnUR6trnVUXH9QVE3wyTljujM7//ixYtjwIABea+50t+c7Honjc3PAgAAAF1FBSKshrnVTaoLU+Wo8LBHGThoeN7qOt1xzcRYy3usnpWxlvtYPStjdf/GaqzuvzsYq/vvDuU6VhWIwL+ECkQAAADoHVQgAgAAAACFBIgAAAAAQCEBIgAAAABQSIAIAAAAABQSIAIAAAAAhQSIAAAAAEAhASIAAAAAUEiACAAAAAAUEiACAAAAAIUEiAAAAABAIQEiAAAAAFBIgAgAAAAAFBIgAgAAAACFBIgAAAAAQCEBIgAAAABQSIAIAAAAABQSIAIAAAAAhQSIAAAAAEAhASIAAAAAUEiACPRZAwcNz1tdpzuumRhreY/VszLWch+rZ2Ws7t9YjdX9dwdjdf/doVzHWrF8+fK6vN0lli1bFkOGDMl7bZt69vkx5ZQT8h5QTjrz+7948eIYMGBA3muu9Dcnu95JY/OzAAAAQFdRgUjZevPNN6O2tjbuuOOOuOaaa+Kiiy6KadOmxdlnnx1nnXVW1k7nrrrqqvjNb34TDz30ULzyyiv5VwMAAACUh7KoQFyyZEmMHj06+7evqqysjLlz52b/srLXXnst5s2bF7///e/j3nvvjQceeCAef/zxeOutt/J3dExFRUW8733vix122CF23nnn2G233WL33XePLbfcMn8HHaUCEQAAAHqHsqhATNVlfTk8TNL9pfuk0TPPPJNVEO6zzz7x7ne/Oz71qU/FqaeeGr/4xS/i0Ucf7XR4mNTV1cWTTz4ZN998c/zP//xPHHzwwVmwteOOO8bkyZPjnnvuyd4DAAAA0FeURYD4xhtv5K2+rVzusy0pvLvpppvigAMOiIEDB8axxx6bhX2vvvpq/o5Ga621VgwaNCj22GOPGDduXBx33HHx9a9/PU4//fSYOnVqnHbaaVm/uro6CwpHjhyZVR+mKsSm0vd88MEHs6nPH/nIR6KqqirOPPPMeOqpp/J3AAAAAPReZTGF+Vvf+lYWCiVHH310dvQVF198cXYk6R6/+c1vZu1y884778TVV18dZ5xxRvz5z3/OzzZKod+wYcOy6ca77rpr7LLLLtnP6XrrrZe/o+Neeuml+NOf/hT33Xdf/O53v8vWUExViS2lax9++OHxX//1XzF06ND8LCWmMAMAAEDvYBMVer0777wzW4/wsMMOaxYepgDvwAMPjEsuuSQLmdK6h9///vfjyCOPzMLEVQkPk4033jirRkwVi1deeWX8v//3/+L+++/Pguptt902f1fE66+/Hj/5yU+y9RKPOeaYePrpp/NXAAAAAHoPASK91j//+c/40pe+FHvuuWdWEViSqv3SDsop2PvlL3+ZBYbdvcnJTjvtlE15fuSRR7KqxEMPPTTWWWed7LW01uIPf/jDLFy87LLLsnMAAAAAvYUAkV5pwYIF2TTkn/70pys2Ldluu+1i1qxZWYhXU1MTm2++eXZ+TUvViakyMU27HT9+fLbWYvLcc89l/c997nPx8ssvZ+cAAAAAejoBIr1OqipMaxmWdtbeZJNNsqnJaYryIYccsiKw+1f70Ic+FD/72c+ynZnTFOuSFHKOGDEiq5AEAAAA6OkEiPQqaaOUz372sysq+FK1X5q+/JWvfGXFlOGeJlVK/v73v4/Jkyev2ME57dqcQtClS5dmfQAAAICeSoBIrzF37tw44ogj4u233876Rx11VNx+++0xePDgrN+TrbvuunHmmWfGNddcE+uvv3527rHHHovRo0fH8uXLsz4AAABATyRApFd49NFH4/DDD48333wz63/1q1+Niy++OPr165f1e4tUPXnDDTfEBhtskPXTrtFpw5XSOo4AAAAAPY0AkR4vhWtf/OIX4/nnn8/6Bx98cJx//vlZuzcaNWpUXHLJJSumM990000xZ86crA0AAADQ0wgQ6fGuuOKKuOuuu7J2mq6cdl4uhW+91bhx4+LrX/96bLzxxnHZZZfFfvvtl78CAAAA0LMIEOnRUvXhWWedlfciLrjggix06wumTp0a999/f3zhC1/IzwAAAAD0PAJEerQ777wzHnnkkaz94Q9/OA444ICs3RekXaO33nrrvAcAAADQMwkQ6dGuu+66vBXZJioAAAAArFkCRHq0P/zhD3kr4pOf/GTeAgAAAGBNESDSoy1evDhvRQwdOjRvAQAAALCmCBDp0V599dW8FbH++uvnLeiYgYOG562u0x3XTIy1vMfqWRlruY/VszJW92+sxur+u4Oxuv/uUK5jFSDSo6233np5K+L555/PW9AxTz5+d97qOt1xzcRYy3usnpWxlvtYPStjdf/GaqzuvzsYq/vvDuU6VgEiPdqHPvShvBUrdmMGAAAAYM0RINKj7brrrnkr4pZbbslbAAAAAKwpAkR6tNGjR+etiEsvvTTeeuutvAcAAADAmiBApEfbb7/94t/+7d+y9l//+tcsRAQAAABgzREg0qOtu+66cfLJJ+e9iFNOOSWeeeaZvAcAAABAdxMg0uMdd9xxMWzYsKydwsPPf/7z8fbbb2d9AAAAALqXAJEeb5111onLLrssNtxww6x/2223xYQJE+Kdd97J+gAAAAB0HwEivcJOO+0UP/rRj2KttRp+ZC+//PKsEvHVV1/N+gAAAAB0DwEivcZhhx0WP/jBD6KioiLrX3PNNbH77rtHbW1t1gcAAACg6wkQ6VWOOeaYbDrzeuutl/Xvvffe2HnnnWPatGnx1ltvZecAAAAA6DoCRHqdww8/PFsHcdCgQVn/5ZdfjhNPPDF23HHHuPbaa6Ouri47DwAAAMDqEyDSK40cOTLuv//+GD9+/IopzQsXLoxDDjkkdthhh7jooovixRdfzM4DAAAAsOoEiPRa/fv3j5/97GdZNWLaZKXkkUceiWOPPTYGDhwYn/vc57KqxBdeeCF/FQAAAIDOECDS6+25555x3333xdVXX51NYy5JU5tnzZqVVSVuscUWMWLEiDj55JOz9y1atCjefPPN/J0AAAAAFBEg0iekaczjxo2LBx54IG6//fYsNNxggw3yVyPbYOXuu++O7373u/H5z38+ttlmm9hoo41iyJAhWQCZKhXTBi0pYDzttNPijDPOiOeffz7/agAAAIDyVbF8+fIu3XFi2bJlWSjTEVPPPj+mnHJC3us+3/rWt+L000/Pe31XusdvfvObeY+0BuJ1110XN954Y/zmN7/p9DTmv/zlLzF48OC8R1frzO//4sWLY8CAAXmvudLfnOx6J43NzwIAAABdpSwqEPv165e3+rZyuc+Oete73hVHHnlktgbiP/7xj5g/f35873vfy6oNt99++3Y/r7XXXjtvAQAAAJSvsggQ03TWysrKvNc3pftL90nr1llnnRg+fHhMmjQprrrqqnjooYeyNRIfffTRuPPOO7NzaefmNMV56tSp2TTmTTfdNP9qAAAAgPJVFgFiCtdqa2ujrq6uzx7p/vp6SNrVUqi41VZbxSc+8YmsKvE///M/48QTT4z//u//zqa9pwpGAAAAgHJnExUAAAAAoJAAEeizBg4anre6TndcMzHW8h6rZ2Ws5T5Wz8pY3b+xGqv77w7G6v67Q7mOtSx2YQZ6HrswAwAAQO+gAhEAAAAAKCRABAAAAAAKCRABAAAAgEICRAAAAACgkAARAAAAACgkQAQAAAAACgkQAQAAAIBCAkQAAAAAoJAAEQAAAAAoJEAEAAAAAAoJEAEAAACAQgJEAAAAAKCQABEAAAAAKCRABAAAAAAK9b0AcW51VFRUZEf13Pr+kukxcuT0WFL6t+Fd7evs+3uC3jjmrrSqzxoAAACAQn0sQJwb1WMejGm1dVFXOy0enNrFIVIKpvJwsuEYGdNX9RsIuVbdSs8hfxaP56+XdOQzbvqeTj+TJTF9ZP339hwBAACAPqxvBYhLFsWDMSyGVta3K2ti3ryaSM0uNWJa1NbVRV06asfFrKrqSIWOrGFNn0N2zIuaQflrJZ39Gejs+5fMjlkxsf7/zYrZEkQAAACgj+pDAeLcqK6aFPNjZoxJFWm7jI1diirDmlWwNakibHo+u1Y7KofGsLyZKbpuGtuK82lq9ZKYPr7++vMnRVV9f2T9G5dMH7ni9RVfm1fETa9u+rUNV2z+veqPlvdaOJYykn9+DVOaq6M6VQvmn0nD59jiOfz3N5pUILZ8ZtnJZpbMnhUx7mtx0LD5MauUIDZ7ZqVwuf1rAQAAAPRUfShAHB0zaqfFiFJl2qw9Yv38leZS0LgwppQq11IV4fgUGjUEkMPmlM7XXyv/ikJzr4+ZI7aNqoZOwXXTNNcxEaXr1h8zRldGzaWNY51XUxmVNfNWvF43Z1hMOjdPmeZPioUHlc5PjJnZtOz2xlo0lj4kD/1KoVy704jnPxjbXpp/HulzHJPCvRbPYcKW+Ztbe2b5SyssiSw/3L8yRh80MebPmt34/Vc8sxn1P5UduRYAAABAz9X3NlFpTzbNOa9STEeqNJy/MGrT+RHT4mvthTtNg6up20Ztacpr4XXTNNcOXLdpxeCYmREPLmoIpJqOqWrbhqCwvbEWjSV/uU/IQ79SKFfX3tTjEeNi/9IbRh8UE+s/oUVFiWNHnln2nvya6Xrzm0xjbvpsOvr86RYDBw3PW12nO66ZGGt5j9WzMtZyH6tnZazu31iN1f13B2N1/92hXMdafgFi0jJ8yirFOqj0tanqr2Uot6rXTeFh1awYlzZ/KV07f6lVtQvbn169OvdIu9L05dLU54qKMTGz/omsmMZMj/Hk43fnra7THddMjLW8x+pZGWu5j9WzMlb3b6zG6v67g7G6/+5QrmMtvwAxrVs4f1KUZgivkJ1vrCLLAqKGZuvShhtzIsaU1rkrvO7+MS5aOZ80DSCbVMi1+71bVry1VDQWGmRTz5tUJLYMgtt6Zpk0fXl+TGwyLTlNi242jbmk3WsBAAAA9GxlWIHYsFbig2Py6b3pyNbPqz+f1h6sajg3fuGw9tdAHD0jaqc9GGOyTUqKrtuwzl7T89kmGpU1MWViwzTjkbP3jynDGqdGt/+9m4915Q1fisbShzSdSp4d9c/g8fy11jR9f1qSsDTluelzuOSZ7K31J1t/ZiWtTUsuhborjaGdawEAAAD0cBXLly+vy9tdYtmyZTFkyJC817apZ58fU045Ie+xyuZWR8X1B0Wd3Tlal6aIj4+4tL11ElmjOvP7v3jx4hgwYEDea670Nye73klj87MAAABAVynPNRD7gLnVjRVtWUWd8BAAAACAbiBA7KVGz2iy/p4NUtqW1qtUfQgAAACwSgSIAAAAAEAhASIAAAAAUEiACAAAAAAUEiACAAAAAIUEiAAAAABAIQEiAAAAAFBIgAgAAAAAFBIgAgAAAACFBIgAAAAAQCEBIgAAAABQSIAIAAAAABQSIAIAAAAAhQSIAAAAAEAhASIAAAAAUEiACAAAAAAUEiACfdbAQcPzVtfpjmsmxlreY/WsjLXcx+pZGav7N1Zjdf/dwVjdf3co17FWLF++vC5vd4lly5bFkCFD8l7bpp59fkw55YS8B5STzvz+L168OAYMGJD3miv9zcmud9LY/CwAAADQVVQgAgAAAACFBIgAAAAAQCEBIgAAAABQSIAIAAAAABQSIAIAAAAAhQSIAAAAAEAhASIAAAAAUEiACAAAAAAUEiACAAAAAIUEiAAAAABAIQEiAAAAAFBIgAgAAAAAFBIgAgAAAACFBIgAAAAAQCEBIgAAAABQSIAIAAAAABQSIAIAAAAAhQSIAAAAAEAhASIAAAAAUEiACPRZAwcNz1tdpzuumRhreY/VszLWch+rZ2Ws7t9YjdX9dwdjdf/doVzHWrF8+fK6vN0lli1bFkOGDMl7bZt69vkx5ZQT8h5QTjrz+7948eIYMGBA3muu9Dcnu95JY/OzAAAAQFdRgQgAAAAAFBIgAgAAAACFBIgAAAAAQCEBIgAAAABQSIAIAAAAABQSIAIAAAAAhQSIAAAAAEAhASIAAAAAUEiACAAAAAAUEiACAAAAAIUEiAAAAABAIQEiAAAAAFBIgAgAAAAAFBIgAgAAAACFBIgAAAAAQCEBIgAAAABQSIAIAAAAABQSIAIAAAAAhQSIAAAAAEAhASIAAAAAUEiACPRZAwcNz1tdpzuumRhreY/VszLWch+rZ2Ws7t9YjdX9dwdjdf/doVzHWrF8+fK6vN0lli1bFkOGDMl7bZt69vkx5ZQT8h5QTjrz+7948eIYMGBA3muu9Dcnu95JY/OzAAAAQFdRgQgAAAAAFBIgAgAAAACFBIgAAAAAQCEBIgAAAABQSIAIAAAAABQSIAIAAAAAhQSIAAAAAEAhASIAAAAAUEiACAAAAAAUEiACAAAAAIUEiAAAAABAIQEiAAAAAFBIgAgAAAAAFBIgAgAAAACFBIgAAAAAQCEBIgAAAABQSIAIAAAAABQSIAIAAAAAhQSIAAAAAEAhASLQZw0cNDxvdZ3uuGZirOU9Vs/KWMt9rJ6Vsbp/YzVW998djNX9d4dyHWvF8uXL6/J2l1i2bFkMGTIk77Vt6tnnx5RTTsh7QDnpzO//4sWLY8CAAXmvudLfnOx6J43NzwIAAABdRQUiAAAAAFBIgAgAAAAAFBIgAgAAAACFBIgAAAAAQCEBIgAAAABQSIAIAAAAABQSIAIAAAAAhQSIAAAAAEAhASIAAAAAUEiACAAAAAAUEiACAAAAAIUEiAAAAABAIQEiAAAAAFBIgAgAAAAAFBIgAgAAAACFBIgAAAAAQCEBIgAAAABQSIAIAAAAABQSIAIAAAAAhQSIQJ81cNDwvNV1uuOaibGW91g9K2Mt97F6Vsbq/o3VWN1/dzBW998dynWsFcuXL6/L211i2bJlMWTIkLzXtqlnnx9TTjkh7wHlpDO//4sXL44BAwbkveZKf3Oy6500Nj8LAAAAdBUViAAAAABAIQEiAAAAAFBIgAgAAAAAFBIgAgAAAACFBIgAAAAAQCEBIgAAAABQSIAIAAAAABQSIAIAAAAABSL+f4GYVQwHvgWKAAAAAElFTkSuQmCC;clipPath=inset(0% 44.33% 0% 0%);" vertex="1" parent="1">
          <mxGeometry x="940" y="201.32" width="1050.22" height="911.87" as="geometry" />
        </mxCell>
        <mxCell id="iLzAXBDjAKeNAdl8jMWR-2" value="" style="shape=image;verticalLabelPosition=bottom;labelBackgroundColor=default;verticalAlign=top;aspect=fixed;imageAspect=0;image=data:image/png,iVBORw0KGgoAAAANSUhEUgAABD0AAAJmCAYAAABfbft2AAAAAXNSR0IArs4c6QAAAARnQU1BAACxjwv8YQUAAAAJcEhZcwAADsMAAA7DAcdvqGQAAP+lSURBVHhe7N0JYBTV/Qfw7+Y+INy3nAnhEgFFBERRSRAQj4jSqv2raCUqSrC1RbRaq1ZqrZXQokK14FlFMagIaFBUlFuQIxyBcN83ue/9v9/bmWQ22U12k00I4fvBZ+bamZ3Z2dl5v3mHza6AiIiIiIiIYLvmWWPo/HTof/HGENGFqU2bNsaQA4MeRERERERERFQv+Rl/iYiIiIiIiIjqFaeSHsu//Qzbl0yDX/pONVZZARAbiiOi0C1mEgZfd7MxjYiIiIiIiIiobigJekjAw/b9vRjU7oye4akVBxvDPnQOAx9EREREREREVKeUVG/Zlvyq5wGP4KbAqK+BNkMxsO0ZpHydaMwgIiIiIiIiIqobSoIefhm7UGAPQHGDzkDsp8DQ2UBghDHXIqQFMHop0HoI7P4hOFvUCMUZ+42ZRERERERERER1Q0nQI7c4CKcLmyK//z9QcCpVzQkEej5kzDWEtARGfws06gr713E4u2cl8u3BOB87gFkUb4PN5khXJkobJg47E68smW6zxWORMb2cRfEVzne3fiIiIiIiIiKqHaUlPWBHiF8ObHknUdS4l26kFE16GHOV0FbAjd8CEZGwf3snMs+e1AGP89LORKTeYtfBGrt9IS6edA/MuMSOLcsxfqE5byZGOiZb7ETilTbY5gPjjSnlVLB+IiIiIiIiIqodJUGPYL88RPhnwLbqjyg4tAJFh1cAkb8Cuj8AhBolPBp20QEP9JyAsJsWAAGh0ocLAm0FxlrOE1EJSCiJZnRFz8HGoDYYPbsagy5FIeEnO+wzbzHGXahw/URERERERERUG0qCHkV2f5X8kJtfhJyNbyJ/xVPA4puAM9uBG74BGnYuCXigzdXI+P6PsBVmoXHAGQTYioy1uLAzEVeWVPNIRLztSqPUwyLLsCg7bpSoMF4br+uRuJrmiqfLiR3YsvxiREfJ8E6kbl6OSV0dr/NNtRTr+omIiIiIiIiotpQEPfLtgThZ2By59lA9nlMciuIT64Erp5dUaTEDHme/jod/WAs0DMxFRlFDHTBxbRHiu07CxUZ1kbcxF7OMORWToEVXzB27w6giYsdMKTmx6GVMunih8zRXPF1OWRQ/Cpun/cGoxmKU4tCv8021FOf1ExEREREREVFtKQl6SGmNEFuOTlJlxR7UBEWjvgEadSsX8AjucC0aDH0Zee3HoNAeqAMmLu1MxebB0/AHI8cflfAn9+1gWO38EnOXj8efEsoUj+jaE4NnjXIugWEpSVLSsKir5cpxlAZ5oecO/FR2O9pI3DJ+OeZ+WdWoR2XrJyIiIiIiIqKaVBL0kHY5IgIydJIqK+F9fgsU5KDo6zEoaNIfBX4Ncfar8fAPCkdQ0yhk/vQM8nY56o3Y9P9rQVQCfrJLiZF7SqutGNMcpTOMhkddLedEAhL3AG/bKw1IXFyleimer5+IiIiIiIiIakZJ0KOELQCB3f8PQWc3oOjzocjY8xPOrJ6OM0k3oWD3lwjc8SZOf3oTcjY4Kqro0iF+uXq4nKhoXLx8El42gg47E1+wVG+RBj6XY8sOY3TR/NJ5UTdg7OBZeMFNSY2ohJ+wY9pgbE6tuBSG2+V09Zc/ocJ4xM5EvDDLbNS0bHsjrliW8WT9RERERERERFSjLEEPo7xGz4eAgHAEtLwUBRfdjIBLJyM4cjQCG3dGo0FPoLBnAvxa9kfD6xLRoHVPNPTPKH1tOSMxc+F4zBrlqH5yD8ZaqrdEIeFPpfOcu4CVtjWkTY2ujnlmaY1F8SXjXSddXL76i6mS5XambobacMkykhxVYSRwYUzTbZH8VKXAhfv1ExEREREREVFtsdmlXojy3ynX4L7O3wOXPA57QQbskXciY8PbCI66CYUntyD4yNco7P4QMr6dBP+IjogYkAD7vsXITP0cSfsuwf1/+06vsGISVHgBPXdULZhAREREREREROSpkpIe3WMfw4qDjWHf8jpyQ6OQd/Yg8vcvReGB7xAaBKSfOYWCQysQeskDCPbLgz3rMDJP7MOagw3RY/hjxlqIiIiIiIiIiOqGkpIeYvm3n2Fr8nQUpu/TDYMKaeC0GP4osjviI1KRJdgvF3n2UNgadsbFwydg8HU363mVY0kPIiIiIiIiIqodTkEPIiIiIiIiIqL6onzvLURERERERERE9QCDHkRERERERERULzHoQURERERERET1km3mhnPbpsf4S4wBIiIiIiIiIiIf0kGPy1oZY7Xs56MMehARERERERFRzWD1FiIiIiIiIiKqlxj0ICIiIiIiIqJ6iUEPIiIiIiIiIqqXqhf02D0N40ZPw35j9JzZOQ2DB0/DTmOUiFw4H78n/G7XPh5zIiIiIqpHKg56SFCjtQ39nVI8ltdWsENuvm022JzSYExzdzduvVn35Y17ufcRj0XGLI+5e29VfZ++3D9vOB2LKhwHT/ly/5zesw8+P2/4bD92Ytpg6z6UpsFuvxC1rMxx1u/Ll5+jO9Zt1Mb2XCm3Xfm81LXqm3P0fkyujse5OkZEREREROdA5SU9+r+KpCN2rC1JMzG48yTMXjAJ7Y1FatSgV7HDboe9JC3HpChjXllRk7B8+SS4m10t1vexEBjlbabB3Xur6nuuyX2tiGx3x6sYpI/HTIw0Jtd5NfX51ZooTFpuvP+S4+8YX+72C1GbFiG+61yM3WG8R3WQe2/dUfvH7Zx9L0ZjLOZigXlS7VygxsZi9LBzfd4QEREREV3Yqla9xVVJD6dSIYPxwW5jek2Rp5XmU+Wuj2GFOU1nZndi2t1q2orH0NV84uxLI2/B+BVbobJ0zu/DUoJg57TBJU+8bfKe3L23Pz1V+tTV1bqM102LN6fbEC8zzPW5my+c1qeSuR1fqmD75Y6BY6LlPRmldpzWIftdS59fue0qTu/PmLYo3jFe0T5oKuNfMl2OQw3vh3D1foW76QaXn0219Ua3ktz9SMycOdLxPmT9+m884o3SKvrYlAyrxc3lHC8uP644veeS4+6j71O1RWH0WGCuGfXYsRUYOxpR1v1wej/O537pfPOzkuNT/nPzOVfvyaTfW+ln5rtjRURERERUeyoPeqx9DHFlq7cYs0otwouDtuIBszTIirFIftRH1V+MzIx50+3IoMlT5cfQe6HlybexuEMUJr1T+jTc10/Cd057HrMG9UDXMu9jx6ubMEpyBSqzcPdjvbFQP/G2Y2FvI0CilXlv97YwprtZl1DHYOstxr4uHI9ZzztnBl3Pr+wY+ZCr7bs8BvKetuJpY5p9x1jMvdvYl5J1SOmR2vr8FKftuvkMRs60HD93+yCZ1FFQO+yYrtLMkTW7H+7PGXfTDRWen1U1EreMn4VR8h21bstqxSb0eEdtU86RUXcD5nDZ89mNqEnLS46tfWFvPPaybKcGvk9VFNWtN1ZI6RZl0fxZ6F0aAVLcnDdR3dDbCKDuXDAXvccD8/Xb3IGtMM7R6lL763QNVcdFB4ndnssW5mdmHqtRtRCIISIiIiLyoapVbzFmldi9Xd2iz8JEMzAy6DFsWrvVN0EPIzOjb7olSVHxnduxSU3/Q23WrbBkHLrOHYsdLt5H1OixGDRrPhZJRkYdj1HGU9uRMz2oBuJuXTJi3deuPcoHL1zNr81j5Gr7ro6BvCc9zZL5MkvM1PR7dfX5yXTrdiv6DEzu9kFXZ6il421y934r24+qnJ8eGDnT+I7eMt9xbMoGPwaNxWg56HKOWIf1TA9YSyWMmgVs2u4+WFHRMbB+5t5svzJSgkhvYye2bxqPW6wH1d15o4NFm7Bd7ciOrb1xyx96YJNEPWT53t0c52h1qf11uoaaATy378nC/JyE7J96hbxXIiIiIqLzRdWqt7jiSXDkfGbNOFRaR38kZuplb8F8naE4B09Hd2w1nuaeK26OQdkMWG21C+LV51eJc7UPPlPD56eUjLEvNAIAPiIBD2ubITVZcqnKjADGogWY2/uW8ueEm/Omaw9g645FmL+pB7pK2yCb1HFT39/eTlGTGnLen8tERERERBXzTdCjczd0XfsY3v3GGK9pukh4aaOBUizcZQa/7FNLX9Pv4zHoUvaKfh/jVWZHZdDideV4yVzuwKuDVEZor2OZEmXfm7t1OUa9p9utsDSsWNtcHQM472OlavrzK8uTz6DMMiV0Q5Zu9q2m9sPd+61sP1x9NtU9TyQo4VSFRkpaeFk9w3Kc9Hs2hktYSh2Um1/T3ycPjbylNx4b9Vj5gIW780aRUih4/nlskjZA1D8ZnT8f6OGTui0VqOA9ubRoPmZZS34QEREREZ0HfFTSYySeXPEqdtxlafvDV13aqptyp/rourE9lVmTOv1dHdPu3tq7/FPfqEl42mhjoOa69FTvY8er2DTK8T66SjsJ0nijykyoN2e8366YO/YdTOpovERY39uc48ZEN+uqMudjVFqPv5r0E3cpBi+fSwUlBFwdgyjnfdTJbMSxrFr5/Mry5DNwtw+OtiWs03UMoEb3w937rWQ/XH42xryq0iUURhnrVElKZbzjRYkadZzekXY3jNeX+07Lcexdei1wml8r3ycP6SogZaq2aO7OG0U+D/XlHGtEE2R01qYetRBcqOA9mazXX2myprqlpIiIiIiIaplt5ga7/bJWxlgt+/koMP4SY4RqlvRAMv8W2Gsj41cfyfF7vkdpWyBE9Z0EOKW9WZ7zRERERHQe812bHlTnLLJ0y6mf0jLgUQWLHN3QjtqEV70puUBERERERETnHEt6EBEREREREVG9pIMexvA5waAHEREREREREdUE29q1a89p0IOIzo3o6GhjiIiIiIiIqH7SQQ9mfoguLKmpqbjsssuMMYevv/4aw4cPN8aISPB7QXUVz00iogsTr//eY9CD6AIkQY+oKOdmWVetWqUvoGfPnjWmEBG/F1RX8dwkIrow8frvvVoPehQXFxtDgJ8fO48hqi3y3TO/cwx6EHmG3wuqq7w5N+dsCzKGat+93fONISIi8gVvrv/ffPONMXRhY9CD6ALhbdAjLCxM/83OztZ/iS5E/F5QXeXNuSlBj77Ni4yx2vPLCX8GPYiIfMyb678EPfr372+MXbgYdSC6QGVmZiI3NxcFBQU6IGJ30ZHT4cOHsXLlSmOMiAS/F1RX8dwkIrow8fpfsSoHPVYfWI2bPr0Jd6+6GxN+mYC4b+Pw9A9PG3OJqK47cuQITp06pQMfRUXlnwBKtHjr1q3GmHekRInNZjPGPOPv728Mnf+Cg4MREhLilKj2WUsW+kp1vhdENak+nZu2kyfRqHFjnfzXrTOm+kZRUTH+/vd/YtWqNcjLyzOmnntyvSosdPwW3/NBof5LtSMzpwBZuTzm1ZV63A9fb6uZdKjyWhwXNN6bVK7S6i3y8LewqFBlYPxURsamMzJ7zuzBLYtuxphhY9BR/Wvj3wZp6t/8XfPR+XhnvDHqDePV5bF6C9G5UbZ6y65du9CkSRO0a9dO/92wYQOuv/56j+oHVuazzz5Dly5d0Lt3b2NKxWTbaWlpuPXWW40pngsICMDPP/9sjCnqGuVpuEWOyUl1cz1s2DBjivekxIx5zMzSMvLjEx4ert+bBJTS09P1uBkIkr8y3ljd0NdbdpWZsGeqC30zY0Ltk8CeBJyqc5y9qTdbEXl9gcrQZGfnwK5+T4MDAxAUFICm6rtX07jt2t/2yZOOgHJ2bp66LhQjJDgYoepcbNasqc/ufbw5N+tS9ZbAjz9G2AMPwB4RYUxxKBo0CFkffaSHg/7zHwQmJaH4kktgO3EC2W++qacHv/wygv/1Lz1ssqnra/799yPnlVeMKRWTa/L//jcX3bt3w5Yt29C+fTv0738ZGjZsYCxxbqxcuRb5+QW4+upBmPtLMcb29cOcpQdwba+m6NjSUXS9Pjl6Jh9frTtZEugppX5H1X/yc3nDgFZo2bhm26PJzS/EE28sg39gIF787SB1nagbD2D8VQY2/IYbUKS+AzlvvIHi1q2NOXVX/EeBOt9YU2b9usAYqjq5noT95jfw370bmYsWoVjdq56PvLn+s3qLQ6VBj8LCQhSqHwj5kTaf3t7yv5txqPch9GjUA51yO+HezvfiqV1PwRZiw9oNa/HuJe9iUOdBxhqcMehBdG6UDXqsWLECrVq10sGJ1urHdPPmzU5Bj+q0XXD8+HFdbUaeonXu3NmY6poUxwtUNxsSGJD34i15bUZmlto3W8k1qiTJAmWGrWT6t+rHYOjQocYU78yaNUsft6CgIISGhmLkyJFo2bIltm3bpm6gG+rpcoMtx0MCQHIsP/nkE+Tk5Ohj07ZtWzzxxBPG2uqR4tPwy/oHioNvUrmXK4yJtW/79u06ENWiRQuV2axa8MWberOuyPduz569OJVViNyiANj9Q2Hz84e9MAdBtnw0DgE6drioRkoDcdu1v2257qXt2o3sfDuyikJgDwyDn7rOFBXkIMSejfAgOzpc1A4REQ2NV1SdN+emJ0EPOW7FRYXwV5fJInXF9FPHrLr3aa6CHgFLliB87FgU3H478h55xJiq8rnh4SUZED/1GxUeO1x/f/Ne+YdeVtiOHIGfup6aApKTEfz668i/5x7k/ulPxtSKyX7OnTtPXa8d3T0eOHAIKSlbEB7eAAMGXKauF8319Nok7+njjz9Dz57d1G9FTxQV2+GvftP+9+NhNA4PwMh+LYwl64+3FqUhPS8LHduUDUI6cs0Hjp5B07CG+E1MxfcQ1fXCf39Av8ujYVfZk9TtJ/G7sb2MOeeIOudDpkxB8BulD5Dt6v4iJzERBep7UyPy8xH45ZeOpO5R7E2aIO93v9PfO2+CLeM/DNR/b+vruwBrZp4Ni7eqezs1PLOaQQ//lSsRfuedsJ065Zig7h8lWJp/992O8fOIN9d/Bj0cKv018/P318XO5YdP0smsE0jLTUPh8UL0T++P/uH90Sy4GQYVDEKrw61wLPgYVh1dZbyaiOqqrKwsnfGWwKbcWPqyTQ/JZEoxOylBIhl8dyQgIDd7kjmtLDhSEX//0qCsZDBKknHdKpv8jSTD1fHDDz+oe4V8tGnTRu/zxo0b9X7LsZQgzokTJ3D69Gld4kOmb9q0SS8nwQ4hy/tK3qFDWDN4MFLVjYpdHVN3ZJ4sI8vKa3yucA/8sl+Cf4Dc/JzbJ2YSEJNzUKpxHTx40Jhafd58L9Zv2IjD6XbkN+iEhi27oFXbdmjXrg2atekE/yZdcKKgATZv3a6/j77GbTu23bqWti3Xs182bMKp3EDkNuiCiJaddEC5XdvWaNGmI/ybdcXZ4oZI3ZGGM2fOGK/yrapes+U6nJ+Xi5ahdgyJbITgomzk5mSjWO1TTSiOjEThZZch8IsvUNS7t07WJ67F0dFYMG8TZk1bURLwEHZ1PM3l/dR3WoIjBSNGGHM9J/e1cl2Wvx07tseoUdfrgMPy5Ssxf/4X2L//gLFk7di9ey+aN2+qf8PEfR86jntQgA2BAf44kV79xmALCgrV73GuyhTl6HM/IyNT/U5lqExTekmScUmZmVku7wl8qTA/V2VkCxEUGmikACM5xmEvQlZmprF0zVj841Y0aByKAPVbERgciIDgQny/4agx99wI+ugjHfAoVvcVUsqjSGVWber7GfbII/BLSzOW8h0/df/VYNgwhI0bpwMewqbuW0KefhoN1LaDPvxQB2I81VhdQ4Z3L/ZhcnwXWkdU83xU+yDHUAIe9latUHzRRbCr73/oH/+og6n1Adv0qFild/xmJsLMIOSpf4HNgqCySCiWf/bikmH5iwB18x1Sd+pIEpWTNgMxMTPg+5+O84u7QIdJosXVqR8oT9YjIiKwZ88eY0p5O3bsQKdOnfSwebPnNfU6fZ0yrlE246+7ZF7LzOFjx47p4IM1ff7558bKKyZPda+88ko89thjeET9mLZv314HNNyli9SP7MSJE/G73/0OY8aM0a/3BQle/Dx6NJr06YOM9eux9dFHXQY+ZNoW9T7PqB/FVtdeq1/jy8CHPX8dAvJmqb8b1f1qzWTqvCHntwT1JGMjVQ2kSld1efO9WLduPfJsDVDYUGW2/QLkVEVBYTGy84pQWKS+ezIhrAXyg1ril182GK/yDW7bsW0/tanUI9lYmXZW3a/U/LYLAhqjoEFH9/sd3lrdI7XGpk2bK7z+VkV1rtlSBUcHOQpy8MEH76NrM5XxlMBHbo4OiNSE/PHjYQ8JQfD06cYUZwUNG+Nsy/bGmLOAH39E4Hvv6WL/VSHX/+M5wSWBD0lt27bBjTeOwvDhw3DkyDF8/HESUlN31tj+m+Q8kO1INRu5Xokbejpuz4vU+dOzQxP8sqf619OTJ08bwY2zOHMmXaWzOHXqjP4rwXvZz4yMDB0MkaCP/K1JxYW5yM7KVu9HAi+SpKqoI6WrJOezLFNTjpw4iy9WbkPHjq2RlZml00UXNUXSih04fubc5WMC587Vf7P/9z9k/vADMpcsQe7TTztKY3zxhZ7nKwHqXqDB0KHw37QJhddfj2z1fcr67DNkf/AB8iZNgk1tM/TBBxHyl78Yr/BMQRHwn+X++DLFD/lFNny4zh9FZb5Gcvn7aJ0fMmvpUPtJKbGdO1F0+eVI374dGZs3I3/cOKiLHALWrDGWOn9V9579QlB5SQ/1I21mECS1DWuL5g2bYY/fHjx74lnM2TsHezLU8EE1nDsHocWhGNqxCkXFJSOqMkgxMyxZUWZOqTLJCTpjXZISkh3TfXHu8JzEwIEDdaqKXr166bY6evbsqdtWKEtKQEh1li1btqCPyqxXlcpG6GtTSSkPGbZcs3Qqcx0zk7xGqvj07dfPKXla6kReLzfLJhnfvXu3DvSYae/evTrt27dP3cyd1cvo92q8h+rKPXQIq0aPRpuBvfWxvmzcPcjfvwObH3nEKfAhw5smTED+3m3of/dvEN2xIzrfOlK/VtZRbXlLVCbpcxTmLIe98IQjg3cOSUZCbuLlGJulmeSzkqpH1eXJ92Lfvv3IVTd+mYFtIQ0n2mx2ZOcXIStPMsHFyFHD+QVqulrWL7wlgiOa6e+LL3DbpdvOUXffJ7LtOJxu09utqW0fUt+hfHUTnxnYutL99g9vgbBGLbBRZTR8rarXbLOkR77KABw9ehTPPvtnXNK+EfwLspBXg4EPKUJvO3MGQW+9ZUwBth216czQLweAg2cdw8vSSq+V/uvXI/iVV5D93nvGFO/I9TfLvyU+3tQAi3dG6MCHVEWUJNcIqZp4+eWX4vrrh+mg+EcfzVPnicoUGgEJX9u37wAaNYrQ2zaP85hL5EwBiuxFaNIwGOnZRSpVN0huR9OmjdG8eTP1uyclDlurDP9FiIrqgqDGF2Fbhsr8h0ahU5co3faMLF+TigvzdIkTs3SJNZ1VKTcnB0UFNRP0kN+DZ/71Gfr3jdLBncyMbEdKz0SfyCZ4ae4mR5D0HLCp75+Q0lAmsxSUT0skSEAjIQE29Z3PfeEFZH34IQp+/WsUDh2KglGjkPvss8j85hvYW7TQgUn53nlq3X6bLpkxNKoYi7b44coujvP6rFHwN119rIVq0rVd7ViQUjslQu2NGkF92eGn7jmlXQ9bdjYCVqzQ84rVPtYHVb3+Xyg8KulhZiDkqWhoWBj+PuDvaNOojTp7gT3pezBn6xwgWy2ba8OQ0CEY2KSKB3zAOPRKioc1j0nkTtqMGESMAealS5FMR5qHBTDCHt5zFdC4gM9JqR9o1hGsCqlaINU75IZSbjCsN4wyLkGPBg0a6CCB/K0OM4igr1UybFy3XAU/zKCDNZnXNzNVhaxH2vS47bbbXCYp2REXF+e0XV9YpdYt779t6y7IPHkS+bv2oMeom5G7ZxuW3n+/DnZI+l4N56aloNuwUSg8cgzpKpPWIrQputw2GqssxcerwpbzIQKLklGQsUjdPRj1SdX9ol/BYvhl/0PN/0Dd4ex1TK9BUr1AgktSgmjnzp26zQY5NkLOP6lqJdOkNI+cg1Xh6ffi5MkTKLIF6TYlbOpgZOYVOTK/6q9kgPPUHZ+UQpDi6yGBNgQENdCNX/oCtx0AaYswv6hY31hn5PvjZJ6UvLAhWG0zPMTf59uWYsV2vwbO2y6yq3NSJfkOqmWs2/YLaYTjx0rbpvCFal2z1fehWL1n+Q4JqQ723F+exaWdmsCWl6kDIjUV+Mh95hn4p6Yi0GjE9Ic0P3yT6o/2Tezo3aYYa/b54901joyRVGcJnTwZWUlJerwq5DzYj27q2gB0bOwoCSbJeq2QJMfyiisuxy23jNb7/skn87Fq1doKq2xWxebNWxAZ2Vlfk8zrklm9pVB9JgWFdvTq3Bzr0qpf2kP/DlqSDrTYbfjlINCnVTaaBmXju+1FOJLXSE03XlRDzmQWICs7X5fqKJ8ykJ2dhzPVDvS4Nv3dr9Ahsh1ycvORmZmNzKwsnaR9sJzcHDRtVIy3vz43N355Axx5qOCXXpIfNd1Qb5DReG/RFZ63kSWnUo46fO5S0Zz3kbvvMM7GjcWZ+EeQU2jT062d2Eg1spx//EP9rhfrdkY8teeUH05k+eF4pg0ns4D2je1Iz7PhCyPA8dVWfzUfaNnQrn4X9O0CVu1V8zf7l6S9p3xzj2Syq+9z/h13wKY+54aXXoqG3brB/5dfUNS3r65C5Cunc2xI3u6n2zeRNO8Xf+w4XrX7Sm9U6/p/gaj0U5AfB7kwlmQe1PiQlkMwp+UctOrTCkcbHsWHWR8i8vJITIqZhHlXzTNeWRXRmDi5F6ZMd5FtNZ66O57oxzgyodZMqp6fYGR40zAjxhym+ikNi9U9z9T1iYg1pojYRBlXn3/8FKxePQX9pKTGc8/p82RGgpw73p4XFZyTF4Dq1g/sq35MJPMZGRmp/5qkmoGUSpAnilFRUcbUqjODGWaww7xWlSS5hsk8F0lIoEO/xkhqhp7uKXM91nWaw/J+cvPydMqRJyp5+ZAW+q8YOBBvv/OO/rFXCzolCRR5qrFazxmVQTl5/LC6UTyrU8b2nYgadj0O7UvFp3fdhY/vvBMn925H5DWxyN5/sGS53PBQ7F/2Exp7cSPlTL377H/Dv/BHFGQudYwLtQ+FOatRnPMtirO/gD1rJgJy/qZuNv4Ke1HN1JeWXnikZI3ZK478VshnKRkU83OVjIsE28zAR1W7q/TkeyFFxov8w5FdoDJQaruZOSrzom5gc1QuXBoplIxxUID0KOKnMsF+CAqPQF5+9evtiwt923mFRVieehpvLjuF2auzseaQH/ZlBuE/q3Lx5k9n8d7ywwgP8u22pdpAnl+YY9vbj+PN74/i7TWZePuXYry70Q/vrM3Gmz+ewHvL9utthzZoqDK0joytL1Xnmi1VlHU1ZYOUUHvxry+gf2Qz9V1Or9HAR47K4AV8/z0CFy6EOi1w48XF+NWljnT/oEK0aGCHn9q3sHvuQebXXxuvqrqjBc2QkWPHxW0cDfWb120J+kjgwbxmSJISIJdccjFuu+0WNGnSCAsXfoXvv/9Rf+bVdfToMbX+QHVNClZjjtJpoqR6S1Ex8gqK0LpJGNKOZOrqUtVh/i6Z+ya/NSlH/XFRuASr7WgQVIzLL8pFRIMQrDnaHEcyHJlUsfVYAA6c9becIdVzOktdF9TvYXpGRmkqKe2Rqa7PRUj3fZM/WJeSho17jiEkOBCZGVlOSaq4SHsmgcjDml1HsGn3aeNVtUOCDtOumIzs8CYI/ve/EdGxIyK6dtUlEiRjXnDTTcaSlZNSUgnzAt2mhyLGY9yrhzH++tlO0/+yyPn+Q7ZZ3LatrgojJSQ80bFpMS5uXYx2jYHgSm5n1KmN9BwberWW9oSKS1Jr586dfCJXXWfyHnwQuUV+KMwr1PuWLW2WeHHPVZG1+/zw7MIAfLy+9Hvz1TY/vPyNI3ArVX1qEtv0qFjlQQ+5MMoF0rhQmqldcTscvPggloxcgi9Hf4klPZbglSaedRdWodhEzMMYmLUUHJKR0C8Vk80n+uvjkBQ/A2mR0ei1OhVSSztN5YB7jQMW6NftQqrKrJ6fnRCRR9IWI2l1L0SXlv6ziMSEmVMxYMBUrFfny5K7mgGrpyB1tJw/zkESj7g8J+s/X9QPNBs0lcylBDckwynrbd68ub65lK5mq9JjS1nmdcrpr0rm9UovYwyXTebNnzV587Mk6zD/lh2WJDfQ0nhcbm6ebsOjsFClotLqFnIcyiYp/eKpS/7xD7SKi0PKd8nITD+B7LNndcpI2Y6hQ4Zi7/5UHDqwE1cMHoKsnbtL5hcE2/DLJx8gsEt3vQ7vFcMv8zn4F/6iAxwl5BjY1X7k70RR7jqVNuiUd/Z/QN4P8Mv4PewF242FfUOqT0lwo2nTprpuuiQ55+R4WzNpUpRazj/pTUdKIqWkpOjj7Q1PvxfSuK6/OkbyhOxEZqHODOvp6vAEqv8FqvkBEgBQw9JLQ7C/ym76KEN5oW9b1mdTdzdNwvzQPFyqtTiqBrRqALRqaEOrCKnG4Ntty3VD9k9vW30HmoT5o1m4H5qpG/qmIcVoqYZbNfBHq0aObYcE2NQh8m3QoybqdEuw+u9/U7+nUc3V97yGAx+vvaZLe/gZxfudqG2GDx+OTJX5qy4pYp+ZL11r2nUAzrxulw12lE1yve7aNQq33nqzLpkhgY9Fi5JxrBoldtauXYdu3brq4YCAwJJjW1K9RUp6FNt1yaEeHZtjzY7qlUyy7o8EPHIK/ZF6uECdnxLskbCH4zi0k6oJkYU4nOGHb3cGIz3X8X35abc/Fm8LKtc+Q0WktNP//Xk+bnjsE4x47FOM+F0Shj82Hyt35CInOx8ZZx3VS7IypYHVHF3yIiM9E9m5+Vi+Iwexk5IwImGeSnMxatJHePnt7401ey87Jw8vvPEZOrRviwzZZpakLJ10iQ/1HiTJ9luG5OCVL7Ygy1r0oQbpgMd3AdiAdnj9Hz8g98abgeBg3XtK3sMPI2v+fLnIGUvXIvX9KO7ZUw/6HfCugV8p7SfnlZAMp6tLh8TxAtS5tWqvH77YVJr2+qYQnhMp7ZH7t79hQuIBPDTjCLLfecdnXQFLtbxZy/3Vbx5wQ69iTIktxF9GFuC3g4rUb4FdV9H7YG3F2W5pnLlh375o1LgxQp59VldB8lRNXP/rm8qDHpLUCS+ZCPMmXlKPHj1U5sIPg22Dca3618HewfECH4idOBUpL1mqGaSlIgWzMcYs6dFPnuJLsCMWo8elIFUtuCu1F0ZPjEaKRD1k+V7RKutL9doALwJbA6ZiostoRzISnM4rR+kQGY95/6SxjItz8gLhi/qBl1xySUkVFgl6SPUD6dFAMqrSsGd1Wa9LToGPMqnsshUlT8nNobC+ruywcNxgOopQu0xqvnXcG7K//f/9bzQcMhxbV/6I/OzTyDt7Vqfczdsx6vIrMPKyy5GzNU1PK1A/jEHtWmBT8lcIjL4El/3rX3od3vOD3b87bP6WurCyvxLwKNiv/pYvRVGYvQpFOSvgn5Oo5mcYU6tHzikJcMhxk8ZK3TGDISZ5eiuBD/Mz8oYn3wvpNSbEvxBhwVLCRGWu1McqbToEqAyvZPpVXktn/KXkg3RU4FeUi7Bw3xRNvdC3HRJkQ4dmYYjpHo5ruwSiSbAUYc/EHX2DccfljTGmf3P9vny67aZNEOqX69h2i4aI6dkIQzsH4foo4MZudozpE4Y7rmiGMQNaO7atvh810WWuL67ZZcmN9LR/voKBUS1QmJNRo4GP7Lffhp/ans3azpAEI1RmK8NHbaAUFksxfjvSs3Lx+edfqrQAn332hUoLkJT0uU6ffvoZ5s2br9MnnyTh448/1W17fPjhx+rvJ1i27CcdaN27d5+eXpUqL9KDj1yTpD2PYJW5lXY0ioocGezS6i125OUX69SxdSOsS6t+0EOulRLwkOvfN9tt6NMqR/+WSWO25m+a8Fff1b7t7BjUuRgr9wfjSIYfbulVgFx17L7aLr1zeUZ+Xrbv2IV2jbPRpblKzbIQ1TwT/dqdVdcJaexX9lOSDVILVlKB2oa/+o70a5Oul+3cIlulPHRsVohPl1S917On//kBOnTpgIyz6TrQIgEOqUYjwRApiSmfY5YOfmQj/Uw6mgSm4/kPPG/LoqrMgMfukzZEtSjG/93eAXnvvo30tDRkbNiA3BdfhL2a1YCrw5bh+L2Whoe9Idd52Tc5qxoE23EkHfh4vR82Hy793T2VDYQHAcOii3H3gKKSFN2y9Fz0Nbv63S/y803pDiFBwPfXqp1V4q8sws29i9C5mR1tGqnsR8di/On6Qh34WL7bDztPqC+EC37btqHB4MHwMxr/D542DQ1GjZIvgx73hMfX/z1vIa5jR8S9ZeloQKbFvQX3XQ94wZfr8iHXR95KnRj6Jt4YNZk39vIkzeya8dRpH7XWHzkBM+OSMH2xMS6Mp/Zm2w3mE/su0UDqrmQsSFEZ4MgRiEtZgORdqeg12uvn+XQ+0aV8krC42lGIWCSa59T60tIhMr5ESoiYXJ2T9Zyv6gdKryVSlUBu7qRKi9xUyPC6dfKEq5uxVPXo65G6s5K/ZsDDnG7+dZdczfdW2fVYh+WffgJtCWroG0/j5rNswEOSt2Tfr5gxAxFXXY9tG39BcWEmCiTAoVLxplQUpexAYLNmCGjfHujQCmuTPkaDAVdjwL//XcWAh4M99Fco9L8SAQ3UD7NN3bWoG+biQpVZUTerNlsIbAEt1PobqiVLj6m96CSK87cCWf81plSPNDQomUepgy8ZMTPJsZdjKcdayJM8IeMtW7bUv129pdtLL/ff0++FnPcoyEHTcD+0bRKk/zYKC0DDYD918+ePcPU3TGWQpX0HyVxIrxkSDPQFbtsPrRoFIiLEprcn0/KyMxAc5I9Qtd3gAN9vu5O6gSzOTdelO6zbDlPbC1PbDVF5RHPbfn4qI5txBhe1a2e82jd8dc12RRp8nfGvRFwR1QL52ekoyM+rscBH4TXXIODbb+FvNDocdt99KJZrl4+EBUk7AuozKA7SvbXceOMNGHnDaNx882h1o36TTlKaY8yYW3DbbXG4/fZbMXbsGPz617fhjjvGqr+367+/+tUYPPjg/Xj00QcRGhpqrN1zq1atQa9ePXTwQarlSdDBPKZm9RYZl9JS+YV25BYUoUu7Zvh5R+kDGW/8tCcIP+3y09uTdPCsv27DIiLYKOVRJpnCg20Y1dOODs388PHGIFzZuRDL1L2XBI88IdfiO66LxGb1O3T46CkcPnIKJ09n40yGBKIlw+in1uWPIrufSv5q2A8FaliemJ/OzMXJM9n6dUeOnYLNXoAh3eU3xXuffbUc+zNykJOVq4McUlVIArPFaj+K1TYlFRWppD6CAnWsc9QyWcdPqIz6cXy8NNVYi++VDXgkDC1W1wnLB1BFElTu267Ybbrs+Dpc/ssXuNR2wGm6VDOxkgY//dX3367O0WKjt73KXNbejr4XOc7lri3s2HzIcc1NuKYYsd3teOr6IrRsAKSdsKFdo+rv67l2JN2Goxk2XNzGjn7GfltJUOfWSxzTk7f5YcPB8in/6Rdhk/u2G2/UpVGku2L/tWsdXQZ7wOvr/6V3ovuCx2CNe/hMp/uRlHQ/PDtbfEfyGu7IPMdVtQJySSu5eS+TJOMiUW7JvBxVF4YffvrJ8SIfiJwwGZgyBbrQtM7gToGrZhUiR8QBL72ElLgRiFT/ZHTBAiCadVvquVhMnKpOkX7ObXQkJ1jGjapPvuJ0Tl4gfFU/UHpykfYW5AZOWsaXa4ZUfZHriC9YS3aYzGFzuqvxiqZ5y/pa67Cfn/qxNzLfZtJtiEiAQ4ZlnmVY/laFBC8Gv/YaGl19PbZt34aC4lwUqoy9Xd3cqoOOQ8uWYd9nH2Fj0jw0GjIcg2bMqFbAo0TIaBT4Xwf/sMEoLjoJu9GQaUDYEAQ0vBeBjcYjMOJW+IeU9tBTlLcFAXaVobFXr8K2lBaSEkRS0kOeUMr5JSU4JAgiTzLlM5DMiJQAkaCITJPzTpaV0opV5cn3QrpsDgsNQiv/E+jYPAgtGgWrzL8/GoT46UxEuMr4S+kH4V+QjmNHDqO7j4KA3Hbpthuq7V7WIQAx0eq8CJBi1DWz7UaNGiE4KBCtAk5Xut+B6jty+PBBREdH63Ffqsk63WvVDfhbs17HwK4tkJeVrq4v+fq7VBMKfvMbhN5/vy7qnZOYKBdVY071zNtQjAc/LtSZkLxCG+58pwjHM4A3VgQj4VPpVtOul7nng0Kvh70hQdgTJ06iTZvW+hol167CQqne6MgYlVRvUdMLpLSHyoRLaY/2LSPw4xbv2kWSj+jf3wGTFzXGC4uK1e+MdNMbgA9X5+OKi8xSHo7PUW9V/U96H5JjLuPm/C7N/WBXU8KD7AgPtOOoF02aJNx3I1o1KMbJ4yd1AEeqNEjQpFhlQ4pt6otpC4TdFgS7n/pgJKnxYnuAupaHokv71ujSrhVaRYRhz/ZNeP7xO421eu7gkRNI/OArhAWF6JJnEmgpku3bpSFXaackQKdimzoHIOeBBEAcPT7h1BF8sGILdh86a6zNd2oq4CGkZMHDVxW5TRP6nsHjb/waf3ghBhP6nC6Z/pvLnavdhUh3ueo3tOBXv1IjnpX0kBIeksTVUcXYf8amjqm072FH41ApAWhX921A6nEbhnd3nPPns/3GM38p3eFOJ2Pe+gM2zFjmXy4Vr9ugv3PZb73laHfkySf18tLYqqe8u/5HIX5idzw3U9pjK8MoCdLRTEapjT1vxTlP0yU6pmBKXOmyU2R1TiU9lmKK+Rrr/JJpcT4JvEhpznfffRdfu2jzSabJvMqDHvJD4+LHRi7Q0p/3zrQ0DBkyBMtXr0bMNVXoqtatWCTOG1c6vH4qUsYY1RAkmQ2YRqqbBpULjRvhqMwio7NTomGMUj0WOWEJ1k9NKa32pNIYjNYlgKRkxuRxjipR1moq1WM9J+s/X9YPbNOmDVJTU/X6JNMvT+d9esMvN2dlkmOy87DcuEnmV57yO9rXKCxZpmyqKuvrHcOlgQ4d7JBkBDfkb9mAh/ytzvbldqVIbk0zjyN/wwbkrFiB7KVLEaR+DJu0bKRuKuWmzrdswVejMPAOBIQPh83fKCGl9qE48HoUhT+N4gb/UHc71yKwwQjHPHueDpCgYJ1jvIrkHJXjKb9HkiTYIdVdhARDpFSRfMbyWyXBELlGyPGtzrnnzfeiV88eupRBcMEptG4UgGYNHCUdpBFPOT7SpkUYsrFj22b06XOJDuKY77+6uG3HtpuqbV/fqynir2sLlXes0W33uaQ3zpw4jKC8Ey73O0BtO7g4A6mbN6Cvj7ctaqNO908//YT35vwXV3RtgdxMR4kPM8Psc9K4oPr+qi+tMaF6Vu5WmYIzAZgyLEBnxKSaRveWQXhjRRA6t1DT1H2jnB9j+vjh7TsDvB72xpo1P+vGUc0SInL9khKm6uKox83qLRL0UAcYhcXSC5AE+P3QvHEENu/xvJrLM1/a8N1OG5o3sOlAxcLNxfhxRyEaB2So7H2hDrToa6jaTrFUcVHbkhIQ9qIiPU1+jeQ6u+mQem9FBbp9HumKOd+LHxJ5/YwXH8PpI/vU91BKOwUhIDBEXbPD1XW5EZo1aYKWzZqidfOmaNW8Gdq0aI62LZur/Q3ET+v24NuV27FkSTL++ZeJCAkOMtbqGdmXx16Yiaat2iA3R+2TDnZIaxMBjiCLvwRZHIEWm5HgF6g+mzA0CAuFn1q2QX4GHp/5LaR9IF+pyYCHJwqvugr5d98Nv/37ES69wKn8nJPcXB3wkO6ki9u1013YVoX6imBUz2L1XTEmGNQlESN7FOvgyKcbfPMdF9IdbupxvwqT/BZIcjXPmmRdnpCSiyK7giY45PMW0ijzsOiicimvUxf9XQ+aPVu37RH8X0dp2GIPG/uv0vX/2qmYg3sdgYgSSzFl6HPoPmcvpDHrvd8/g0tl8p638Nhz3TFHpqk0p/tO6Nbn1m1D1KvGsnPuxAf3TlFrMO3BW3H3Qr3IMV+lqdfK+ndiojG+9/vRWPBY9avCyD3fn//8ZyQnJzsFPmRYpsk829q1a+0V3QBKPUPzJt6apPG3Xbt2Iz0zE2t/+QV33X6b8YqKyYXVJBdBIqod8t0zv3MSgJCLQDv1Qybff/m7efNmjBgxAmfP+vZphmz3+eefx+TJk/WTQqniItULnnjiCTytflDlGlMd5utl31xdq4T8lWuWZILlh8Fs2yFIvXbN6jUYNWqkHjetWLFCl06pzNixYyHd0N51113ltidJ3pNkCLLVdmW4JOgh71X+lnmNafv27V63dyINKC59+GGc/H4xLpa70gOOzJQ8f5Q1l9xStG+GzerGrdm1I3Gtr0p7GOwFO+Cf8yqKsr+Df0gvFIdNVgfZ0hVc9lvql38uinJW6ZIg9tC7gdCxxkzvyXEyS3pI5kEykHI+S4kOIb0ESSkP+dyl2KeUMvL2uK5atQrDhw+v1vdi37798FPvKSy8IfwD1fmqMi72wgKVYczF2TOn0SA8VH8n5T3KudmpUydHVQ0f4LZrd9uSwUrdsVN/x5u3aq23LZlIaesmXW331KkTaN60iT43q7ttb87NOduC0Le5+wybBC9OHDuCjo398ePXX2DZsmXGHNeuv/563DL2Tqzbl4HwhhJMdJ3p/+WEP+7t7pwTCFiyBKFTpiBjzRpjirPZK/3R5rP3ccP/XYIi9Xuxd8S9mDXhXfz1RtfvP/TRR2Fv1Qq5f/qTMcW15xfZ8OVm9RmpjyM00I7QYH/0bOuP9k39kJtvR7/mB/Tzfl3SwfE/nWEzh+USLddsK8k6n80uxg39WxpTKicBd2kXRKrPSDDWnCYlp6U3l6uvHoK5vxRjbF8//PPTFPSObo9A45ompYVy8gqwfdd+PHJT5b9R4limDY1D7Lhxpg0v3x6GWd/n6yot4y87qdarfpdUCpCgu8qVlv0rQeIAya3a/PHXRYXo1LgA3+9QPy9nbXjqescT/Nv6qmPmoS++/hHPTPsYLTv11kHosLAG+jsSGBikHwAI+a2W8zE3V6qiZCE7KwMn92/Gw3deh/vvulkv441/vTUXn6zcgRCEIjgsFKEhYQgODVHbVOPBQWr/gtTuqd9k+TSLC9W2C/RvxvHjp3FafbeyM9ORlZmBRt2icPugy/DHuy431lx15zrgYbKpPJwEPPyldIBUEx04EEXSZuPhw3qa35EjsDdvjuz33tPzKiNdtEpJjr/f7Cj5dDLLpkuc6J6H1e6FGfGqFbtt6NferkvfiV0nbOjS3PX+Z+YBv0sKRJsIO/4yqvISVSv2+OlriC+MG1iEQZ0qL4mSod7j79V7lIDGsyOLEOhffl8+2+SPL1P8cHu/IsR2K7/OgJ9+Qvjo0TrwYZJgU6b6HOzq3qUsb67/33zzDfpbu+WVkhaPAa9KFRRz+FXgMetfs3pKybJdMLPjvfgAd2LO3qm4tux6ZFyX6piOqPdHY8ErLtYl5DVDn4PzIy/LOqtJSnz85S9/QWyso5kLM+Ah94qV3u3qm3Pjxtx6Uy78VIZh1/69Hgc8iOj8ITfkkqpLitrJ03a54Ei9ZSl+J4EQ6Wlj0aJFxlLVY71Glb1OybjcRMnTfum14+DBgzq6LNVt1v2yAd27d6vw9RWRp2BllV2XJDPQYU1mAMScb13eWxLw+GbCBJz4/iv0VzeODQ+chvxESrNn2R2aI6t9cz0s0xruP4n+QYE4/t1X+OaRR/RrfcUW2BXF4X+Cf9h16iayqTHVIvT/VEa0i7q5baZ+1/NVPrT6NyZmME9uUtu3b18S8DBJpkLOYznffNFwblW+Fx06tEeTRhEoUhnu9JNHceb4IeRmp+sSAFGRnXW7EtKTjNzEyP7I+SmZYl/gtmt321KdrXu3rmjbtjUyzpzCoX1pOLQ3DaePH0V4WAj6XtJbn4c1sW1fXbM9IUFG6Xo7T2VMfV3SQ7quLRw6VAc8hBT3lqfR1fXUCDvuUPf9kuE8mQUcS3eU9pCnsxGBOWjTLAKtmjdGu5ZN0KF1E3Ru1xSRFzVHdMdm6NmpBS7p0gp9o1qhf7fW6BPVEgEqo75xT4Zuq8UbmzZt1m15mAEPOQfkN9L8HRBm9Ra5PktgIiTIkYLVcPOIEHWx9UfaIc/ql7RUGbHMfBvaNLLhqq4BuCo6AIMuylDXSvXbI4EN47fI+a/jd0lKssjfzzYU46rOBbi1rx2px+xIO1aM382z6R6RvHHj8CG4+tJO8LPnICgkHEGh4ereoCEaNGyACJUaNgxHQ3Wv0EBl8ho0iECYGva35aFHpwjcd6fn3bVazZ67GIVBDZFh90cOgpETGIq8oAbIswchJz8QeUWByC8K0n9zCtW0wgDk+YUgtG0bNOl0kUod0LRzR/Xb5Ydv1la/Ofu6EvAQ0jhq5sKFyHn5ZdhVni7gu+8Q/PrrCJw/H37HjqHgttuQoa5TngQ8XHnPaNwz5ZAffjlYmuXcd9qmG681zd/kmyCFaBFux+DOxT5Jsi5PNAwG+ncoxvFMG95Z44+CMl3Tyr4v2iLtWQGXq+VcKbzySmSqe+KCUaN0ex75992HzG+/dRnwcKXK1/9O9+PV0Qsw8xtjfPfOMgEJ07WYqn6r9u4djq91tRRriQ4vXfoMvtfrMpNvAh7CWuLDGvAQlQY95EbSfDpa2q1Tpp7WqmkTjLxumLEkEdU31a0fLk8xv/jiC/0k/qWXXkK/fv10CYrXXntNByCWL1/u85Ilwho8kBty2b4UHZbuF/v27YsrrhgguRNER3bRXebqJ0uWKi+e3sNXdLNvvgcpSSF/dakOfTNZGuxwl1wFU9yRm+LkRx7RQYyr1E14kwMndYBDBzw6t8VTecV4Sv0A53ZqWzK9yb7juDo4TL1mCZbIU1K1Dl+x+7VBUfhz6tg0UDfzji5j5TjphEDYg9Sx949QN5At1d/qNb5k/YGX7ch4ybZUks9TSnq0atVKly7yFU+/FzfuuxGNtzXW6YHTD6BFi+ZY0OAL9Mnuje6no9HhUGmvZ+PGjdPfBbkBkGoPkiRj7AsSbNzbYA8+CH1fbf9zZDZJ109ZTTWx7aT0JOTb8/W2Zb/bt78IHTu0R+tWLfW2v8r8CmeKztT4frvatqkmt91AbVu22aNbN/Ts2R2dVaapmbpnMlm3LeeTr7Zd3Wu2J2655RYMHTYcC39cr69pvhR2//0oVsfMbg1QBgSgWI03VL8f1SGlNhKuteNP18t13o7TWXbsPVmMPScKEdc3QAcTWjQKQXNJjUPQslEoWsrfxvI3FC3UcIOwQOw+ko4vV+5GeGARHh7VGdf1sfRgVQm5Tm3duh0XX9yr5LdArlWOxkUlYCs9ywBPLgzCDzv99G9BsL80/CuN8PojOMgPQYF+6Nm5FZZu8Lz70BCVqZaqVscz7Fi2NRN92+brbZtBjbJ/HcOOvxm5wMpdBRjURb1PlTd96Co7Wja04/177bgqyvvM+otPPoS8U7sQHBygr9nh4aFoGB6Ghg3CEaEyJw0bqGlqemhYKEJCAnH24Cb8+8U/6t9Gb8mxvWpAH7QuPImWficRnLEdeXtXYdt3H6EozK5L/7kKuNjD1Of07QfI2/8LgnOOok24PzoFh+Du6z0rXWMlvXE0HDAAoY8/jrzTGXUm4FFCfcb5DzyAdHV/lLl4sQ4yZs2di/TUVGS/+SbszSyN+leTZP6lFMaWo/7438/+elhKXvlSVAs77r2iqCTd1b8Yv7q0yKMky1pfK+vy1J2XFelSLqv22PCXxf74cJ0/vtjsrz/v15Y59vMuvYzxAheKBg5E9gcfIPOHH5Dzz3/qEmzeqOr1v9P9E4HnjNIX1w7HnesW4Juy9U32vIUpuvENCX58j2cu3YZdZS9BS7/GB5eOxjDz8t1pGEbjOTg1G9KpC7qvKzPNx8zAhzXgIXz7a0VE9UZ16ofLzfvPP/+M+fPn65sOafn/5ptLi6X+3//9n27MVIIN//3vf/XyMi7Les0IFLiiAwjqJlMyvrI/sr3CwgKsWr1a1yGWRpRknlSLkCDM0aNHdU9UuXnlu1t1pVitT96zGaww34d1XKaUBDyMv26XNVKR1GP30FJ1I7VX/UiODAlDi31HSwIb+ZEd8GheEW7qfSliu/bEI+omv6Bz+5L5LfYcUK8JxdkVy/Q6qsp8SikBLjmWEmDKzQ9Fht8TyC1sq6eZSeZJo3GQnl38m6DYz/sbSCtplFRKdkgVJ8k0mO9FkgQ85IZalpEbW3Oa/JXzoErnmuLN9yLMLwwPNnkQGyM3IrF1op72m0a/0ePvX/Q+/G2lT7ekPZLH1ecg3VjK+5WqO3IuSpWwqr5X05qcNZh4ZCJ6h/RG04Cm+CT9E2OOg6+3/eDhB/HA4QdQYJcyzeU9cfQJjDs4DqeKTtXoflemrmxbAjG+2HZ1rtlCXX2MIfdiYmJw1bXD8MnXyxEe0QShoeEqz+Sbp7ShEyeiQP1OFLd20aOOum5mffEFGgwZYkyouuHdinB7j/26C80tB4vQt00u0nMKkKcb2HS0naEuJTqTIslut+FUeg6+Wb8fH32zDf4owB1Xd8AlnRoba/Tcjh070bVrlL5eybVePmsdYPCX6iQBatiGE5k29L0oCMdzQ3EyuA92nw5GqFHSQ4IfIYF+6NK2MdKzC3FYiqx4QJ4wd2hcjOVbTyGnwIadJwNLghpl/+rGty1/E78twm/6F5WcHXF9bVg4wYZOVcwLS4mnl58cj52blqrzR+1baCjCJeghQQeVZDgsNAQhat6uzUvx/OPj0LiRZ0+7y5JjnPh8AubN/Avmz3oOC/77Er569xXcMPQKBAVIrzmuAy5S3Wb4VYORPOevWPTGE0h69WF89NLduGtEb2PNHlAnUchTT+nGeP1SUxH05psI73spGvz4XY0GPGSN0vSIuWZpNNYclnNbkjCXM9nV8ci9fCAKxoxBzrDhyG/SXM83l68K+R5ZSe8wUmWkZ6si3HFZkR5Wp1mNen+tHxLmBXqUZNmqahAMPD2iEFd0tONYhg3fpvrhi81+2HLEpqu9PD6sCJd3rMbBrET1rv/XYuocs4FgGe6O54YaDY2aVVGkzZHnhhqNjw7FgtGv4n4Jbqx7DkP1NJWk+Q6nXls64f5Xn8G2e435Kk1Zqtb/vfM0s6FUX5JghzXgIRj0ICK3PO7z2yA3cM899xzee+89zJ07V9/ISzUSKc4dZWmMSZ7ASgPIUvJCSo7NmTMHH3/8sW7nQzLP3vDk99IsydFA3dh8s/Q7NG3SRHeXKxnxkydP4tChQ9i3bx92796NnWm7kZPj6IGkMpLJLptBkZss86912Gy/w/p+zWUkybrkfXqbIT+0ciWaNwhFs5NnIQ8QJOVFdcIjOfkY1bM3HlWfwx+TkjC0S1dMUncweV06lizX7ORpNFU39IdXrVJj3pH3KZ+VJDm25nBJgCPfH7n5DfWwlAyUgIckFB1EQMgA5NkHI7/A0bCs7Ls35PjI9iXgIZkFyTRKJlJ+9M33In8bN26sf/RkWJIZ8DCDI+awtzz9XqhsDDoGdUSHwA5oEeB4GtzQr6EelxRuC9fTTFLc/aGHHsKBAwdwxRVX6BuYU6dO4ccff9TvtarW5q5FTHgMRjUYhTsi7sATzZ8w5pTy5bZfafUKegQ5945zzZ5rkFmcqYefafkMBoUN0sOipvbbE/Vt295es0vo65D6o/7Jd8rs1rRsdbGuXbtixfptaNKiNZq2aIVglWGV61d1hTz5pH7KWXDTTZAOMySzII0bmkmKjUtpj5z//AfhI4wGkatIrq6twnMx6y47ru9RhP7ti3DsbB72Hc9Sf/NxNrsA2fnqWqmulweOZ+Lzn3bim5/3oGOzIPxaZQS6tSstLeStjRulAV1Hxtm8zjsCDY4k2jexI7JJFtKOF6FFRDC2nQzHK0uDsOdUgKOKi5T4UOnyHu2x9BfPS3tc38OOzcfDMCWmAGsOBOGlb0NxNscR3DCDHfJXBzx0ex5+2HrUrh8CdLM8cJZMqnSHWh2X9emB2H6dsH/3z7ph0rCwUF3KQoIPYeqckrY2Du/fgH4dG2HY1VWrWlERf3VeS2DDXcAlKFhSBY/kPRCk7oOCZ8yAvWlTnYrbtkV4+gn8/q3f4LGeR2ushEd+oQ2PfhKITYcc55OUppBpeniVP+asdnynpUTRI2o5KXUilqhM+l+/dnywkz8PxDtrAnRava/qWUXZQ2nL4vs053VIgMAHlw2PNFM/s+0b2z1Ksmx1SDWX+wcV4uWbC/DI1YW4b2CRbofk+RsKEd2i5gIeJo+v/666lL12Kvaa02R4r1H1RIIh3buo6Wb1FkdKut94tVNVFaOainX9Mmx53VRZoMy0ku3WMAY9iMgleUouyVNyAzdt2jRdZFuCGRJMMP8+9dRTxlKlJk2apDOnEhiR9jakUUHJFD/zzDNe3fB7ctsgN3IBAYHYd+gwevXogR49euptSJUX2e4ll1yCAQMG6DYhDh85hKs8fJroLsNszQRYAxvWUh7WJMdBjoE86ZUGolu29Ly49C2ffIL0lm3wY2QnFIeH42xUFzyTk4cB3XsiYe5cxzZVmjJ/PqI7dcGL+QU4G9kZxeoG88fOHbDf5o+bP/7YWJtn5NhJMgM1ZlBBkuyLGeAwAyDmNFvxHgQEtkR2YRRyMFq/1tvgg5xnsqyZJOAh65cn9RJckfVJkvdirt8a8DCnWdchyVPefC8ebPogrg1zXVP1ooCL8ErrV4yxUnKu3nPPPToDfOONN+rvh3yHli5dqvezKm5seCMWZC7AHQfuwNtn3nZbAsNX2w73C4e1FIsYEzEGAeqfCLOFIUC6qbSoif32VH3ZtrfXbCu5DvkHBuLQybP4v3vvwxuz/oPXZ87CnLffwciRzg09SzsLjZo0R2iY+pz9HV1DV0fIiy+iuFMn5N/peNIodemHdCnGzpN++Hm/TWdGpOi5kEYWc59/HuG3367Hq0JfQ4oK0byByvRdY4c0DirtZkiS3jkycwqxfsdxfPB1CjbvPITB3Zvg9qs6opO3DViUsX//AbRu3UpntOVzzy30w7zNodh3NsDRi5dKcizlyfqr3xfj4KkC7D9djCPpxdh+xI7fvluM71XGVEp6SJJ2RXYfycSZTM+6mOh7kR1XqeP67d5GGNg1DBOu8VfbCcF/lgdAejOR9+SvjoWjnQ/H+HNf5OOhq2smd/rk7x7A0c0/4EzGYUjVHgk2SMBDhjOzjmPv2sV4+bk/Gkv7Voi0XxEQYAm4SNWW0oCL3C9I7y3VIUEPkbVwIdJ37ULGli3Ie/RRhGaeQXjyQj2vpvRsbcd3O6TqlDFByS+y6ZIb6TlSwsPxmfZSy32vq1EBh87aEBbkeEHrCDvuH1iokycNeboz4aoi3daFBAAua1/6Zm7oVay7jTbJdmrKjRcX6RIYniRZ1hcahQKXtLVjoDp20gBrTZdmEdW5/pe1dIqlFIaU3tCRivMfgx5E5JY39QPlaeWmTZt05vZf//qXzmjKU8urrrpKt5tRlmRS7733Xp3RlyLe06dP10/l5YZfGvjzlFQFWbNmDVavXq1fJ+9Xkjks0zdv2YqtO3Zi2NChutSJ3PTK+5SSAdJOkWR69+/fj2U//ojhMTHGmitXqDLQHpFMgUrW3z0z4CHHSZ6oSuZd6vWfOXtaHQfPi/I2aNsWYxYsQOrZLCzt0gH/VRn/1t164PeffKKDHSYZfubzzxHaJQrvqn1f3fdipKZn69fKOjwlx85VkmNoBi/kr+yXHGPJuMmwvegUwgL3IyOnLbLsvy55nXWdnnD1OrMHHylBJNsyAxtmoMNcTt6b+Vorc76nPP1eXB12NboHdzfGnDXxVxmpCNcZNzkvxowZo3tUkvYTJHgo1a+WLFmiz1dvSYBlTec1+H2z3+Pn3J8RfzjemFOer7dterTpowjxCzHGXKupbXuivmy7qnW6pSvUkJAwZBb6470vf8QbHy7C9HeS8NLr72L4yNEYNWqUsSQQGBSse76Sp+Xy3qsjODERdpXRzB8/3pgCXNzGjrsHFOHSdsW4qLFjeFh0acar6PLLkTdhAsLU70dVyDddummVjL0kCXoEBfjpLoV37D+OhT9thX9RDu6J6Yxbr+yINk19k5HYsGETpD0pKeEj6ZdDwdh32g8f/xKEZxcFYcbP7fDxoYF4+ONAhAUE44jKhG4+UITlOwqw50QRLu/khxv7+CMkSEp6OLpCHtqvE37YcMjYQuX6tC3E2L75CA6Q3jKAf/8auEytd9x7NizeYinpodInPxdhQIcitKherMctCfK89s/n8N38WcjJzlK/Feo3Q/1eSOO4Sz75F/79yvMICPBN1amygkNC9W+io1STBFxCSwIuMs3PPwAh1cxA2g4e1O3RFHXtakwBio3GeaVL0poUFGBHL/U9Wn+g9B5g40GbntarTTE2H3Z8b8PVT2dIoMrk7vBHP/V9M0kAZMYyf52kekZVSWmWdo0cvbRUVLJFggS1QdrJkVJk1iTT6ouqXv/LunaqpRRGRY2MuioxUocx6EFELnlbP1CCDJLJlKeCUnpCqq1Ipvd3v/udsUR5t912m86oyusWqMy3PPGU10iXsZ6S11588cVOqU+fPrj00ktx2WWX4XJ1gzxk8CDcMnpUSWOWksE1M8Vyc7dt+3b8+NNPuOnGG/V8T0nARY7Rli1bdLskkiTjIsGfjRs36rZMpL0QuWUoG/AwSekEeT8/LPtBP3nqFt3NmOM5M/CxtUk4Wlx1NR4vE/AwybSn5s9H8yFXY8updK8DHkLee9nkeELoeFIpSfZDbuqlyklISLC6ST+FIP/9SM/tilz7FWqZIP0aSdZ1esK6rLlt+SvHUIZlu7J9s3i+voE1tmUua77e5GqaO958L1448QI+y/jMGHO2K38XfnXgV8aYa9ItqNx0XHvttUhLS9NBsa+++koHE72xv2C/ztT2D+2PJ5s/iV9yfzHmuOerbZtkf4vsngUJfb1tb5zP265OnW65NgSr72uTZi3RrlMkOnfrhcjuvdGmYxTmfvUjrh91Ix588EH07dsP6dn5CFDfLZs6p6oj6K23YEtPR570aehCxO5t6Lze7FLAWeE116Dg9tsROmGCMcUL6lohDYTqEh4qFRQUYeOOQ/ji+01o28gPk2/vjRuuaI/GUgbfR7KystVnuw9ff70E8+bNxyefJOH4xiQ0zViNzLOncCy9QPdocSg9AIfPFMMfhbiySxFOZRXrkh+Ng/PRN/wXzPx0JV6btxL//mQV/vXJSqxO2YcNaSeMrXimcUgxruhQoD4/x/g1Kk/+v/tsOJpehLveKsD2o3bkFdrwxnc5uG+wY5maEt25PX59/VX4dun7yMiSjhKy8MNPcxF37UBc0i3SWMr3pKthyYI7gvTFJQEXM3AvveNId7rVUaTuP9RNBoL/8x89Lt3DBs2Zo4cLq9koryeujizCj7scpTjE2v027Dzuh72nbHrYdE1Ukcr429C7bWlQom0juy6lIUlKjdQXUqpFGhe1JplWH1Tn+n+hsK1du9YeHR1tjNY8fTExyA0oEdUO+e6Z3zkJSkhXTu3atYN8/+WvZNZHjBihq6dUhbTJsXDhQt01qGR2JQAgDfVJ2x0VkRIW48eP11VMJIMqJT86deqEJ5980ljCe2am18zMWpOQDLIEZaTh0i3bU+GvDstVV3rfQN7VV1+tu740ixXKfsu2zYy2uPPOO3WPMdbMt/W9SBWbNWvXoEvnLmjmw1bSa5rjZtFxg2hNcmwdf1UGV2dyi9W++qtMVZDeZ/MYWJMcG/N4eKJ0G44SGmaSaeb8ssxjbibZrvWvOxLM87Qv/LLuPHAnrgq/Cg81eciYUmpT3ibcsPcG7IveZ0xxTxr5lfZm5DsqPdHExcXpv56acWoGkjKSdNBjZfZKjGs8Dvc0vseYW7GqbPvJo09ibsZc3NzwZjzW7DFd0kR6sNkbvReN/Bph6omp+N/Z/+HK0CvxaLNH0TPY8fSzrOrud3WcD9v25tycsy0IfZtXHHRyfIfUd9ooHSXf79zsLJw6fhRnTh5Fj05tsffoKYQ3bonmrdvq6i0VfXfELyf8cW9352o6AUuWIPzXv0aB2q88S1Dcrq6hxR076mG/nTvRsH9/PZytMooFt9yih23HjsHv5Ek9LAIWLULwrFnI/81vkPunPxlTK3bsTA7eSU7F9YO6YVXKARw5eQbD+lyEQb1cNKDqQ+b1yWRei4RcsU5nq+uRGpJGRx+YW4gR3QLxyhJ5OmnH67/KQ+dmcp2zXN/kj3p5SFAAGlS3kQ3DqSzg5WR1fTpsw+PD7LimlrIH199yJ9rH3ImgoFBs+2IWvv3iI2NOzXh11kdYXdQMzRo0RXCQtF2jjp/6LKT0Zn5+Ic7k5+Hqhnl44LaqN5zrrzKgDYYOlW7sdHs0NvU9tWVkoHDQIGR9+aVkgowlfUsCVrNX+eHBK4vwncrQJ23wx3OjCvD26gDcM8BRjWTmT/6Iv7IYn6h5UrVE2veQU+jv3wTgj8MKS/56a/yHjvNQqnT4Sla+Dem5jnVK+xjVsfGQn1qfMWKQajaXtHX+bp4PvLn+f/PNN+hvXE8vZLaqBj1WH1iNF1a/gMbtGqNhcEMcOnUIFwdcjOevft5YwjXrRV9uNomodsh3z/zOeRL0MOsGSvTYE9J2w3333Yfu3btjx44dGDZsmK6+4onvvvsOb7zxhn6tlJCYMWMG2rRpY8z1nuzn+vXrdWbaVPbmXG5u0jOzEREehj59LjGmekeOqVStMVm3YQ5LY5rSaKq8J/P4yzy5cZWSJlKHX9oSkYDJ+ciRUXIOeJjMm3PzWMhfSeaxMI9HVcn6rcmc5o65fWuqTNkbC2++FzfsuwGbcjfh4aYPo2tQV92uhfSk8k3WN9iYuxELMxfiTPczxtIVkyc4X3/9NYaqm2gJonnrWOEx7CvYh/aB7dEqwLvMu7fbPlRYWty+uX9zBNmC9LTWAa1VBs4PRwqPQJ0xen5T/6YIsbk/96u739VR17ftzbnpSdCjLPkuFRUVIjszExlnT+tqB1K1JaJxE4Q3jHBkFCvhKugROHcuwsaP10EOq6LBg5H1iaNnoaBZsxCofqPkabmf+j2RbjRF8Esv6SoxVja1v/njxiHn1VeNKRU7cTYHr36yAc0ignFdv3boG+W77qx9Ze4vxVi82R9bDgMvx0nXsMaMeur0mXT0v3IY1FUZa5cvQeNGVW8s1hOHjpzAxwu+U/cBxbD5SdBdAvPqfsHmp/9KWzW3jRiA1s2r9z78162D9OAS8PPPsEdE6EBf7jPPwN6war3ReELa6/gm1YYRPYp1zy1zVvnjmq523ZbHpe0d192Ve2xo3sCGPSdtiOlWel2QAElcnyJdrUUeBgmpbiZt7HjiL4sCcPBs5b+rVSHtY0jDoOTgzfWfQQ+HSoMecv9YqH70pBijtOwsN4l7zuzBLYtuxphhY9BR/Wvj3wZp6t/8XfPR+XhnvDHqDePV5VlviKt7w0tEnpPvnvmd8zToIfUD5ebb094AJBN/8OBBNGrUSGf2vSElL6SUhwQ7zDYa6gOprmO97llJUEaqY9RHZYMPngQYfMWX23Z1Y+Hp9+L1069jbc5aBKl/fUL66IZNv836Fh+f/RjFtmI9/V9t/mUsXTm5mTFvbGobt137Ktu2N+dmVYIeQr5LUvqjwCj6L9csqdriaQOmroIenrCp3wIpDSIlOyTgIe14+NLhU1lo07SaXTXUsPfW2OCvDvEd/d0HcuuTY8dPysUaLZs3NabUIwUFun0P2b/6TKpiSamRmiDtj9Tvo+cdb67/DHo4VBp1kCi/owhzaTHmiV8+ioBeAUjNScWO0zvQpWEXfHf8OzRp0QRLCpZgxW7P6+MTUd0kN9xy8fSGVO2Q1p69DXgIacRUqrXUp4CHkP2R1vpdpfoa8BCSIbKm2lST2/bmeyHVWt5q+xZeb/u6DniI68Kv0+Mz28z0KuAhzlXmW3Dbtc/bbVflml0Z+f5IgEMafgwLb6D/SgkPX3+vyrI3b47MJUuQsXGjzwMeoq4HPMRvLrdfMAEP0bJFs/oZ8BCBjuoz9Z2UDpGmcGoiMeBRsZq4/tc3lQY9zG60zKLIJ7NOIC03DYXHC9E/vT/6h/dHs+BmGFQwCK0Ot8Kx4GNYddTznheIqO6SaLGnpTyILhT8XlBdVdG5KaUuqpo2nAwoSa7mu0tERFQ7eG9Sscqrt6gkjVpJwENa996fvg+jv7kR9obFuLflvejUuBOu6XAN5mycgz2ZezAnaw6eav4UJved7FhBGazeQudc2gzExAMzl0xAldoG9/T1yQmIGDNbD46bl47EWD14znhbvYWIyhchJaoreG4SEV2YvLn+S/UW8iDoIUUYzcySBD2kXufw74ZjjZ+j8b5rAq/Bs32fxTU/XgMEA6EFofjs8s8wsInrSJPboIdkJPtNAaaux5IJRlayupnTEmmYEdMPU1YboxYDrNurjM/eD/mMJbCgjZuHdIkuVPRZefM5Gueleero82XEYtevd1pvMhIiXkL0+iXQp5e323RaVs5fPcGxripi0IPIe8xYUl3Fc5OI6MLE67/3Kg16SCZJ+jP3V3/NwMeKE8tx5447cXjfYXQK6oRrWlyDOfvnwBZqQ0yDGMy7ap7x6vIqDHrEp6IXUhBtZu68ySh6qjrrrIn3Q1WWNiMG/ab0wrz0RJiFKJITEoBENV7RZ+VuXrnpZQIXMi6rn5ha+Xkg6+qXisnme/Pq/ZQJclT0Wi+UDXq8+eabaNGihe45RP5K7yFO30kiIiIiIqLzXKVBD2nPQ6q4SGZIAh9mw3Df7vgWdxfcjfQD6bAX2dEush1uan0T/hL4F8cL3ag46KEydpNT0W/B6PJP62W45In7AEyVjCjKzjczmZJpnI7oJaWZ4RKVrTNSMrpjkGKWANHLJCFu/UwgvrS0iFclRKgGVFT6wblkz4DHHwd+aIa4XlMwZfY4zFsfjZfMc8CxiIP13NAT5FxYgNGWoIpmLOdYn2OSrr7SxXx9NKarc6ik/MmAx/E4/oF/uDt3ym1XJsUgHjMdyyUnICZ1YrXPt8pKekijedYuXs8XR48eNYaI6odWrbzrUpaIiIiI3Ks06CFdk0m/tZJZkmQGPbZt24buPbpjlW0VctW/LuqfdF8r3U5WpNKgh8r47UqIwILRZTORlsxnybKl07uoTOL01F7A6EQkxqrMakwqJpbN1AoXry33JF6GdQBlIlIdE2uu5AlVTcln5CKwJcp9nlPQy2xXw93n6GJ6sjoXde0Zs9qMKLs+qWLzUjR0XMy6Teu63G1TuJon6zSCf/Ie9PfB5Y56rr6U9LjiiiuMIQcJelR0DSM6n8h3k0EPIiIiIt+pNOgRKEEPRXpxObB/v+6OUoIeYt++fbqLSenHXZJM90XQoyTDaGYidSGL0nYVHMbpag1IiEHqxCWInp4ATIzGS9OjsUSqH8hfV7lE67rdrNORL5aqE6udn8pXlHGl2lXZZ+HqfDKXdRp3lOyxtApSwumzN9sOkeBH2eot5vq8CnpUtt1dRikTCby5KbXkpbJBj08//RRt2rRBly5d9F/pQrWul/TYvXs3gx5Ur8l3k6i+Y2CPiIhqU+VBj6Ag3TeyZJb++c9/YsiQIQhS03JycrBy5UrExMQgMjISeXl58A8IRFBggOOFbngU9NCjMZiOOKQklclMOpYuoZeLngy8JCU7RmCxZBDV6AJIiQ9jIStXGVRjlhMjk8ugR10lQQNrextlWD+rsp+bu8+x0s/XqO5StnqM+Tqvgh4WbuYlS0BvdBySFrgJ4HmJQQ+iuo8lPai+k2s2z3EiIqpNlZZll4CHWaWlc+fOGDRoEH7++WddAuSiiy5CREQjrFu3DkePn8APP/3keJEPRE6YDEwxSmJERqPX6imYnqxnOYkcEQe89BJS4kaoDGMkZHTBAiC6i7GAOxWsU2duxwDz0ueh15R4zEgzJovVqdhlDNK5FIuJU9Up0i9BfVqlpCHTkvHqflYSjEiwrD0tFSkDolHZqeWWl+8ndnQvTBkzBb1GVz/gQUREREREdCGqPOghVVmM6iyNGjXCjz/+qKu4yBPX4OBgfLv0W136Y/nq1Yi5ZqhezjdikThvXOnw+qlIGROBiAgjxcyAjkVERqvMJBA3wvGMXEZnp0TDGK2Au3U6qh1gnlQnkPegMp5mxjpyAiaPm40xatkYp0gInQuRE5Zg/dQU/XmYn+EYjFafmp5Z+lm9f1Iv77XIEYhLGVN6fkiDtjNdlNTwRFXOndjRGKf+MeZBdG6cePPf2H51H2wb2N2jJMvKa4iIiIio7qi0eosENsySHtZUVFSEXbt2Iz0zE2t/+QV33X6b8YqKua3eQkQ1qjrVW+76zf8ZQ87ef+9dY6h2sHoL1SYJYrS86zewVVJt02QvLMCx995Htx82GFO8x+otdC5t3boVO3bs0Pd4npDfjK5du6JHjx7GlMqxegsREdW2SqMOkkmyBjus/IKDsWv/Xo8DHkRE3//wA15++R8oKCg0pkANF+Dlf7yiq84R1RX2/Dwd8ChI3+hRsgUE6tcQna8k4NGzZ0/06dPHoyTLymuIiIjqskqDHtJgqaTs7GxkZWXpJD20yLRWTZtg5HXDjCWJqD6TUh3WVFVbt2zFLxs24NVpr+rAhwQ8Xnnln/jll1+wbv16Y6k6YOc0DB48DTuN0TpnUXxJMDp+kRqv6+/XWzW1P9VYr39Ec2OolKtpROcrKeEhD7vkns+TJMt6WiqEiIjoXGH9EiJyS6q1mFVbzGF3VV08NX78A7jyysHYsGEj/vnqP/Hyy69g0+bNuOqqq3D/ffcZS51nfJFBt66j0vUtQvyoTXh1hx32Ha9i0/Nllq2pgMEFzD+iBZrc9RwaDL3DmAI9LNNkXp226zXExr7GRrjrupr6nKqx3pCQEGOolKtpREREdRmDHkRUq+TJ4IPx8Rg0aCA2btyElC0puPLKIRj/wG9L2hw570RNwvLlkxBljFaJN+vYuR2b0BvdZGFfbJsqVZR+HDkbv0Vov+E62BE+5HY9nLtlmZ5Xb/gi421dR10LuNS191OHSXDjkksuQadOnYwp0MMyjYEPIiI6nzDoQUQVclWtpbqlPaQ4dGZGpjEGZGScVdNKGzmuSTunDS5tp0hKQ5QtFeE0vhUvDzbbNBqMaSULLUK8uQ6V4t8yXmO8dlq8TI9XS1WwrJ6nmNsr2e5OTLv7MaxY8Ri6quUHl27UoNbXVc3HLIySdV4ah0ut63P1elm3sf2S/XD5Xstw9Tpjf0rel17GMc/p2DptJx7xxnGMX6TeX8lw+fkl061cvo/yyn22emqZ4/+9nogFer+NaS53vrysnz5B9povdbAjrP8o5Kz/Gpnf/8+YW090eRjJyQ9XvWtu4Yt10DmXm5uLI0eOoG3btjrY0aFDBz187NgxPY+IiOh8waAHEXnNGgDxltmGh1mlZfDgQbrEh9nGR41Smee7H+uNhXY77Cot7L0VFTbBt2ITerzjWHbHq8BjdxtBicGjoFaip0uaae2te8Vj2HqLTJ+JkZUt61IUJr3zKgYNehU71PLLJ5UtwzESM9WbMefb5w6F8zPXsq/fgfiuW/G0sX37jrGYq/dDcXqvZUlwxdXrHNvHYy+rJSTAMhdjdyyHvM2oSctL9tO+sLdaxIgmmMdx4XjMGnU3YA6b1XIsx9mxjDUI4+59lOHys3Vz/Ev2WyXr+/CEzblBbzXB+Fv7dr0Wi8aNGzuSlF4oW4rBaTwV02ONZRvH4rWShZIxyVyHSpPeNV5jvPa1STJ9kqPbdnfL6nmKub2S7e7Ca/FPYs2aJ3GpWj62dKMOerlJmFTyvtQ6HRty3jfz/bp6TzKtwuUcybHeSt6PcLU+Y79LltfLOOa5f5+l+zUpWW23ZLj8/JLpVi7fR3nlzgE9tczn9JOeiMXljkfl9u3bhwMHDuhgx0UXXYRDhw5hz549xlwiIqLzA4MeRFRrpNvcV/75aknAQ6q0PPTggyVtfExLTDSWrCFR3dBbl5BwZKpHznSV2bcYNBajjZhD1OixGLRCZaR3LsBcvIo/uHvhIMu8ypb1kLUEQ/mSH5XQVWGMUiGSpJSI7IfMs75XxWk7f/rR/euiJuGdVzepeV0xd+w7OuChWUtkjJoFbNruCCaYx7FrDwyyDss8YTnOGHkLxqstb99rjFf0/q1cfbbujr91v63voxJSpcUs4WGW+Ggw9NdqzjkIfKhMcfyTvfDxmTM4o9LHvVKRZsxyaU0Komc6ll33IvBkvBGUiL0daiV6uqRpVxrLizVPIvUGmT4NsZUt61IXPDzzRVx++YtYp5ZPfthF2Q/L+zrz8b2Yc7sjmNHl4eSS7Zz5uBeenG7k0p3ek8rcX5qKP5rLrYtDkt4v63LyerXev8v0yt6Pu/XFYpo+aNPVEhI4SULcumTIy92/T2O/9D7FA+awfh+W+fp1pfvtUMF+Wbk8B9x8Ti6PBxER0YWBQQ8iqpC1AdPqVmuRNjsuvbRfScBDxs02PoYMGYIrB3ua/ayqkZipn/jfgvk6E+2mWkcdYy1BUb7khwfMUiElyXWwx2k797ao8HVR3XobQwYJeHSVUh/GslIaxZhVbR69/5r9bKWx0tDe15ZUaZGqLjIc0vOqc9ODS5eu6IU5uN0o8RA7TYIAFbg8DiOMPH6XEXG4fI3KIO9ajCS8iInuXni5ZV5ly3rIWjIh9v2TTu8LsTfgXqRgh+TGrSUdbp8DpOxwZNKd3tMOtbQcA2O5S6UUhxH8sS4XGY3LjcGynN7P8yvdr6/Lw5j5YoqadymS4mbqgIfm9n0a+yXbtg7LPOFqv/cb4xXtl5Wrc8Dd5+Th8ShLqrSYJTzMEh/WNj6IiIjOB1UOeqw+sBo3fXoT7l51Nyb8MgFx38bh6R+eNuYSUX1gbcvDmqpjeGwsHowf79RoqQw/9GA8Bg8ebEypISpjHq9LSkgGeQdeHWSUKLCUHNi5YC5WGMNWevr4WzAyajTG4jGYNTcq5G5ZD7ZnXaZKSkpldEPvFR6+X6sKX7cI8brWyEL0fuzu0jY2LCU23O5XZRbNxyxZT0djvKL3oUuWGMENV58tvPisKiGNlZ5+/xmnNjxkWKadm4ZMYzFNP8m/AV/qzLG1pEDdZS0ZkXxXM2NqGftfQ+ylUprCKJmw7kX3mXSj1Ia5TkcJEM+Vez8VrK9L117GkEECHp6+T295tF81ew5IY6WtW7cuqdIiVV1kuGXLlmzIlIiIziuVBj3sdqCgsBCFRcUolqdoatruM3vwwLIH0H9IfwzrPAw3t78Zw/sMx+rQ1Xhw4YOOFxIR1TUqA43HujqqSZhVM4aZVTUc1Sfu3tq7tISCymxLY6AyvevcsdgxU8oXONrM2DTKMV2S2ThmeS6W3VHB9kxRk/D0eEeVDq+rswin13eFtMFhfQ+ljXxWxNF2R/nXScOgEvGQ0hZqGWm7o2s8Fsk2e5ceL5f75Y7lOOtVO/VG4+59lOHqs43y5rOqXFH6CWOolKtptUJluCfphh4k47sOL15ulBSwlAjYtTgJa4xhKz393hsQ22UE4vAkzBoZFXK3rAfbsy5ToeQvMUdKQLRXw5aSEG7XKyUd1nj4/q3cvZ8K15eMSbrWyMfo9WR8aRsbnrzPylj3W1T0PnTJEiO44eocgBefaSWksdKNGzc6teEhwzKNDZkSEdH5xLZ27Vp7dHS0MVpeoQ54FJUUQ5ebxlv+dzMO9T6EHo16oFNuJ9zb+V48tesp2EJsWLthLd695F0M6uz6dlfq9JusT3qJqGbJd8/8zqWmpuLTTz9FmzZt0KVLF/03NDQU/v7+en5dtXv3blxxxRXGmMPRo0dR0TWM6jgprSFtm9bBbne3X90HLX9zF2wBgcaUitkLC3DsvffR7YcNxhTvyXezVatWxlhFpLHK2zHHGLv8xXW6jQqprnHpk46s9+X33gukRGPmTCBeqkjoqYqUIjB7V9GlFUrn3fuvF5HyDhyvkaYorL2wlF324zOYuMPN9iyvTZ7UGFLzw3yPJcqsT60RHxslGszXCHfr1cquQ/at7HKyjCfvR7haX3JXTFfHWtrJmOZ4c3CMToP6ECp+n9Ztm8My39V+l1223Pswp0t7H3KcXJ8D5T4n8zM19r/s8bBKSkpCnz59kJ2dbUypWFhYGDZs2IC4uDhjSuXkmu3ZOU5EROQblQY9pHSHdC8pwQ7JMJ3IPI5r5l6DwE6BGNdyHDo16YSh7Yfi7Y1vY3fmbsw+OxvPNX4OkwZOMtbgjEEPonODQQ+qk+pw0OPEWzNw8u1ZsOfnGVMqZgsKRrN749H8voeNKd7zPOhRD1SQ+a7X6vB+f/755+jZs6fH92fyu7JlyxbcdNNNxpTKMehBRES1rdKgh1RnKTZKethU2p++D6O/uRH2hsW4t+W96NS4E67pcA3mbJyDPZl7MCdrDp5q/hQm953sWEEZ9SLokTYDMXLDsmQCIo1JFfJ2eaIaUDbo8eabb6JFixZo3769/it1tM+H7ySDHlSfMehxAajD+71t2zZ9DsrDLk9IoFyuv927dzemVI5BDyIiqm2VBj2khIeZWZKgR0F+PoZ/Nxxr/BwFJ68JvAbP9n0W1/x4DRAMhBaE4rPLP8PAJgP1/LLcBj0kMNBvCjB1PZZMMEIDdTVYwKAHnYfKBj2Sk5PRrl07fcMqf6WYcl0v6eEKgx5Un1xQQQ+6IDHoQUREta3Sx7q68TeVUZLMkr9KoSpj9PcBf0ebRm2As8Ce9D2Ys3UOkK2WzbVhSOgQtwGPSg0Yh15J8ZjhUYtnRERERERERETueRT0MEt5yF8/NT6k5RDMaTkHrfq0wtGGR/Fh1oeIvDwSk2ImYd5V84xXVkU0Jk7uhSmumh2X0hIREYjQKcYRGJFpMTMcrbDr+QlGd21pmBFjDpdKmxFjvF4l/TpZLgIJJQsmI0HWvVTWm4AENU+WTUh2LOcYNhZFKqYb00rej3B6n+XfA1FdkZGRobtCPHHiBI4dO6afvtXlRERERERE5K1Kq7cEBAbqfmt1wEOCH1LyQyWp99m9R3essq1CrvrXRf3rqP5lZmYar3StwuotRhWQXQkRWDA6HYldzGnRmB6xAKPTE3Wr7qXLlk7vMiMG01N7AaMTkRibjISYVEy0VieR1/RLxWRjHckJCUCiGk5OQMSC0UhPVFPN4YmpatkkxK1fggm71LQxKZhqDr8UjfXS8ro5X21Agin9kuKwXr+fMcA89d7V6vT01MmO9bF6C51jZau3LFu2TLfnIXWx5W94eHidrd5SUZF/CYiwegvVF3KuExEREZHvVBr0CJSgh+KnMkNSysMMeghz2G636yTDvgh6RJrDZrdvOsgwBauNRR3GYV56IpAQg9SJSxA9PQGYGI2XpkdjiQQZ5K9EHkpIKY4xmG28rnSOTHcETtRAmWCL5b24el9mEMMMqKxX2/dkOtE5wKAHERERERFdaCoNemzYuBHHjx1Ds2bNMGDAAKxatQr79+9HUFCQzkBJTwpSlSMvLw/+AYEICgwwXumaR0EPPRqD6YhDSpKLIIOFXi56MvCSlOwYgcUx0yGjCyAlPoyFnJQPfiTrYMc8YIxRmsRVoMM6zKAHnYfqe9Dj+b8lGlOIiIiIiIgcKg16SA8PUoqjYcOGSE9PR69evbBv3z49fPXVV2PJkiVo27YtmrdshZ27diHmmqHGK13zNOhREpwYMLVctREn6nUJ8UlIiZupe31Jm5GA6alA9MREXfWkhCy3eAQS9URpo0NvzLGMDk5Yeo6xvhdXw2WCHiXVWHRhEVZvobrpQgh6PP37OGMqERERERERKm/IVEpxnD59Wpfy2L59O1q3bo3g4GCdsrOzcfzESQwZMgTLV6+uNODhnVgkzhtXOrx+KlLGmA2EqmQ2YBoZDan3EjfCEU6Q0dkp0TBGS8mMKf2M1/dDUtzM0qBI5AjEqf0z1+GR1VPQz3gvuj0PHY1xfp/9pvTCPNfFTYiIiIiIiIiohlVa0kOCG9JWh/TwsHfvXh38kPGioiLs2rUb6ZmZWPvLL7jr9tuMV1TMbUmPc0kaMJUGSlkSg+oxlvQgIiIiIqILTaVRB8kkSZCjZcuWOuBh5RccjF3793oc8KirkhfMxrjJDHgQERERERER1SeVBj1ycnJ0kqosWVlZOkkPLTKtVdMmGHndMGPJ81dsoou2QoiIiIiIiIjovFZH6pcQEREREREREfkWgx5ERErbjgONoarzxTpEfVwP98k9Hhv3uE/u8di4x31yj8fGtfq4T4LHxrX6uE+Cx8Y1WUelDZn6Wp1syJToAsCGTImIiIiI6ELDoAfRBaJs0GPGjBlo3rw52rVrp/9KT021+Z289dZbjaHKMehBRERERERVwaAH0QWibNDj888/R9u2bREZGan/hoaG1lpJD3XdYdCDiIiIiIhqHKMORERERERERFQvVRr0yM/Px7Fjx/TT1IqSLCPLEhERERERERHVBZUGPQ4dOoRWrVujdZs2ugi81P+/6KKLdMOHkjp06KCTDMuyRERERERERER1QYVBj6Vb8/FNSg5gVwvabLAZSdoFsP41k92uFiQiIiIiIiIiqgMqDHr8cqAAhTqgoRb08ytJrgIegA3fbsnF15vzHC8mIiIiIiIiIjqHKgx65BXYkZVbBJvNdaDDTDJdnM0rxs972a4H1XFpMxATMwNpxigRERERERHVT5UEPYqRqYMeFQc8zOEMtawESqojbUYMIiIiSlLMDGZNqQLJCU7nS0RCsmO6DwMbPCeJiIiIiIjOTxUHPQrtjqCHn1RfcbAGPCRJOx7FxcXqbzGycovVa4qNJb0nmct+SXFYn56OdJ3modeUfsxkkks6GDEGmFdyvqRjHhbACHt4z0WgpD6fk8899xwefPDv+PSgGtn7DsaMmY23pnREx45TsNSxCBERERER0XnNbdDj7WUnsP3gGWw5AvznmyOY9c1hzFwi6RDeSD6E178+iNe+OoDXFu93pK8PYMtRu3rNWf1a7yVj+hRg6swJiDSmALFIXD8VSFqMNJ0hTUBCTOkTd/Ohvs6sljyJj4HOjxoZ2BkJLpaneiANi5PU+bI+UZ0lpWITZTwNM+KnYPXqKeinPvcYlbkvPRcSvAiKVHJOGlPOV8888wzeeKQdXv94tWPC+uexc/he7N07Fdc6phAREREREZ3X3AY90k7649ZB7THm2l4Ia9AEIWGNVWqE4FBJEQgOaaj/hoQ3Rmh4E4SHN8WYa3rhFvWaE9nBxlq8kJaKlAFxGFGau3SIjEav1anYJcOrUxA903jiPm8cZo+RDGwyEvqlYrL5JH59HJLijaf1KtObOtqy/Etsx6HeSFuMpNW9EF32fNEiMWHmVAwYMFWX0FhyVzPLueAcJKmQJ+fkeUyX9Pj3MmD3AeyVCf2eRjyjHUREREREVI+4DXoU2QOQdsIPacf9se+0P/aXSXslnfLD7hMqz3QSSD1arJZXrznuh1PZxkp8zZoBjR2NcUhB6lKVMcVsjDFLevSTJ/xGhlRleieaOdwu0RhgDFI9MSAaXYzBSlnPBSfJSHA6dxylQ2Q85n11YtdjuqTHc7ejpzFORERERERU37gNerSMCELLxoFo0chf/Q1AyyaBJamFjMs89beVGm/W0B8RYWq5RrK8mqde6zX99DwJi8sWxdBP2yvJ3BpP9B1tLnj5NJ/OT+7OF6/FItE8b9aXlg6R8SXPDKr6OXmeOLbpZ2wxhomIiIiIiOobt0GPJg380aKxH1o29kerphLcUH/NpMZbqr+SmjQEGoTZ0LJZMFqocXlNkwZuV1uBWEycCkwxq6ZoUnVlChA3wtKmgiF5AWZLyY9rJfM7BdO9aa9DtwFiaduhsnGqg4zzpZ/z55ScYBmvdhUUL8/J84xUb5lzpB1LehARERERUb3lNjrRMNQfDcL8EK6Sv60Qfn5GUsMyHqCGA2xF8PO3oUGDQL2suXzD0ABjLd6JnLAE6+OSSqoXRDi65sCSCUb20lL1QM9aIg1MOhqWTBljvkYlH3VVSnWbPl+mppRWbVJpDEarM0LPxORxjmpP1ammUuk5eR6T6i1/vOsuJCbeio4d78a8eePQyZhHRERERERUH7gNejRrGIC8gmLkFwFncopxJttIMqzS2Vw7MvKh5tv0cnkFRTrlqhc0V6+tKslkllZTSUeitZ6KUzUWSxUWlcFdYnlNugRDZJoOihis43r5sq+vYJzqrLLnS7rlhIlNdExbojL3bs8FKzfTKzwnqd5o23GgMVR1vliHqI/r4T65x2PjHvfJPR4b97hP7vHYuFYf90nw2LhWH/dJ8Ni4JuuwrV271h4dHW1MKrVz/1Gs2ZSGYnuxMcUzfn5+uPziSES1b2VMcVZcXLo+WdZjUuUkHpjpKrNKRJWS7575nUtNTcXnn3+Otm3bIjIyUv8NDQ2Fv7+/nl/T1HUHt956qzFWOXm/rVq5vqYcPXoUcg17/m+JePr3ccZUIiIiIiIiuA962O125OXl6b/esNlsCA4O1n9dqXLQg4iqhUEPIiIiIiK60LiNOkjQIiQkRGeEvEnyGncBDyIiIiIiIiKi2uK2pEdNYUkPonOjbEmPGTNmoHnz5mjXrp3+KyW0avM7yZIeRERERERU0xj0ILpAlA16LFu2DO3bt0f37t313/Dw8Fqr3uItBj2IiIiIiKgqGHUgIiIiIiIionqJQQ8iIiIiIiIiqpcY9CAiIiIiIiKieqnKQY8Dq1Yh6cYbsev++/HLhAlYGheHZX/+M9b+73/GEkRERERERERE506lQQ+7HSgoLERhUTGK1Ygaxaldu/DT+PG4atAVaHblQHTq2xf9Ro1C8IoVOPb9944XEhERERERERGdQ5X23lKoAx5FutcHSTabDXNvuQWD2xxEp8dfx8ndO1CQ+hMuuvuv2Pvn57D6iy/Q99130WnQIGMNzth7C9G5Ude6rBWedlvL3luIiIiIiKgqKg16SOmOoqIiHeyQDFHy3/6GA++9iysbHIR/TCf0fDoZtqAIbHnvn8h77WUc3VKE8BdewBUTJxprcMagB9G5UTbo8fnnn6Nt27aIjIzUf0NDQ2u1y1p17WHQg4iIiIiIalSlUQcd7FDJX2WWJMM0+M470SwwCMU5dtiL82Hzt8M/0IaABoWIiCxCrnpNUHa248W+kjYDMTEzkGaMElULzyciIiIiIqILQqVBDwl4SLDDTGEXXYQGjRrhyH6g5ajncWjJLBx6qx+iR4xDQeNIBIaGou8f/2i8ugqSExAREVGaEpKNGUQuuDtffBHYkHVY161TDGYwWkJERERERHRe8Kikh80IeEhpj9CwMFz+8sto1KoNfhw7Httfehn7vj6ATy7qgx3v7ULo0KF6+apImxGDiDHAvPR0pBtpHhaAYQ9yxefni6tAyYCpWG9Zf3r6EkyINOYRERERERFRneZZ9RY/v5LAh5T8aD10KJp+9jnO9roUxVtDcerrIPTp0AHDJk3CkLlzjVd6Kw2Lk4Cp6xMRa0wRsYnO485P3xNKMrg6A2xONzOuTsvyCX39UtH5koYZ8VOwevUU9FOffcxzz+lgxowE53OGiIiIiIiI6rfKgx5GoEOSLvVhJP/QUIxfsQIjlyzBjQsXoldyMhq/8orxqipIW4yk1b0QXeFT9GQk9JuCXvMcT93XT03BGKnOkDYD8VN6lTzxn9crFbv0sqmYbD6hXx+HpHi241BvVHi+RGLCzKkYYJTSWHJXM2D1FKSOlnOhTBCtMkbgpFxAjeqdth0HGkNV54t1iPq4Hu6Tezw27nGf3OOxcY/75B6PjWv1cZ8Ej41r9XGfBI+Na7KOSntvCQwM1H/9/P2dAh/CHLbb7TrJcGZmpp7njtveW6RURjwwc8kElWUtw5w3E4i3LiPTdWBjNBZEjMFsjMM8M1Or503BahkuYZlP57eKzhdhnV92WafxZCToc6e8AY8/DvzQzP02zjPsvYWIiIiIiC40lTe+YQQ2HGGOUmbAo6CgQJekOHHiBE6eOm3MrYLIaPRanYTFVXqMHotEXaJDgh+WKgzl2mNgwKPeqNb5YmWeOyqtLy0dIuO6hAh5bOPGjcZQeRXNIyIiIiIiqimVV2+RZAY+yqT8/Hzs3bsPa9aswd79B7Hk++8dL6qSWEycCkzp59zmQnKCZVxndKdgujEhbXESVo8bjdi0GUjQDXZIBnY9pg5IQSqcl6X6xoPzZbVUc6LaICW83n33XXz99dfGlFIyTeZVVgqMiIiIiIjI1yoPethsurRHWVJUPiMjA9tTUzF06FCs+nkNboiNMeZWTeSEJY52OixtKIzBaEvpjFgkrp+KlDGOef2kHY9ENTcyWnK/xmv6ISluJiZEOi+rE9tjqFcqPF8iJ2DyuNl6Xsz7J/XyVVK2TQ82iOtSgwYN8Oc//xnJyclOgQ8ZlmkyT5YhIiIiIiKqTZW26REcHFxSssOaioqKsGvXbhw7eRLrNm3EuDvuMF5RMbdtehBRjaqNNj2kNMdf/vIXxMY6QpUVBTzYpgcREREREdW0SqMOkkmyBjusbEFB2LN/v8cBDyKq36wlPljCg4iIiIiIzrVKgx45OTk6ZWdnIysrSyd5mivTWjdriptHjjCWJCIqDXww4EFEREREROca65cQkc9JsIMBD08tRXxQR9gqSg8vNZb11B5Mu9rx2vjFxiQiIiIi8oCP7s12voXBrl579VvYaSxCtYNBDyKiuu7Ne/WP5ODpe4wJldj5DeauNIaJiIiIyLcqvDczgiY9n8MKY4qTlc+hqzf3dVRtDHoQEdUVv50De/5e5/T5ncZMYMXjQysvuSFPFdz9yBIRERGR56p5bzboH987v3bLMxhkzPPovo58gkEPIqK6bMRU9SM5B+ON0Vk3TcEiY7iUpRgmAx5ERERENceTezMjWLJ8YidjgiHqfiy3BD5mfe5tFWaqCgY9iIjqvGvxh39cagx/gPl8KkBERER0DlV0b3YtZr52rTHsQtQwjB1oDL/5tYuHWeRrDHoQXaD279+PtLQ0pKSkYP369fj555+xdu3aWkvknajo7sYQsCm1bB1Q9eNqLTppKXZJRERERL5X8b0Z1SU2lfmwR0dHG6M1r7i42BgC/PwYcyGqLfLdM79zqampWLZsGdq3b4/u3bvrv+Hh4fD399fz6xp5v61atTLGnB09ehRyDXv+b4l4+vdxxtTziVRNuRezZFCKQrp7MrB4Cmw3faAHpX5oueKSVpZlx3++FzPZszgRERGRh2rg3syJ9LI3FI/pRufvxML8qRipp1NNYdSBiIiIiIiIqDZYe9kbGIWuxiDVHAY9iIjOA4s+dzxJAC7F2FGePkkgIiIioppQ1XuzRf8sbXR+0G3DEGUMU81h0IOIqK7b+Raef9MYHjgao/nrSERERHTuVPXezPo63ImnPa4SQ9XBoAcRkdK2o9mMdtX5Yh3Cup6d0+Ms3dBeilf/e3+tPxGoq8emOrhP7vHYuFYf90nw2LhWH/dJ8Ni4Vh/3SfDYuFbddVT93mwp4kteJ+2uOdryqE/HxlTX9qnONWSaNiMG/aasNsaAAVPXY8mESGPMx9JmIKbfFFi2hqnrl6CmNudEth0PzFwyAbWxOao/IiIikJ6ebox5rmxDpk8/+1c0atQYzVu0QqPGjREYGFTrjQs//USCMVSxC6Yh0wqpH9UtSZjkya8qGzIlIiIiqqIauDdzarzU24ZPqbrqVNBDBzyS4rC+JBCQjISIMUipqcBH2cCDDoKkYnJ6ImL1AjWIQQ+qIgl6CG8DH3Wt9xYdpGDQQ6n8h9XrwAWDHkRERERV5Pt7s0UPd8Qos1pLRT3CUI2o3ce6FUrG9CnA1JnWIEAsEtdPBZIWI02CBDEJSIiJ0Jk+SQnJxmIyz5gWERGDGWnGtJgZmJHgYnl3IqPRyxjUXK1Xk2BMmfV69R7SMCN+ClavnoJ+alpM6YqJPCbn07ly9uzZaiVyQ34E8/eWSwxaEBEREZ0DPrg3k+owDHicW3Un6JGWipQBcRhRttiDBCJWp2KXDK9OQfTMdP2EO33eOMwek4BkCUDo0hnG9PVxSIqfAR1GWD0FqaMty79kTHcneQFmD4hGF8eIm/WmYUbMGGCeMV2lxFhv30MkJsycigEDpmK9ml5j1Xeo3juXgQ8iIiIiInJPAh5dH1/nGGHA45ypQyU9PGANisSOxjikIHVpqvr/bIwxSlJESBsdZpBkwFRMNOupdInGAGPQiVHaQr/2pejSqjUShHG13rTFSIJlvcLdsjLPk/dAVEUSTCMiIiIiorqFAY+6o+4EPXSJjiQsLlsUQ5cAMUtfuGGUmDBLXqR70yaH+dr1UzHADFSYvFlvdd4DURXIeUZERERERHULAx51Sx0q6RGLiVOBKWa1EE2qjUwB4kaUb+xTV0WJw4hrJVgyBdMra6+jMpETsGQeMCZCqszIuJv1Ro5AHMpMd7dsZcoGWYg8xIAHEREREVHdw4BH3VOnqrdETliC9XFJpdVNIhxtZ5S0eWGtiiKzdFUUR2OnKWPM16gUU0nbHe7EJmL91BSM0Q2Ruluvoz0O6/SE5Cq8h8gJmDzOUSWGDZmSNxjwoPKklfGOsJnJ6LlFzLrJMj1oChYZ04mIiIiohr15r+U+zE26+i3sNBanmlHn2vSQwEdpFRFpJNSYIZyqkFiqj0gpDctr0iUYItOs3cGWHRcupjm2vwQ6zuJqvY6FnKbr9+hq2bLrLzMem+hYlg2ZUn0yadIkY4iIiIiIiOjcOr8aMiWiOs0MeDDw4Y1rMdPsAq3KxR8t66gwTcVI4xVERERE5Er17s2iJiaVuf+qJP1wP6KM11LNOH+CHmVLTRBRnVI20MHABxERERERnWss6UFE1WYNcEybNs0YYuCDiIiIiIjOLQY9iMhnzICHNfBBRERERER0rjDoQUQ+UTbQwcAHERERERGdawx6EFG1uQtwMPBBRERERETnEoMeRERERERERFQvMehBRERERERERPUSgx5ERErbjgONoarzxTpEfVwP98k9Hhv3uE/u8di4x31yj8fGtfq4T4LHxrX6uE+Cx8Y1WYdt7dq19ujoaGNSzSsuLjaGgMOHDxtDRFTT2rRpAz8/R5wzNTUVy5YtQ/v27dG9e3f9Nzw8HP7+/np+Zc6ePWsMVU2jRo3w/N8S8fQTCcaUisn7bdWqlTHm7OjRo5BrmF7f7+OMqURERERERDi3QQ8zA0ZENU++e74Keqxbt84Y8l5kZCSDHkREREREVCsYdSAiIiIiIiKieolBDyKic2oPpl3dEbag0hS/2JjlxqKHjWWvfgs7jWnkSumxreyYEhERETnw3sxndr6FwZbjWJJq+Tgx6EFEVMfMepE/mD6x8xvMXWkMExEREVUR7828tRTxEtzo+RxWGFOcrHwOXdX8wdP3GBNqFoMeRER1jfoheJklE6pHniy4+6ElIiIi8gbvzaps0D++hz1/b2na8gwGGfNWPD60VkrjMuhBRFRX/PYZvGr0zMUnClVhPFWo6MkCERERkad4b1Z1v52jgxzLJ3YyJhii7sdyS+Bj1udLjaGaw6AHEVGd0QWTnrzTMcgnCkRERETnGO/NquZazHztWmPYhahhGGsEk/Dm11hkDNYUBj2IiOqSEfHVe6JgaTCqouKCO6fHGY1JTXH+obG83qxnWbqsmeIwzemNlW/w69w05KV+YK3FJz83blKIiIiIqqo692YX9H1Z3VFh0OOPf/gDfv/Y77BhaxpOpefhpEqnMvJwOiMfZ7LykZ5dgKzcAuTkFWLbzl162Rdf+KvxaiIi8l6nuvNEYdtM/UPb9fF1xgTTOjzW0/jxXTxF/ZgOxWNlGwxV771r2R9uIiIiovNOHbk3431ZlVUY9CguKobNZkOTxo3hFxQMf5X8AiUFwRYQDJt/EIpVsvsHIqJhhF42MzPTeDUREVWJ9YnCTefuB2rFmx/odjHGf24pPVGm8SnbTR+ooUvx6hbLMiUlLD7AqIdd1NPUP8hlnkB4mtgVHBEREdW2OnBvVmP3ZaK2782sPewNjEJXY7CmVBj0KCws1MlfLXVR84YlqV0L+dsArZuGo2WjMDRuEIr8AseykoiIqDosTxTUD9TztdSdVzkDn8EO9WM5c4QxLqLuxzv/uNQYUXQjVUmYFGWMixFTsfC3xnAt1NMkIiIiqll14N6sHt2XLfpnaYPzg24bBuvbrQkVBj2Kiop0KigswoHjZ0vS/qNnsU+l/ccc6eCJs8gvcCwriahOS5uBmJgZSDNGieokyw/UisdnnpMfKHc/QlHR3Y0hYPxNrhup6trd/AHehu1lw/9q30qePnibfri/xn8YiYiIiMo5x/dmNXZfJmrz3mznW3j+TWMYd+Lpsr271ACPSnrk5RciMNDfkQL8EWT8DVBJ//X310EPvXxRNUp6SGY0IgIRRoqZwWwpVSI5oeR80Skh2THdV4ENnpN0Do38nVlk8RyW9iAiIiIijfdm1bUU8T1LS3mM/3wqRhrDNcmjkh65BYU4fCrTkU470pHTGTiq/h49nYVjZ7KQW1igl5V2QKomGQn9khC3Ph3p6ZLmoVfqLmMeUXlpM2IQMQaYp88XR5qHBepMqqJygRKek3SORd2Pp89xaQ8iIiIiMvDerBqkV5l7McsYG/SP752r6tSgioMehYU67d+3D3t3puq0Z4eRdu7AnjRJMpyKfXv3lSxfdb0QHWkMIhaJibF6SGduS562x0A/bNdP4BMsGVyVQTXHnZ7OG8tTPZOGxUnA1PWJ6kwpFZso42mYET8Fq1dPQT8pnfHcczqYMSNBzgfrOeMJ1+ckUW3hEwUiIiKiuoP3ZlWz6GFLrzK/nYPltVCtxVRx9ZaiIp0+fnsW3nn9VZ3efaM0vafS+zOn4YNZifjsg9kly1dNLEaPm40xEqgwqygYIicsKXmSnz6vF6ZMV/MjJ2CyWn6BuWjyAsweN1qtRZ7Op2Kyufz6OCTFs/2GeidtMZJWWwMSVpGYMHMqBgyYivXqHFhyVzNg9RSkjpZzwjlIUjH35yRRramPTxTYewsRERGdr3hv5pw8uDfbOT0Oo8x2PKSx1ddctz1SUzwq6eFtqqrYRCNQMXqBo5SGtX0GXWpDpTGzgZRUHcSIHT0Os42oR/KCFEydqLKzaalIgZFRldRPnvingpUS6qEB0ehiDFZqwFTI6VGelBCyniuO0iEyLu13uD0nqd5p29Hoh6wafLEOUXY91icKbrsac+G9e2vm/VSFr44N1k0zBqqnLn/eVVWX1sN9co/Hxj3uk3s8Nu5xn9zjsXHNF+uQe7MgPeTdvZkrvjo2dYl1nyTg0fXxdY4RLwMevvq8Ky7pUVBQkn7/xz/g6Wf/XC5NfnIKjhw9gr179yJDZQ5l2WqLTVQZzXkYN3sBkiXgYW1XYf1UDDAWQ+xETE2RNhySsSAlDiPMp/7GE369vE7ePN2n80JkNHqtTsLiahfhiUWieZ7IuWU5d5ZMsBQjsZ6TxiSqXw7tNcvbVZ0v1iHKrcfaHdmb0/H8ZsdgZfo8+aExVD0+PzbVaSE8c5NPem+p0593FdWl9XCf3OOxcY/75B6PjXvcJ/d4bFzzyXtR92YpXt6bbUp1XRXGV8emWnzce4u5T9UJeAhffd4VBj3y8vNLUnFxMSY//gedCgoKdMrKytIpMCAQQcHByFPTZNkqkeCG9Sm6lNgwn+QPKA1opC1OwmrHoBKJEXEpWJCwAClxI9SYTJLM8BRIDRiqz2IxcSowpZ9zGx3JCZbx6pbwqeicJKplURMnYrweWocVFV3/o7qgtzG4YttuY6iMxVNKf4CIiIiIyGse3ZtdwPdl1Q14+FKFQY/8vLySZLfbkZGRoVNmZiZOnTpVkvLz81GgU57+WyWRIxCXMsZRhUBXNUhC3MwJiJS2O3qVVjmIT+1VWtJDiRwRh5TZwOSSp/KxSFw/FSljjPVI8kXXpVTnSFsv66emlFZlUmkMpF0XPVO3+SLzYt4/qZf3mrtz0phNVLuuxR/MJwoVuha3GPVM8ea9iF9sDGvSanZH2G76wBgnIiIioqrx5N7swrwvq0sBD1Fh0ENKd+Tl5ekkgY7CwkLdUKk14GENeshfWbZqIjFhiVkdRdISmHGMknYVpMpBYiKWLLFkPFXmdknZ6it6mmVd1uWpXnFq5FaSpXcV87xZ8swz5c8ZV+dEuenuz0mic6H0iULFRr42p2S5WTdZGpoKMlrNVj8+OzwKoJxvliLe2rCW5SbC+ThMYRdzREREVG2e3JtduPdlhjfvteyzm1TDDdVXGPT4k8osSqBDghmnT5/GH56YjITHJjkFPCQYoqu7qOUK8gscgZFqNGZKRETueF7aY2b+Xiw0nyyUuBMLpe7lOY62ExEREdUPnpX24H3ZuWVbu3atPTo62hgt78dly+Dn74+QkBCEh4frai7C/CtOnjyJs2fPwmazoVGjRhg8eLAedkVKj5j8/CqMuRCRD8l3z/zOpaamYpn6brdv3x7du3fXf+X77a++655Yt67q9Q4jIyP1deL5vyXi6ScSjKkVk/fbqlUrY8zZ0aNHIdcwvb7fxxlTiYiIiIiIKinpIYZcdZUOYlx66aXo1q2bziBJ6tGjR0kaMmQIbrjhBowaNQpXXnml24AHEREREREREVFtYVELIiIiIiIiIqqXGPQgIiIiIiIionqJQQ8iIiIiIiIiqpcY9CAiIiIiIiKieolBDyIiIiIiIiKqlyoMemzbug1//9tLmDPnHezYcxhpeytI+w5j3qef6eWr050lEREREREREZEvuA16bNywETNm/BvNWrZGqzYX4cypkzhx4oTLdPLUaaz/eS3279uLs2fP4tjRY8ZaiIiIiIiIiIjODbdBj1UrV6JBeANE97wElw28Ghd1ikaHzq5TVNfuWLnsOxw9fAgBAQHGGoiIiIiIiIiIzp1K2/SwqRQWHIiI8BCVQo2/zskmCxERERERERER1SEeNWSak1+I9Ow8t8lutxtL1gNpMxATMwNp5l9jMtUj1f1sPX19cgIiIiJ0Skg2plGd1bbjQGOo6nyxDlEf18N9co/Hxj3uk3s8Nu5xn9zjsXGtPu6T4LFxrT7uk+CxcU3W4VHQIywoABFhwUYKsQw7ks1XRT0kM2lkEiXFzKjpkEMaZsSobTG4cf6yBBZ0MqMLvgpaeXNOOm0zGQljUjB1fTrS09OR2MXL91Pr3wU6tHelMVR1vliHqI/r4T65x2PjHvfJPR4b97hP7vHYuFYf90nw2LhWH/dJ8Ni4JuuoYkmPfKdx35T0UJnEfkmIMzKJ6enz0Ct1lzGvhqQtRhLGqX9JWMw85XknbUYMIsYA8/T54kjzsECdSVVULlDi5TkZOQFLlkxApAynpSIFvRCtRypR3e0SERERERGRSx4FPUKlTY/QYDR0k/z8PFqNB6yZxFgkJsbqIZ25LXnqHQP90Fs/CU+wZHBVRtEcd3pKbizvQtriJCBuIkb3Wo0kRj3OM2mQj2/q+kR1ppSKTZTxNMyIn4LVq6egn5SSeO45HVSYkSDng/Wc8YTrc1Is1utzJF3ApCR4IUELtX3MxhiZH/McnrO+H49KbbjfLhERUUX+NWMrrrjyC8z8T6oxpfqW/XQUVw5diIceWY7iYmNiNR0/kYtRNybrJMNEREQ1odJoxQ/ffoW3Zv4Lb836F/7rlP5dMvze7Dd8EPiIxehxRiaxTAMIkROWGE+8VZrXC1Omq/mREzBZLb/AXDR5AWaPG63WIhnOVEw2l18fh6R4V9UKHJnmuBGRiB09DquTFrtYhuosKaWz2l1JikhMmDkVAwZMxXp1Diy5qxmwegpSR8s54RwkqZj7c7J0fXJOjsPsl6znWCwS15duP33JM3jG+n4mVFb8o4LtEhERVeC7749g4mMrsXrNCTw44SesXnvCmFN1BQXFGDZ8MZavOIo3Zm3HpN/7ptjy0OsWYdFXB3Qaet1CYyoREZFvVRqpyDh7BocP7neTDuh0cN9e+Pv7G6+outhEIxM5eoHjCbq1fQYZlzRmNpCSqjOYEqyYbUQ9khekYOpElZ3V1QqMDKMkeeK+OhXlKgfoqi1xGCH5z9jRGLeaVVzOOwOi0cUYrNSAqZDTozwpIWQ9VxylMWRcSmS4PSet6+sSjQHGoOequF2qt/LyivHlwgP43R9WY+wdSzF02CLcGLdEZVqWY+Z/tuPYMT4FJaLKzXh9qzHkMOM15/Gq+HzBAR34MH2atBfVrdl8/HgutqeeNcagh2UaEVF9VFxsx4qVx/GnP6/Db+75HtcNX4Trb/ga9z3wI/7+j01I3VF6PSTf86h4RlRUFAZfORiDJA0eVJIGDhqIgIAAdbPu4x5cYhNVhm8exs1egGQJeFjbN5An6MZiiJ2IqSnShkMyFqQYAQxhPmEvSeWf7kvVltKM5hjMBqu4nFcio9HLJ4GqWCSa54m1dIZKTiUyrOekMal6ztV2qa45cyYff5yyBi3bfYDRtyTj1cQUfDxvD35YdgQLvtyvAx4S+GjT4UM9f9Pm08YriYicZWQU4qvkA8aYw4KF+5GTU2SMVc2M11OMIYeDh7KxctVxY6xq/vPWdp0JMEmVGZlGRFSfFBTY1TV0GzpGfozBVy/AX6duwPv/24Wl3x3B18kHMfvtHZj85Fp06/UpLrvicyxafLDaQWUqz6OgR5NmTVGsjn5GegZatW6NLpGROkVGRSE0LBT5+fnYt3+/sXQVSXDD+jRbSmyYT/IHlAY0dLDCMahEYkRcChYkLEBK3AhHA5I6MzwFUgPGPanashrj5hmZTknzWMXl/BKLiVOBKf2c2+hITrCMuyrh442Kzsmq8PT9+Hq7VGd98ukeRPX4BC+/slldhwqMqa5J5kBKgvTt/xkSfrdK/4gSEVm9/e4OHfiwOnUqDx98WPVfQwm0ys15WdP/vcUY8p5cv157Y5sxVur1mdt5bSOiemP9L6dwyaVJeCRhBQ4czDKmurdu/UmMuulr3HDz1yz55mMeN8SRsnkzVixfjrNna6joTeQIxKWMcRTllySlO2ZOQKS03dGrtOh/fGovp6oEkSPikDIbmFzydNzRnkLKGGM9ksp2FaqrtpSp7mBWcdlnjFOdJ229rJ+aUlqVSaUxkHZd9Ezd5ovMi3n/pF7ea+7OSWO2V6zvp7KGTH25XaqTJIL/l+d/we2/XoqTJ/OMqQ6BgTZERUZg4BUtcHGvJmjUKNCY4yDBD8lsDB+1uNxriejCJdeGf7/mOhAh14yqPjn81wzX65Sg7aHD2caYd5I+26NLi5QlmYL5n+81xoiIzl9Jn+3DkGu+xLbtznlnmw3o0D4cl/dvjn59m6JlyxBjTikp7TFg8BfYnMLSvb5iW7t2rT06OtoYLfWfmbOwa5fjycDlAwZg27atOHTwEG665Wa0bdtWTxeff/aZnn7q9Gl07NABQUFBuurLiJEjjSWcFVua/PZdry9EVBn57pnfudTUVCxbtgzt27dH9+7d9d/w8HCP2+ZZt26dMeS9yMhIlZFvhOf/loinn0gwplZM3m+rVq2MMWdHjx6FXMP0+n4fZ0yt2154cQOeftb5GF53bRtMfKQnYq5rqz6LAGOqIyOz9ucTePf9NMx6czvy80uvoQMub4HvloxEaGj121QiovPbV18fxIjRXxtjQK+ejZGy5YwxBn2tGHp1a2PMM1JK5KLOH5VUj2nXLgwHD5YGK55+qg+e+/Olxpjnrrp2IX786ageDgjw01Wki4ocUZkhV7bCsqWj9DAR0flo8VcHcMPNS/Q9nKl7t0b4w+97Y/So9uUCHdKexyfz9uCVaSn6umtq0SIEq5ffiE4dGxhTqKrcRh2k+orJrv5dfHFvXDnkSjSKiDCmlhccHIzY4cMx4IorjClERGQlkX9rwKNBg0B8+vEwfPPVCNx8YwengIfw87Pp4Ma/pg3Ets1j9FMB0+o1x3H/+B9Z95OIML1MiYypf73MGHKoSnWUt2bvcGoP5Ik/XoLWrUONMeieXKQRZm9I8W0z4CHGxHVUqZMxBj1PliEiOh9tT03Hr+76riTgISU7/vrcpdi0/hbcd29XlyU7ors2wpNP9MHu1Ntx+5jS66FUcbnxliXIzKy4CjRVzm3QY1jMMNxw42h0jY7GyZMnERYehhYtWyIjMxNHjhwpSZ06dUaviy9G+w7t0blLZzSMaIgmTZoYayEiIpPUtX/okZ+MMUfAQ55oxt3cwZhSsc6dGuDH727A4EEtjSnA/z7ahUWLnRsuJKILy46d6Vi4qPQ6MHJEO9x4QwdcM7S0ZMf8z/dh777K65SbpOTFjNdLAyVS1W7c3V3x4APdjSmOG/KPPvauvZB/zXDuTUZKuEmyKrsMUU2QkpOfzt+LJ55aq7t5TvzXFq++I0RlyUOohx9d7tRO27tzhuqAhpRqq0xERCA++uBaPBRfep2VKi5/f2WTMUZVVeHRHzJkCO67/z6MHz8eMTExLtOdd92Jhx5+CC+99BLuufde9OnTBzYJaRERkZOX/rERR4+WNkw1562r0LdPackNT4SFBSDp42FOTwr+8MQaFBZ697SViOqPst3UPvpwL8ffCaXBBHnq+NobngcTvvjSOUhy/7huuiRa/APddNtDJm/aC5Egyf8+Km3X6tJ+zTBoYEsdyLWWYvvgwzR20001auOmU7h80OcYM/ZbvPTyJh1om/T7VYju+YnuRc1aLYHIU18u3I9vlx42xoDHf3cx7rrDu64IJBs9/dUrdFU/0z/+udllO0jkucpDTkREVG0SlJDuZ01XDWmFW2/paIx5RwIeT07uY4wBW7aewbIfjxljRHQhkRJk/52TaowBXaMicP1wR9trN41urxvMM0mXsNnZzr27uGOtDiM34RMecjx5lOotv7q99Cb+53UnPe6+VrZvrQ4jJTxk3ZKspT3kCTy7r6WaIu3f9B/4hcsu4AsKivG7P6zGr+78jlVHyWuvzSwNLDdtGoynn+xrjHlHSoW8/LfLjTHoaobvvLvTGKOqYNCDiKgW/PjTMZw4UfrkcsJDPfSNflXdP64rgoNLL+Gfzt9jDFWPZGCatf7AZZL+44nIOxMmrnT5fZI04/Xy3bZ66533djp1U/vIwz10W0BCbpwffrCHHhanT+d71H1t2W5qpeG9Lp0bGmPOAQrhSXshZbupbd48BL+6vbMxBvx6bBc9zfT6zG212n2t9Brj6jOSdPOt3xhL0flOej275/4fUFRU7DKoYU6T3on+O2eHY4TOe9Llv6vvtqQbbk42lqqes2cLsOSbQ8YYcPdvonR1laqSXvz6X9bcGJP7PPZsVR1ue2+pKey9hejcYO8t59azz6/X3dQKyZCcPHInGjcO0uNVdV3sYiz93lGMMiqqIb5IsvbDXTUbN57Gr+5aaow5a39ROL5edL0xRkSekPYCPvvcdX/4f3y8N8bd09UY854UwR+tbth378nU49JO0ME9v3K60ZZMnvTAkpvraJC098VNsOHnWyoMuo5/6Cf8563S0iPJ6nsfM6y05z4x6KoFJSU8JLiyN+12tG0TpsddmfvJbv303PTUlD544S/OPb889cw6vPi3DcYY8NEH12DsbaWBkbJkvw8dzEZAoE39rlTverroqwP43eOrjTFnVwxooasj0vnvr1M34L0PSqtYuSPfD+kZ7ftvRunvFZ3fJBjx6KSVxpizyy5thvfeHmqMVd2yH4/qa6fpq4XXY3iM83XTW39+bj2ee8Fx7yjST/4fGjZ0bvCePMOgB9EFgkGPc0t6WTGfGrVqFYIj++/Qw9UxaIjKdKz2rFg5EdV/j07ogemvDjTGSj3w4E9487+lQYylySOdGjm1KttNbY/ujZCy4dZyQRIpMXLX3d8bY5V3X2vtptbf34a9aWPRrq1zkOTAwSx0ivq4pPvaKwe31I03uyPv09qFLhFRXZGaMgZdu7rv9dQT776fhrvH/WCMAVs33aq7viXvMepARFQLjhzNMYaApk2CjaHqCQ1jtJ+ISknVFlckGGI1/d8pxlB5ZbuplcZQXZUKue3WTh53X1u+m9pO5QIe4qJ24U5tHf20/JiucueKbOuo5bpKRFSXNGla/Xu9sveLhw/zmldVDHoQESltO5Z/OuqtitbRxFKVxVr/3hVP30teXmnGhIgubIGBfoju6voJ4CW9m2Lo1aUlOz77Yj/27HVUibFeb1x1U/t/d0UaY86Cgvzw0HjPuq911U2tK/Jeyndf67q9ENlWYWHttflBROSNzIzSbmsr4+6+LyMz3xhykMZRK+Lp/WNFfLEOUZfWI+tg9RaiCwSrt5xbUq9fusUT0t1jxqm7nRoirYqYEV/hm28djWa1bBmKqS9cpoerY9fuDF3n2ZUWLULwt7/2N8aIyBNvzU7F8hWue1cae3tnXB/bzhirml27MnDqdB4GXN4C994dZUwtb17SXtz2q2+NMeAPv78Yf59a2juAkMY8424rXeaxhF7458sDjLHypAvu9l0+LGlwVOrGr1lxk1PJEAmGtO/yUUkpEOma9udVN7ssPSKkIclLB3yGXzac0uMSXNm/61dO3XTLMtLdqFkKRH66Xv7bgGq167Fm7Qm8Mct1w7JSnPwPv+9tjNH5TD5j+aw9IefoP14aUO32t+jck9JmZbv2NkmPV0/88RJjrOrW/3IS/36tdBs/fn8DrhzU0hirmpdf2Yw/TlljjAEnDt+JZs18U1r4QsOgB9EFgkGPc6tshuOrL4djeDUyO5LJaNnuA5w543gKID0f/O+96jfEtWr1cQwcssAYcya9N6Rtv80YIyJP3HPfMt3DiiuSofr9Y72MsZol3WZ3if4E+w9k6fEmTYJwYPevEGapJnfd8EUlvbZIhm/H1tsQ2aW01xZXpL651Ds3Lf9hNAYNbGGMQTdMKg2Umma/OQT33l1x462z396B+x740RiDbvBUGj41rVh5HIOvLr1O3XVHl2o3RFi2oVWra69pjW+/HmmM0fls67az6Nt/vu6atrIuaR//3cVO3YbS+Svps3249XbXvTANubIVli0dZYxVnVxbO3SZa4wBf3mmH575U9W6rDXFjvyqpEeYTh0bYFfq7W4DxlQxRh2IiGrBiOHtEBJSGlSa8071+lv/fMG+koCHuDWutB58dfS5pCm2bR7jMiUvZs8tRN6S0lGuvk+Sxt3jvmSGr0kPK9JVtkm6r33/f6XVUVx1U1tZwENImx9W1u5rXXVTKwHaytzxK+fua2Ud1u5ry3aR6666jDdGXt/e5Wck6e3/Xm0sRec7aZj3pRf764BHRc9eZbnnn3XfMC+dX2KHtXH53Zb0/jvVf2AkpIe7y/uXdjErwWAJNleVVEH87vvSa/KtcZ0Y8KgGBj2IiGpBeHgAbh/TyRgDPpy7q6T4trfy84vxzLOlT04lczDy+uoVkTdJYKZbdITLJCU9iMg7bdqEuvw+Saqsfrav/fa+aKfgqwQPzKfd1mLZomwwwx25yR94RWnJjk8+3YNDhx09qkh1mYOHSntXGf/bbk7bd0eWeeD+0lLIsr5P5+/Rw7I+2YZJqvVIqi7pBtLVZyRJMjNUfyQ82gtvzRqC0FDXjYFLY7rSVa0n5yqdH6TbYVffbUkd2vvu+22tYrgzLb2k176qkPs8a9DEXftK5Jm6FfRIm4GYiAhEGClmRuX9aBMRnS9eeO6ykpsoyWhIdRfpHtIb8rpHElZgy9YzxhQpQtlX/6ATEVVE6oJLVRDT5pTT+kmiXIfefb+09Jk85Y4Z1tYYq5y1pIXcpJttY1hLZEg3tQ/FdzPGKvdQfHf9GpO5Llm3NSPgi1IedGGRp+X33dtVd8V82aWlT+ZtasanHw/DJx9dp9uwIvLWA/d314EU06Tfr8L6X7x/wCW9aFmrDUrAo2+fpsYYVUUdCnokI6FfEuLWpyM9XdI89Ep13Qo4EdH5SJ4mPPNUaf3OtF0ZuOrahfppgCdyc4tw//gf8Z+3Uo0pjoYD5UeWiMgTj05wbkNEggmedlPrjnRBKyVaTDP/sx2rVp8o102tdEnrKSldYe2+VhqDXb7ymF63SbrMtZagI/JGxw7huPqq0vbCJMgWd3MHViGgKpOG6v+dOKjkHJLrasyIxSXtclRGHmy9mpiC8Q/9ZExx9Njyog8aqr/Q1bHqLb0QXVJyJxaJibF6KG1GTEnpj4iIGOgCILpUSAKS9RIiGQnmuFOJEWP5Mlyus+z0mBlgWRMi8qXJf+itbv5Lb+SlxEafyz7D08+uw7FjucZUZxLs+N9Hu9C733zdwJ9JMhnz5w3TP7JERJ7oc0kTldEr7b5W2gdK/HeKMVZxN7XuSA8rDz5QGnyVa9kfn1htjDk8OqG0PRFPla1i88cn1ureYEzxD3TT2yYiqiuklNxLL5Y2gCsl6YaP+ko3ar091fVDruJiO77/4QiuiVmE3/1htR4X0hbTvI+u8ypgTK7VoV+KWIweNxtjJNiQUBrKEJETlhilP1Sa1wtTpqv5kRMwWS2/wFw0eQFmjxut1iIlRlIx2Vx+fRyS4ssHL1yuM20G4qf0wjxj+rxeqWBZEyLyJT8/m24Ub8T1FxlTgOzsQrzw4ga0uuh/6D/wc/zmnu/x2OOr8dv4H/UPZbPWH+DO//veqURI2zZhWPj5cP4QEpHXrFVC5Ob64MHSdjfuuze6StXl4h/o7hSAXWYp5SHd1F452HUPXBWRXhWsRbqXryhdp2wr/rcs5UZEdY/0/PPHx0u7uZYSHNKLV/eL56Frj3kYe8dSTHxsJR56ZAVuvvUbdf/3oQ54/LCstOFSqQ79/jtX45qhpUFqqro6FR6PTTSCEKMXOEpamMEPa8mNMbOBlFQdxIgdPQ6zjahH8oIUTJ0Yq5ZNRQqM4ImkflOwerWL4IWrdUZGo5d+raPESGxiIhxlTYiIfEcaNV0wP0b/KJb187qTukeFadNTdJHz5CWHdFDEShoNXLPyRtbvJKIqufnG9i4b55Qi2dYeXrzRqpVzzyxmA6nC2+oyJnmNtbSHdZ23j+nsVKWGiKiukGuX9BL09n+vKtcgrjzA+njeHvxrxlbdRpGUtjtxwrmkrzzQ+uHbURh7W2djClVX3SwTGJsIadNj3OwFSJbghLWtj/VTMcBYDLETMTVFLaP+LUiJwwizNOaAqVhvlNZwpDLBC7frjEWiXn40FuiAiLX6DBGR70jd4Zf/djnWrLjRqah5ReQG/7//GYIfv7tBl/QgIqoKKTL98IPlS0nc4GE3te646vFFepeSLmirSl4rDbCWxQZMiaiuu/s3UUjdMsbjKoNhYQH489N9sXVTnFP3t1R9dSfoIYEIa7UWKbExIBr6Z3JAaUAjbXESSmuJRmJEXAoWJCxAyv+3dz/wVdZ1/8ffA8Q/2GYqERRinjHQxX03MwLKP+RWQItYMyztVgljd60Y+H8mdgfdTs1+MO9m97w1zMqSohkRUMMQuQOaxLzDYR42kkwRNcWpqCDsd32v8z3bOYdzbedsZ9s5117P+3Hd5/v9nuv6Xtf1PWfk93O+3+9VMs3JmaI85TdUysxW6VS8Op1rqHAX9zDBj0ZVTWxS0GTdUSERAZCu8gCQoHM+fKoeWT9dj2+bpUXf/FdNnjTcjfCboIj5D30z/37O5WP1218X6W/B2W468okGANAd5vG1sf+WzI8TtEiG+Y/08eNybC7ksktze/Toz+OPH+x2HCKNHZutj07s+WNqAaC3mVF19y8/T3taZmvpHRN14SdG6owPvMtdj8hMJTRPyzIL6P74vvP07NMX6z8WFfBEvl6QPkGPwDSVNJWGppu401LqVFJbroBZuyO/UgW2vCyY3zHSwxGYVqKm5dL15eEIWpGqG6vUVGrrMVvsgqRedQbypMoCe1yB6kpq1V4tAPQSMwzSBDcWf+tsbX60WM/8bbYOHbhCL+29xA2GmNEdM6a/X8cem56D8wBkHjMCIzJAcfxxg5N6TK2X4k+PtqmQKy6PDlh0hwn2RiqeEX0OAEh35gl+C+bna/26aWp56iK99drleu3lL2nnXz7nPir5S5cEdNJJQ+3eSLWsbdu2teXlOZ39PnLkSMez1QcN4j/ggb5i/vbCf3PBYFCbNm3S6NGjNX78ePd12DAzuiCxX+O2b99uU8kLBALKycnRklurteiGClvaOXO9I0bEXwRv3759Mv+GufVdXWJLAQBdeeqpV/Wp4t/rjdcP6b+qJ+sLs3s+f/ydd47o/AvXqanpZV32b7m6c+kk+07PVFz1J/3o/l3Kz3+3OzrumGP4b0j0nHlShnlEqGGmfR06cLmbBuAv/C8GAADAADRuXI6e3vV5vbj3kpQEPAzTcfzjxhna/9KXUhbwMKr/30fdOv+48dMEPAAASeF/NQAAAAAAgC8R9AAAAAAAAL5E0AMAAAAAAPgSQQ8AcIwa0/O556mow/BjPdyTN9rGG/fkjbbxxj15o216lx/bhnvyRtt4S7d74uktwADB01sAAAA68PQWYGAg6gAAAAAAAHyJoAcAAAAAAPAlgh4AAAAAAMCXCHoAAAAAAABfIugBAAAAAAB8iaAHAAAAAADwJYIeAAAAAADAl9In6NFSo8LsbGVHbYWqabHv9wZzzsIapewUqa4PAAAAAAB0W3qN9JhYpcbWVrW2b+tVHrDvZYJAudavL1cmXTIAAAAAAH6VAdNb6lWRna3C8JAPd0RIoWo2mFEVFaoo7BgZUlEf2iV61EiFU4MtK6xRTUW4rEU1ZZVqaKhUQWT9VktNYXu9kSNOospjR3WER3q4rx3XVlHvnKs9Hd41fv1uHe3lzhY+R1R5L4+AAQAAAADAB9Ir6GEDENEd/iJVN1ZJlXfaQEWdShrXq/w0s3+T8mrtqJCVc7S81AQz6lVRUKn8laHyxqomlYYjDU79wWJTXu3UGlB5bZUm2tEl62OGlATK19vRJqbufOf0Th0tNSqrzNdKW74yP6jddv+jhK/Nva4yKZy+LRTEiFt/zLW3Ovc90a3MlAd1fXj/xhLVlcUEXAAAAAAAQJT0nt4SnioSKFetCV5kF6iupLZjysvEEk0Lp4uKNUdNCm4IqsmpZ35RqDgwrUQTl6+WG/aIKO9S5MiK0uVSU1AtgTzla7lzHaHRI0XVJnjiIXxtZ+RpYmTafdMRr/6W6GtvZ8rd89r9C8wIlU4CLgAAAAAAIBOmt4QE8vJtqg+YgESBGVESHlkRHnFRpGo3IFOs1W4Awk6dSZZX/buDanB3iCM2IOSOVgEAAAAAAF4yJOhRr4pSaWXrSuVXlsVfz6J+tZabERVT85TfUCl3toijZV2dGuYUewcIvEZMRIwicetwEzWqcE9ugh+NqprYpGB355jEq9+MVmmo07rYOs0Ik4h7iuKOGIkIvnSVBwAAAABggEjvNT3cBTvNQqYm4mFGNhSp2qx/UWA78ZH7m13c6TChNUCaSkPlBWYNjmqPkEegXNfPCU0biVrI1JTnd9RdFswPjcQI5Mk5ub22mKk2yfCqv/3+QuXuNJZwecQ9uVvsIqoAAAAAACBK+gQ9zONeo6ZvmM08staMqmhVe9yiqLpjakfUlI+I6R5RddlyUxbncbJF1aH9YhcyDZe771VX22ND19JeHhvxCJ8j8lwe6fj1u2+0l5uFT5Wf13FsuNxskXUede+d5AHENWrMJJvqvlTUYfixHu7JG23jbeDd0waVDR2jrE63Ei1r7s71PK1l54XqKFtnixyZ0zaJ45680Ta9y49twz15o228pds9ZcyaHgNFvftIXbu5A1wIVwB94bk9W22q+1JRh+HHergnb7SNN+4pnu1aeNYY7R3zFTXbkoQ0P6wVcU7tr7YJ4Z680Ta9y49twz15o228pds9ZW7QI2LUhJ9EjgBhsVIAAAaoK+9T28E9Mdt9mmff1tbFGvu1DTbTheZ7NeWsxdpiswAADCSM9AAAAMgIU1V7cKOWhkf73nOnO9UlvoipMgQ8AAADGEEPAACAjHG6ii8626a3a8Wap20aAADEQ9ADAAAgg+TmjbepzphRIRFTY1ZdYssBABhYCHoAAAAAAABfIugBAACQQdauesCmztbsGafbNAAAiIegBwAAQKZovldL7rHpScUqzrVpAAAQV8JBjyeeeEJNTU2e25EjR+yeAAAASLmoR89eojWPzhUxDwAAOpdQ0GPnzp2aPHmyJk2a5Lk9+eSTdm8AAAD0yD1XhB43G7mFAx6Tbtaug1Wa7u4IAAA6k/BIj0OH3rGpox06dMimAAAA0Fsm37FRbYzwAAAgYQkFPXbv3q3XXntNb7/9ttra2myp3LQpe+2119XS0mJLAQAA0CNX3tfxuNmD92meLd5yzfkqW2czAACgSwkFPf7+97/rlVde1csv79f+/a1ukMNsJm3KzHvPPPOM3RtIcy01KiysEWE6AEBmmKranTdrss3dPbNEy5ptBgAAdMoz6HH48GH9+c9/dtfqOHDggJ5//gW9+OJLeumlfzqvoS2Ufsl9780333T3NceYY5NmOqLZ2cpu3ypUb9+KkkiHlU7twFFfEfGdcbYK+61JxXcg0e8kAAC9LXeuNq+6xGa2a+FZlVprcwAAwJtn0OOVV15Rc3Oz9u7dq3/84x/68Y9/pHvvvVf//d8/0F131bibSZsy896zzz7r7muO2b9/v60lSROr1NjaqlazrZRK43VaA+Vav75cAZvFwNVSU6jsUmll+DvjbCu1uvuBiXiBkkS+kwAA9IVpVVpzpU3rAc04714x4AMAgM55T2/Jkj417ZM655wPa9asz+oDHzhNo0aN0Hvec6qGDz/F3UzalJn3PvvZz7r7mmOkjnU/uq2oWHMagtptO6I1FfaX9nDHNKo8tIV+5G9RTVmlGhoqVeCUFdbQRfWnFq2rk6oaq1VkS4yiapOP+Q4sXhz9HbL7Ji38nbRZAAD62vS7NmrpJJvZulhjv7bBZgAAQDyeQY/jjjtWJ7/7FJ100ru1f/+r7rSV8HQXM6rDbOHpLGYzozvMvuaY4447ztbSfS01t2n5xDydYTJO5zVYbH5tj+7gdpSbX+HnaPlt5lf4gMprqzTR/kK/vpwxIb7Usk51DfnKi/vxxnwHLj3F+zuUhKjvJAAA/eJ0LXi0Y2FT82hbFjYFAMCbZ9Dj7bcPaufOne72zjvv6Mwzz3S3448/3l2/w2wmHS43+4T3P3iwm4+wtb/Mm1EbBXUlagxPY3E6r/Pj9VQjy8/I00SbxACRTADC6zukelXY71x2QcfoEJMv/Ok/vb+T8J1RY8I/nXZfKuow/FgP9+SNtvHGPXmZqt8Mz+5iYdMNKhs6RlnhbeYDttzsH1E+9Mwerw3C5+2NtvGWbvWkgh/bhnvyRtt4S7d78gx6DMoapLFjx7rbpz71KZWVlWnevHn65je/qZtvvtndTNqUmc3sY/Z917veZWvoBvvLvDtyg84lOhPIU35Dndb1ePZSkarD37nGjtEhJu+OEOE7OWA8t2erTXVfKuow/FgP9+SNtvHGPXl77tkduv+Os23OLGw6ppsjPmbZ1+7j8/ZG23hLt3pSwY9twz15o228pds9eQY9Dhx4Uy+9ZJ7M8ryuueYanXXWWRo/fry7hUd3hPP5+fnuPmZfswDqG2+8ZWvpR5FrL5j1PyLXcugqjwxQpPlVUmVB9OdWXxGRZ/0NAEBGmarag3vUZra7ptoyb7nz60L72q12mn3DFVFXp1uVptsjAADwI8+gx/79r+mZZ55RMBjUhAkT9JWv/Lt+//s/aNOmLdq69TF3M2lTduWVZe4+Zt+33npLra2v2Vr6SaBc189ZrlIzRYGFTH0rUL5ejVVN7ufsTk9xtlIVh9bsiPwOmGkqAAAAAIABJ2vbtm1teXl5NhvfD37wA33oQ2frnHPOcRc4HTx4sFt++PBhvfXW29q27TE9/nijvvrVr7rlnTly5IhNSYMGecZcAKSY+dsL/82ZAOWmTZs0evRod7SWeR02bFj733ZXtm/fblPJCwQCysnJ0ZJbq7Xohgpb2jlzvSNGjLC5aPv27ZP5N8yt7+oSWwoAANC5q65t0NLqJjc9ZMggHTpwuZsG4C8JRR3Mk1n+9V//RSeffJJOOOF4HXvsUHczaVNm3jP7AAAAAAAApAvPoEdbW5sOHDigF198UdOmTdOOHX/Rxo0b9fDDD6u+vt7dTNqU7dixw93H7GuOMccCAAAAAAD0J8+gR1ZWlk444QQNHz5cBQUF+uhHP6qzzz5bEydO1KRJk9zNpE2Zec/sY/Y1x5hjAQAAAAAA+hOLagAAAAAAAF8i6AEAAAAAAHyJoAcAAAAAAPAlgh4AAAAAAMCXCHoAAACg/zXfqylDxyjL2abc+bQt7Efpdj0AgG4h6AEAAJAWNqjMdrK9txIta7a797untey80HWVrbNF6WJdZUy7dWxpd60AgF5F0AMAACBjbNfCs5zO+3n3qt9jH80Pa8VWm04X4WDHzAdswdHunknwAwAGEoIeAAAA6ebK+9R2cE/Mdp/m2be1dbHGfm2DzfQDM/XjrMXaYrPpoPnOkqhgx7xVse3nbKsuse+Ggh9MWwEA/yPoAQAAkBGmqvbgRi2dZLP33NnHU10ipt+kWcDDjPAYe812m7lEaw7uUe00m400rSoqeLTlmvMZ8QEAPkfQAwNPS40KC2vUYrNJS/T4+gplZ2e7W0W9LQMAoEdOV/FFZ9v0dq1Yw0gFd22RW8IjPM7W0p1Vmm5z8U1V7c6bNdnm7r4lDaYKAQB6TfoEPUxH0nYQQ1uF4vYTE+lweu1z1DnseSL376z+RM4d6ajzedwTui8isOBu4ehCsp+Vl5jPsLCmkxqjzlmvitImVTW2qrW1VdVnJHE9fG/6xagx4Z9Ouy8VdRh+rId78kbbeOOe4svNG29TPZfc9ZiRJvGniqTCqPOX2ZSX6IVe26emrKvVQru2yOQ7lur2CxO4p9y5uv8OGzzauljfjRnt4dku8RZI9Zpm1HyvjrX7hK/VnYITeexRC9N2LA7bvp13r96TRt+/dPpbMFJVTyr4sW24J2+0jbd0u6f0GukxsUqNTgfRdBJbV0ql8TqJgXKtX1+ugM0mLfIc7latop7W2ZlE7gnd0lJTqOxSaWXE57lSq7sfIDgqUFKvioI6ldjARavzAeYHd9v34oj8HrUE1aR85SXypTrqvA6+N33uuT09X40vFXUYfqyHe/JG23jjnnpfOl3PcxsX2FQ8JuBxhe5202Y0xx5tnn+6m1u7qmOUx+wZpyd8T7kzijtGe6yKDlwcVcdfa0OPr423QOo9VyhraKXW2mykD9vX8PEdU3DCQgvTukERN6ByfnsAp93WxXpx79S49ScrFZ93qr4z6VZPKvixbbgnb7SNt3S7p/Sd3lJUrDkNQe22HcKaCvuLd7iDGFUe2kI/8reopqxSDQ2VKnDKOv1lPqy909nZsXHeM8fZcyf0a3z4npyk22FvP7ZQ7aeKqtPZwp3dqPKI/QesFq2rk6oaq1VkS4yiapOP+awWL47+Dtl9ExMZuChSdXXH2dbFfvfav0cmWOKcX8tVat4vXKzFyX4nI0V8bwAAiO3kx9XJI1u73NLhyTBRzOiHyIBHnRbkuhnH03rqCZvUeI1rL09A7hmaYJN6Ynen97zlngfcNUwm37GxY6SLs+0KjxbRA1rSyaKo4eOjFleNmGJj1hYJBVRCAZ32fdpH0zygGf25cC0AZLC0DXq01Nym5RPzdIbJOJ3FYLH51Tu6g9tRbn4Nn6Plt5kOZ0DltVWaaH8pX18e81O77Xi2BxWiOsGdHRv73m63Y5u/MnT+xqomlXaxcEPkPQXK14eu22wr81V5pzk21FkO19na6JzPPdKUB3V9eP/GEtWV2WDIQNWyTnUNXiMpYj6rS0/x/g51qkjFc2zgIvazjfvdCytStfnswqM11t+smzv7TnYh6m8BADCwNd+rJffY9KRiFSfTyc9IJuARHv0QG/Aw/qYnwz8ETsrVWJtMzAd0Znjk9NZm7bLJuCbdrF0HO0aXhOXOr9OaK0PpLdfUeo/GsMdHLa4aOcXGcJ/YE3N/06ra69c9v0/JaA8AGGjSK+gREZAoqCtRY3iqgNNZnB+vpxpZfkaeDRB0IdwRbd+S6QRHMNMXIs4fmFaiicvjTK3wuqfIkRuly6WmoFpi6mznTpWwnW+zmVEE/PLvfJZJBAK8vkMmoBTVrh2flxmRUVRtvyfFq0P7hIMf3fnuRenkvD/9p/f3BgAwcEU9JvYSrXl0rjxjHu5TSiJGDCSzdVZvn+oq4NF3Jl90oWebjB0fDlz8VU95DBfxOj5yfZZ5M6faVLRE6gcAeEvfNT380smLd08m4BG5VkR4RMfuoBrMazyR9bhbN4M1fhHIU35Dndb1eLhLkarDbRo5OsPZokZkFFU7ZSs1J15gq1s6Oa8ZmeLHvwUAQOLcdSJipp2EAx7uqIGunlCS6f6WNgEPAEBmS981PXqqJyMhOjs2/J7b6a6UOyvF0bKuTg1zihMPREws0TTbk3WPNQl37YY4HfmYc0VxR4xETNHpKu8bRZpfJVUWRN9bfUVEvqejYUzbRU5rcUfi9GCaCaNzAAA95K4pkTYjMXrPlmuu6FjQ88r5aR3wSOXTdAAAqefPoEegXNfbtRiSXjSys2Oj3jvDXbehqdROQajM18qIRS47ZerJ75i+UBbMt9MjilRt1vcoCJW70x7C5RHncrfwAqcDmFkXxV1LJdwmzlYqG3iK/KzMdJHuCExTSVNpR5ub0Tm13Rx10ZPvJABg4HHXdwhPOblP82yxWfCyLObxqr53zxUdj6c9ShLrchylJ+uBAAAyRda2bdva8vLybLb3HTlyxKakQYP8O9AkJeorlL26WK2JBlOATpi/vfDfXDAY1KZNmzR69GiNHz/efR02bJgGDx7svt+V7dtjH7mXuEAgoJycHC25tVqLbqiwpZ0z1ztixAibi7Zv3z6Zf8Pc+q4usaUAkIkiHstqgh53RazxELWeRwLTPczTW+I9XjURZvpMIqNJIs5hnkoStUhnd0Teo3v/inlMbfx7Xvu1MZrhLu6a5DSYo84Xs6ZGxPtmhE3sIqbt2tsh5vyJHJ9AGzbfWWIfdcs0n1S76toGLa1uctNDhgzSoQOXu2kA/kLUIc3URzwGNbtUiY8eAQAA/pU7V5vbH1+6XQvPqvT1kzwmj/+A8/+nqrb9sa7e9zx9Zke7rFjj/djYWM1rVtsgkvciogCAzEfQI820Py3E3Qb4YqUAAKBD5ONL9YBmnHevPB/m4Yuntziigj0e9zytTEvtFJct1yzUskSecNJ8ry5zR084Jt2sa3s6SgUAkLYIegAAAGSI6XdtbO/ga+tijf3aBpvxschgT9x7Pl0LbkxmFMwGlbVPFZLm3ej/hWEBYCAj6AEAAJAxnA7+ox0Lm5pFPgfCwqZRwZ54C5tOq9KuO862mQc0Y+iYuIufmvUxstrXCQmttdHjtUgAAGmNoAcAAEBGiVzrQrp7ZkliUzp6zCy0OkZZ4S1iodS7Z0aUD+2N9Uaigz3xnmKTO79Obe1TYUL7dFxTaAstCBpiFg71XJwUAOAbBD0AAAAyTe5c3d8+ssFM6RgzAEZ8xAZ74txzeC2TiOBHLBPsMPswwgMABgYeWQsMEDyyFgAAoAOPrAUGBqIOAAAAAADAlwh6AAAAAAAAX+rX6S179+61KQC9beTIkUxv6cSoMZP03J6tNtc9qajD8GM93JM32sYb9+SNtvHGPXmjbaKlenqLn9omjHvyRtt4S7d7Yk0PYIBgTQ8AAIAOrOkBDAxEHQAAAAAAgC8R9AAAAAAAAL5E0AMAAAAAAPgSQQ8AAAAAAOBLBD0AAAAAAIAvEfQAAAAAAAC+RNADAAAAAAD4EkEPAAAAAADgSwQ9AAAAAACALxH0AAAAAAAAvkTQI6ylRoWFNWqxWQAAAAAAkNnSJ+hhgg7Z2cqO2gpVQxQCAAAAQIo8tu0lXTbnUa373T9siXT48BG37JZb/8+WAPCL9BrpMbFKja2tam3f1qs8YN8DAAAAgB76+zNv6Mc/bdGTf33VlkhtbXLLflf/nC0B4BcZML2lXhXZ2SoMD/lwR4SERoC01BQePSrEnaZSoYrCUHlFfYtq2tNHv99eHilq1EnHaJOo8zEVBgAAAACAtJZeQY+GShW0BxvCgYUiVTdWSZV3qt7J1ZTVqaQxNAIkUL6+Y1TIynxnFxu9aGhSXq0pm6PlpWVSOH2bDVSE33ePM/tUOHWH1auiIKjrw/U2lqiuzDmupUZllflaactX5ge12x4BAAAAAADST3pPb1lfLnd2S6BctVVNKs0uUF1JbceUl8gRGaXLpaZgKKgxsUTTzD5n5GliZNq8Z4TLjKJizVGTgn+3+Zagk1vunMvWW1CphoagdgfylO+WhwIkRdXVKgodAcAHRo2ZZFPdl4o6DD/Wwz15o228cU/eaBtv3JM32qZ3+bFtuCdvtI23dLunDJjeEhLIy7cpywQ8CsyoDxsgaazqCGr01FFri5gAR5Gq3XSxVrsBkcjRIQAy3XN7ttpU96WiDsOP9XBP3mgbb9yTN9rGG/fkjbbpXX5sG+7JG23jLd3uKUOCHvWqKJVWtq5UfmVZxxNdIkZstKyrU0MomZz61Vpu6jnN5s2IjoZKhWfKtGupUYV7YhP8aFTVxCYFWdQDAAAAAIC0ld5reriLiJqFTE3Ew462MGt3FFSoPlCu6/M79i8L5ic+0iPyPKbq8DQaV2gNkabS8DU4m1lbJJAn58S2LGaaDQAAAICM8C8T3q3v3f4RnXfue22J0ykalOWWlX91vC0B4BdZ27Zta8vLczr0feTIkSM2Zf5x6YeYi5kWY9Y2jQp0AP5n/vbCf3PBYFCbNm3S6NGjNX78ePd12LBhGjx4sPt+V7Zv325TyQsEAsrJydGSW6u16IYKW9o5c70jRoywuWj79u2T+TfMre/qElsKAADQuauubdDS6iY3PWTIIB06cLmbBuAvGbOmBwAAAAAAQDIGXtAjUK71jPIAAAAAAMD3GOkBAAAAAAB8iaAHAAAAAADwJYIeAAAAAADAlwh6AAAAAAAAXyLoAQAAAAAAfImgBwAAAAAA8CWCHgAAAAAAwJeytm3b1paXl2ezve/IkSM2Je3du9emAPS2kSNHatCgUJwzGAxq06ZNGj16tMaPH+++Dhs2TIMHD3bf78r27dttKnmBQEA5OTlacmu1Ft1QYUs7Z653xIgRNhdt3759Mv+GufVdXWJLAQAAOnfVtQ1aWt3kpocMGaRDBy530wD8pV+DHuEOGIDeZ/72CHoAAACEpG3Qo/leTTlrsbbYbJQr71PbXVNtpitPa9l552vhVmneqj2qnWaLgQGGqAMAAAAA9DcT7Bg6RlleAQ/jniuUZfYZWqJlzbbMS/PDWrHVpoEBjKAHAAAAAPSndZXRwQ4zouPgnuht582abN+WtmvFmqdtOo7ORosAAwxBDwBwjBozyaa6LxV1GH6sh3vyRtt445680TbeuCdvtE3v6va1mADFzAds5mxlDx8ZfwpL7lxtNsGPVZfYglgbVOaOAulitEgS/Ph5+/GeDNomPlMHQQ8AcDy3p+fjP1NRh+HHergnb7SNN+7JG23jjXvyRtv0ru5dy9Na9uWOAMW8VXV69dku6plW5Y76mGCzvcmPn7cf78mgbeIzdRD0AAAAAID+sK7WXWjUdeV9iS82mjtXtfNPt5mwqaqNnA7jOSIEGFgIegAAAABAP1i7KjytRZo3M9GnsgBIBkEPAAAAAOhzT+upJ2xSl2gWj5QFegVBDwAAAADoc3/Tk+GpLZNyNdYmAaQWQQ8AAAAAAOBLBD0AAAAAAIAvEfTAwNNSo8LCGrXYLAAAAADAn9In6GE6otnZyo7YKurte+mqs85zzP0U1nTRxY6tKzLf2XkGuvqKqO9MdvhLQ5sBAAAgrX1AZ06yya3N2mWTAFIrvUZ6TKxSY2urWs3WWKWm0gwIfMRVr4qCOpU02ntpXan84G77XjcEyrV+fbkCNouQlppCZZdKK8PfGWdbqdVO63cTgRIAAAD0mdM17oM2qQf00DqbBJBS6Tu9xXT0TeDjtojRDu2/6FdEdGzrVRHxS3/F/TEd13BH1n2tUEWh3a++RTXt6Yh92+sqlDs4wx5fUxEuD+/vHF9WqYaGShU4ZUeP5MhXXnuUokjV1UWhZLxzHFXXhuj84sUR9xDvWkwVkfU6m20DNzAQU+YPLVpXJ1U1Vjut26Go2uRj2tO2X6jdIr87AAAAQP+ZPvMSm5LuXrXBpgCkUnqv6RHIU35DULvdkROVyl8Z+jW/sapJpW5v3wQu3J/623/pr/5Y6NC4GpqUV+vst3KOlpeWSeG0G1gx5wjqeltPa2OJ6spskMDpPAeLbXn7/gGV11Zpoh2dsr48chxGkYrnLFepCTREDVXxOkdsXVOj85eeYo93xL2W6PYxo2Qmmn1balRWmd8+EmJlvmlLn2hZp7qGyMBSpJj2NO3X3m7RQRIAAACg30wr09LwFJd7rlBZoqM9mu9V2Z1P2wyAzmTGQqYtQTU5Hdj5trcamFaiictXq950fNVR3qWJJZpmOsln5Dkd4oi0ec+cQzZQYbYCM1LABgkizt2+fxeKqm0Aonh1qD4T/OjsHImKdy0x7dPOBI3c84VGN4RGQfjIxDydYZNditc+roiRQu7nERodYvJdrsMCAAAA9MjpWnBjxGiPmSVa1mwzXtZVKuusxdphswA6l95BD7czn0THtqecjnH7miLuloIgQVG1U89KzTFBGpPvjXPsDqrBJqMVqdo9R7FWux15H03tcEcB1Wldj+MS4TZyNjNCJuLziR69AwAAAPSCaVXadcfZNrNdC88ao6yvxZnq0nyvpgx13pv5gC0AkIg0DnrYKRvXlyvgdnArdaftsbesq1PDnGIVBaapRB3l7SJGT7j72nSnYs6RsHgjNcz6GpHTWsLBm67OEVtXoqNAioo1J14AwLmOCne0gunYN6pqYpOCJuuu/xERAOkqn5aKNL9KqiyIvs76ioh8sqNo4smItgAAAEAmy51fp7adN2uyzZupLlkmwBG5nbVYW+zb0iVaNP90mw7boLLI/SOCI3fPjCgfWqm1thwYCNIr6BExtSA7+zblNbYqtP6n02m3T3Mx7xWYdSrcN0JrN4TLzVaxu1y1Zs0Pmy8L5ic0HSX2HO7W1cKfgXJdb9fuiJoKYYIxTaUd9ZgnudSap690co7YuiLzP/2nW603p96V+aosCJ+vMhToCeSZqIA9V4HqSmrlp8ELgfL1ofVd3PsLbaUqdlrDfTOJ9gMAAAD6We5cbT64Jzr4EWPyHRvVZvY5WKXptgxA57K2bdvWlpfndI77yJEjR2xKGjQoM5YUyTj1FcpeXazW8BNjAIf52wv/zQWDQW3atEmjR4/W+PHj3ddhw4Zp8ODB7vtd2b59u00lLxAIKCcnR0turdaiGypsaefM9Y4YMcLmou3bt0/m3zC3vqtLbCkAAEDnrrq2QUurm9z0kCGDdOjA5W4agL8QdfCJ+ojH2GabB9oQ8ACSMmpMeOn07ktFHYYf6+GevNE23rgnb7SNN+7JG23Tu/zYNtyTN9rGW7rdEyM9gAGCkR4AAAAdGOkBDAxEHQAAAAAAgC8R9AAAAAAAAL5E0AMAAAAAAPhS1Joey588xn3tTW1tbTblnDwry6YA9LbLx73Nmh4AAAAWa3oAAwNBD2CAIOgBAAAy1W3f3aFnn3vD5lJj0//u0+P/97KbHjQoS+VfHe+mU6niG/kKnPEumwPQHwh6AAMEQQ8AAJCpPnTOQ/q/v7xic5lj48PTdd6577U5AP2BNT0AAAAAAIAvEfQAAAAAAAC+RNADAAAAAAD4EkEPAAAAAEgXzfdqytAxyoq3fW2D3am/PK1l54WupWydLepXHdeT8NbvbYi+lnlBj2f+S0uv/C+9aLMDTrL3P9DbCwAAAMgE4WDHWYu1xRYd5Z4rbOe9RMuabVlfan5YK7baNJAh0ufpLaZzftF1etpmQz6qkl8+ogtG26xh9vu29KVvST8xr/d8Q8PDZSZtd4uy+euqWHivzThmPaTqLwU7PyYRkeft7Bpi7u30BU9o4RcDNpekru41VrL7Z4qYNg2Zq7I/fV9n6Xd68KOztDmqDDy9BQAAZKq7/vtJPb/vTZvLHHPnjNOY04bZXCfWVSpr5gM247jyPrXdNdVmLBMUiQiITL5jozbPP93m+kDM+eet2qPaaTbTb8xIj/O10ARiJt2sXY/OVW7oDaBdegU9Eumcx9uvk2Nf/NkF+s6yD0Z1fHdWfV2qTHFH2PMaTAe8SiPagzdOvkq6uPJT7rtJS7SdwpLdP1N43leLHrnyg9r35Td18RQnawJePxynm/x2/91A0AMAACANRQUTztbSnXVa0FnP3QZI+ibosUFlQ6/Q3TYXiaAHMkVmTG8xHdyPHq8Ks4V/3Tdl7rQNp5P7badsx3X6jvP+0p+1uIeEtKjpYankl9EBjrNMwCN8vH19pMrU/3XtdPcwgQp7Pmd7cFX4XFbMsZ1fg/FBvad9tMqnbMDDdM6dukPDERzmnBfokQZT59f1oPOee+7Nof1CaburntIfbFmFOeYZW2yuxy0zW/heBppm7dsxVxNMwMOY8hlN2fEU03sAAACQhpxO+5cjR090EfAwplWpbefNmmCzADqXXkEPGzQIddqdzQ0o/E4PXnSdRi19U9V/crZf3q7oeGZAF3zLKZtwu25y3o+aNvLMGjXuiAw4eHDOu+98U78JjpggwywpfD5nu7jA7uepk2vQpzRh1r2qNfdT9TtbZjjHfHmuNm+0ZZt/o82zKnXBSCe94wmN+JZz7qXO+wvnSuH0D23gJfy+c66bFkh13z66nW5a8IRqo87nQ7Hfl/ZAzxN6IRwIUq5GTIjMAwAAAGliXW1olIJx5X2Jj5zInavaPpnaMlW1B/eoLbytusSWp0jEoq1T7rQT181IFlvWvrH4KHogvYIeNmgQDjZUmykJzwT1nFP+ifAv98maMK7raQ2R9ZtAiXpwvjjOqrT3c/5vQp3zcDDCjEJ46DduR33nRucP/nw75WVCqfJNoGb0OJ0emXbfdITLHMM/XqrTzUiGmHZyy23dvhX7fXGDVp/Sxb8sVeNF4UDIB1WXSOALA96oMZNsqvtSUYfhx3q4J2+0jTfuyRtt44178kbbxNef17J2Vcc6HvNmhtbwGLBt89faUAAkcm2TMHcB10qdkmn3lIB0qsev95QZ01u6a3SeRu1YqaZ0+ZV/yvedjvlD7YGO8CiQHZt/px0PRUzJQM+M/oYWhgMhZmRQIoEvDHjP7en5UuSpqMPwYz3ckzfaxhv35I228cY9eaNt4uu/a3laTz1hk7pEs+woj25fT8wIib1790blO93Ou1fxHgbTl22z5Z4H3Gk+Zq2S9pElzrbrjrNDO+gBjbv65zbdff33eceXTvX49Z7SP+gRE7h48X9Xhtb0iBV33YZP6RNm+sdF0etbmIVMPUdAjJ6hAl2nP7Svn2FF1J/UNZh1NiKnmbgjMjo64Wd96XY9t3CWnluwsFsLq7rXMuszOsttp47rbi8PZQeo0ForunAGQQ8AAACkmb/pyXCfblKuxtrkgGUWIj2456jFWXPn12nNlaH0lmtqtTaUPNrWxRobL6ATs5Wts/tjwMiMR9Y+0/HI2dNnzXX6suOiH1nrlO+sOl61D8V/HGzoCS5/sjlH5CNrY+pxxVzLlKVv6hN7OupI7hrMGiFmioXNHvUYXvO+WbfDlplzh+uMlzbnjGwnM8UjfO1R120f1RpZh1vuE53dV8Qjinv0eGCf4ektAAAgU62s26N//vMtm8scn/n0aRo58nibixXxZJRMefJIxKN1U/L0logn13T2NJrmO0s09hrz35+xT7eJeHpLgtLjqTPoS+kT9BioeKQq+ghBDwAAkKk+dM5D+r+/vGJzmWPjw9N13rnvtblYBD1SGvTgkbXw4O81PTKAu4Dplwl4AAAAAEA8uXnjbQpIHkGPfmae7HIxC5gCAAAAA8wHdGb44RRbm7XLJgGkFkEPAAAAAOhzp2vcB21SD+ihni6wGfP0lqQ2j6e3AH5A0AMAAAAA+sH0mZfYlHT3qg02BSCVCHoAAAAAQH+YVqal4Sku91yR+ONUm+9V2Z3Rz73UtCq1HdzTvY0FQOFjUU9v6QtHjhyxKbU/SQJA7zN/ezy9BQAAZKKrrm3Q00+/ZnOpseOJV9TcEqrTPFRy1szT3HQqfWfxh3XWmSfZnIeIJ6Ic/XSSOOz+nT3tpNf009NbOs7L01uQPIIewABB0AMAAKCDCaQsrW5y00OGDNKhA5e76f7Q8UhW68r71HbXVJuxIgIEBkEPg6AHukbUAQAAAAD6Ue78OrXtvFmTbd5MdTlqsdGIgId0iRb1ScBjg8oir8EGPIy7Z0aUD63UWlsOpBuCHgAAAADQ33LnarNZXyMy+BHDjIYIrcNRpem2DEDn+nV6y969e20KQG8bOXIk01sAAACsdJreAqD3sKYHMECwpgcAAEAHgh7AwEDUAQAAAAAA+BJBDwAAAAAA4EsEPQDAMWrMJJvqvlTUYfixHu7JG23jjXvyRtt445680Ta9y49twz15o228pds9saYHMECwpgcAAEAH1vQABgaiDgAAAAAAwJcIegAAAAAAAF8i6AEAAAAAAHyJoAcAAAAAAPAlgh4AAAAAAMCXCHoAAAAAAABf8mfQo6VGhYU1arFZIArfDwAAAAAYENIw6NGimsJsZaeiU9rdzm3kcanqIJt6sp37slthTRc1xp63N67JD+or2tvU3SrqQ+W0EQAAAAAMeOkX9GhZpzrNcf6vTut62mMNlGv9+nIFbLZbUlGH6lVRUKeSxla1tpptpfKDu+173ZCSa8p8LTWFyi6VVrptGtpWarXT2t1EoAQAAAAAfCXtgh4t6+qkkvkqzm9QXTjq4XZGK1RhRoDYX/TdH/S9ysOiOrH1qrD7hPdzO83tZYUKDb5oUU1ZpRoaKlXglBcuXtxRh6mvff+KUOfanqOmIlwecw3t8pXXHqUoUnV1USgZVafHNdRsiH9NnZ07ql5ns/cQdc/h+8pILTJflarGaqc1OxRVm3z8zzDUTvZzAwAAAAD4XpoFPUId2ZJpARUVz1FD3bqOTnlDk/Jq7S/6K+doeantvHqVRzFTZtwhAe0jAkzMIVC+vj3fujJflXeaIwMqr63SxIlVanTK1196SqgKEzQpqFS+raOxqkml4QiD07kOFofrca7htthgQpGK5yxXqQk0REVETJ1BXR++hsYS1ZWZY2OuoXyqxzU54p47+lpbG51jzb4tNSqrzG8fGbEyP6gejDfpX2ZEUENkIClSnM+wvZ2igyQAAAAAAP9Kr6CHO7WlRNNMR7aoWHMaIqa4TLTlhnlPTQr+3Ul7lUdy663S/NjebuRoiNLlUlMwJlgRoSWoJqcTHa4jMK1EE5fbqRQR5TojLxRgiFFUbQMQxatD53OHmjh1ygZDzFZgRickGYiId+6Ya20XyFO+e75QYCg0KiKDTczTGTbZpXjt4YoYAeS2f2h0iMl3ue4KAAAAACCtpVXQw0xt6eh0ljrd84gpLqlmAh6R62yER0P0tqJq53wrNSciYGJGI7jX4G4pCETsDjotF0+Rqt1zFGu128YZPNXDBHAig2LdFm4TZzPfgYjPY3153GEkAAAAAIAMkUZBDzO1pUFzIqagmOkaUVNcwupXa7kZ4XGazYd5lQemqUSVcmevRIoYJeIGXELJkNgRF24nu6MOd/85xYkFKEyAJXJaizsSI09nxNR5lNhrSHQUSOwomTDnOirc0Qumo9+oqolNCpqsO+IlIgDSVT4tFGl+lVRZEH1d9RUR+WRHzcQVepoQoz4AAAAAIPOkT9Aj3hSUcOfdTFeJmHbgPrEj/PQSr/IooTUemkrtfs5Wsbtc1+d3HFsWzO8Y6RFw3rNrcBT+9J+2sEjVjR11FJi1McKLkXbFBF2aStvPnW1GmNSa64yu093Ci4tGXoPpcMe9Ji9OvWaNkoLw+SpDAZ1AnokS2HMVqK6kVpk8mMGsyeKureLeT2grlQ1EJdVendmtYMNEd50ZAAAAAEBmydq2bVtbXp7TGe4jR44csSlp0KAEYy5mpEGZVBsb0PAqR7T6CmWvLlZrokEadPBR25m/vfDfXDAY1KZNmzR69GiNHz/efR02bJgGDx7svt+V7du321TyAoGAcnJytOTWai26ocKWds5c74gRI2wu2r59+2T+DXPru7rElgIAAHTuqmsbtLS6yU0PGTJIhw5c7qYB+EtaremB1KmPeIytOwKGgEe3tASbNKeYthsIRo2ZZFPdl4o6DD/Wwz15o228cU/eaBtv3JM32qZ3+bFtuCdvtI23dLunzBjpAaDHGOkBAADQgZEewMBA1AEAAAAAAPgSQQ8AAAAAAOBLBD0AAAAAAIAvEfQAAAAAAAC+RNADAAAAAAD4EkEPAAAAAADgSwQ9AAAAAACALxH0AAAAAAAAvkTQAwAAAAAA+BJBDwAAAAAA4Ev+CHrUVyg7O9vdKuptWbJaalRYWKMWm+13fXE96XbPAAAAAACkUPoEPUwH3AYuQluhahLqjderorRJVY2tam1tVXWRLe4tMddZmNhF9o6j2qzCaY0uEOgAAADAAPaPZ9/Qg7/4m54KttoSqa1NbtkfNuy1JQD8Ir1GekysUmNrKHjR2liiuoJEOvFBNSlfeQGb71X1qiioU4kNsLS2rlR+cLd9r59EttlKqZSABgAAAODpTw0v6QuXPqI1a5+xJdLhw0fcsm9/53FbAsAv0nd6SyBP+TbpihrVEB4FYoIQlWrQcpWa8o9foo87nf6aiohRD3GPM8WFtszZIgIF69xjQ1v8qTKRAZYiVYeHliRynnC5HW0RdZ3mXtr3c879R7cwgeuJUFSsOQ1BmTBM3PM6d1lT5rRXQ6UKnPLCn/7TFCZ3DgAAAAAAMkT6Bj3qV2v5xDydEcqooiCo6yNHgZSZQEWRqhurNDE82uFHH9NxToc+WGz2q3be9TiupUZllflaactX5ocCBWo/1tlWztHy22JHTRSpeI4NsERFB7yuTwqUrw+VuXXmq/JOe1zUdbaoprBUzgW171v9sch9zLHxridaS81t7W0W/7wBldd2tNf6S09J+hwAAAAAAGSK9Ap6OB1wMwLBHXVwW54a15c73XSHO4XFBhvMZkZ32BENR3E69PPD63p4HeeOIjHloVEWRdUm8OCIPPaMPE20yUhF1TZAULw6VKcJfnR2fZEjQEqXS03BUFAh6jrXqU4R+bAErieyzQrqSiLazOO8sRI5BwAAAAAAGSg91/Qwozdigxrh99o3G6joStzjilTtpou12g0MJLB2SKyiauf4lZqzfHXo2HjnMYGHyDVAzH25B6dQ5HkjAx69fV7AZ0aNmWRT3ZeKOgw/1sM9eaNtvHFP3mgbb9yTN9qmd/mxbbgnb7SNt3S7p/Sc3hIo13qzKGc4GGFGZjRUKjwzJGFex7XUqMJd5MIEPxpVNbFJwb+H3uqUCSZETmsxIzzMdJLOrm9iiabZNUBa1tWpIZSMFpimEnXj/jrT2Xm9RslEMvcaGQzqKg9kuOf2bLWp7ktFHYYf6+GevNE23rgnb7SNN+7JG23Tu/zYNtyTN9rGW7rdU/qu6VFUrcaqJpW6i3CG1u5oKrXTNcyW0FNKPI4L5EmVBbasQHUltSo/zR7SGROcaCrtqMuMpqg1oyu8zlOu6/M7pp+UBfM9RlyE1tqIPD68kGm3dHZe855dlyS8kCkAAAAwUAw/9Vh9YupIjR49zJZIWVlZbtnZBafYEgB+kbVt27a2vLw8m+19R44csSlp0KD0jbkAfmP+9sJ/c8FgUJs2bXL+x360xo8f774OGzZMgwcPdt/vyvbt220qeYFAQDk5OVpya7UW3VBhSztnrnfEiBE2F23fvn0y/4a59V1dYksBAAA6d9W1DVpa3eSmhwwZpEMHLnfTAPyFqAMAAAAAAPAlgh4AAAAAAMCXCHoAAAAAAABfIugBAAAAAAB8iaAHAAAAAADwJYIeAAAAAADAlwh6AAAAAAAAXyLoAQAAAAAAfImgBwAAAAAA8KWsbdu2teXl5dls7zty5IhNSXv37rUpAL1t5MiRGjQoFOcMBoPatGmTRo8erfHjx7uvw4YN0+DBg933u7J9+3abSl4gEFBOTo6W3FqtRTdU2NLOmesdMWKEzUXbt2+fzL9hbn1Xl9hSAACAzl11bYOWVje56SFDBunQgcvdNAB/6degR7gDBqD3mb89gh4AAAAhBD2AgYGoAwAAAAAA8CWCHgAAAAAAwJcIegCAY9SYSTbVfamow/BjPdyTN9rGG/fkjbbxxj15o216lx/bhnvyRtt4S7d7Yk0PYIBgTQ8AAIAOrOkBDAxEHQAAAAAAgC8R9AAAAAAAAL5E0AMAAAAAAPgSQQ8AAAAAAOBLBD0AAAAAAIAvEfQAAAAAAAC+RNADAAAAAAD4UvoEPVpqVJidreyorVA1Lfb9WGb/whq5b0emAQAAAAAAHOk10mNilRpbW9Xavq1XecC+FytQrvXry+X1NgAAAAAAGNgyYHpLvSqys1UYHvLhjggpVM2G8OiOFtWUVaqhoVIFkfsBAAAAAIABLb2CHjZw0T69xQ1qFKm6sUqqvFP1boCjTiWN61V+mj1GAZXXVmmiHSWy3nNoCAAAAAAAGEjSe3pLePpKoFy1VU0qzS5QXUmt95QXAAAAAAAAKwOmt4QE8vJtCgAAAAAAoGsZEvSoV0WptLJ1pfIry+I/0aUhqN02CQAAAAAAkN5reriPrDULmZqIR7WKzPoeK/NVWVChenuIK1Cu6+csV6lzDAuZAgAAAAAAI32CHuYRtJHrebibeWRtkaqddHWR3a+o2imvVlHMI2uLqkPHsJApAAAAAAAwMmZNDwDoTaPGTLKp7ktFHYYf6+GevNE23rgnb7SNN+7JG23Tu/zYNtyTN9rGW7rdU9a2bdva8vLybFHvO3LkiE1JgwYRcwH6ivnbC//NBYNBbdq0SaNHj9b48ePd12HDhmnw4MHu+13Zvn27TSUvEAgoJydHS26t1qIbKmxp58z1jhgxwuai7du3T+bfMLe+q0tsKQAAQOeuurZBS6ub3PSQIYN06MDlbhqAvxB1AAAAAAAAvkTQAwAAAAAA+BJBDwAAAAAA4Et9HvQwawqENwB9h785AAAAAAMNvSAAAAAAAOBL7tNbbBrAAMLTWwAAwEDG01uAgSFr//79RwU9Xn/9dT3//PPavXu326F444031NaWWGzktdde0/Dhw22uc79/+FF98sLzbA7oXYcPH9E119Rr0qT36eKLP2hLk/Pgg09o69ZndccdRRo8OLMHSr3rXe/SyJEjlZub676aoEeiU2AIegAAgExH0AMYGOIGPd566y29/PLLevbZZ/XKK6/o7bffTjjo4dSnUaNG2Vznfln3W11U8mmbA7rw979LLS1SQYF00km2MHHvvHNEX/jCL3XhhR/QV7/6EVuanB/84DE9/PDf9POfX+T+j2PSnL8PNTaanr902mm2sH8cf/zxOvnkk/X+97/ffT3uuOMIegAAgAGDoAcwMMQNehw6dMgNfJhRGwcOHHA6i+/Yd7r20ksv6fTTT7e5zv33PT/Rv1/5JZsDOrF1q17+fz/Q3ryzpSeekCpvlE4cZt9MjAl6XHrprzRz5jjdcsuFtjQ5N974sFateko//ennkg96vP6GnBNLEz6okcHtOvmqr0qTJtk3+94xxxyjE044QdnZ2W4AZMiQIcrKyrLvdo6gBwAAyHQEPYCBIW7Q48iRIzp8+LAb7DCviY7yMF544QV3uHwibl/6A1230On4AV2ZP18/eOdDuuGnL9iC7ps2LaAHH/y8zSXn4ot/oXXrWmyu+2699D366pDHpTvvtCV9zwQ4TKDDbGYtD5Mn6AEAAAYKgh7AwBA36BEOcsS+JiLcAUnEd267UzddP9/mgE788Id6/Mf1evSMC6Tf/laqWCANS26kh9Ha+rbGjz9VF110li1Jzi9/uVN//etLys4+1pYk4Y03pOpl0qc/rfN2P6IP/VuR9OUv2zf7XjjAEfuaCIIeAAAg0xH0AAaGuEGPnkgm6JFMpwcDnAm8/fCH7jQXfeEL0oXdm57S7x5+WPr5z0PTWkzAI4lAQzoh6AEAADLV/v0H9benX9f3lj2hnz4QGsFrFqh/bMtndOKJQzQ2N9stA+APmf34CQwcJjgwd670P/+TuQEPw1y7uQdzLxka8AAAAMhkD2/Yq7Mn/ro94GGYp/yZsivL/mhLAPgFQQ8AAAAAAOBLBD0AAAAAAIAvEfQAAAAAAAC+RNADAByjxkyyqe5LRR2GH+vhnrzRNt64J2+0jTfuyRtt07v82Dbckzfaxlu63RNPbwGQNJ7eAgAAMtXKuj266OI/2Fy08859rzY+PN3mAPgBIz0AAAAADBjHHzdY73/fMJ144jG2JMSUvWf4cTYHwC8IegAAAAAYMGZMf7+e+dtsfWVux+j0IUMGuWW/+PlUWwLALwh6AAAAAAAAXyLoAQAAAAAAfImgBwaG5mWaMmWZmm22R1JZFwAAAACg1/gz6GE6pVlZymrfyrTWvuWppx3ZyON7s1Oc6R3u8GdTFv2JrC1zyrq6r1Tfe/haEv2O9FSmf3YAAAAAkGH8O9Jj8lLtamtTm9nWSDP6srOZu0CbNy9Qrs0ixuR5mrdjiZaFP5DmZVqyY7Im22yfMZ/TrqWa7H5XasXDyQAAAADAXwbG9JbpszRvy5PaZdJxf91v1rLLFmrLloUa65RPMb3xqP2mhDro9pf6ZWZUgn0vNGAh5vibvtnxi36887n1lKlsSrgO5/j2tNnB7tN+nD1/t66zD0YwJO1MzZotrVjt3pTWfnehJsx2Cgx77aF3HO35TtrYiDiuedkU2x6RbZeAqHYLbXE/j7HOdYTLPK7BuSuVhfd36+nqs4v8bkR/dlH3E3k+AAAAAECnBkTQo3nZEt09+UyNNR1Rp8M6YU1oBMiupTs0w+3V5mrB/eFf/Nu0ecEuZ78ntSg8UmTXbK24zHY2nU7rk7PCI0jm6e4lpjzm+CuGmz0dXudzbNmhM++3dcy4TAqn3frMcfHO353rTM8RDGMXLNKEhd/VWqeTv2THUl1bbN/w5NXGR8tdsDnUHmZbM0ELvxuOXCQg7ucb/Tm2mdEhdvf4TBBrhhTe39lqp8f77Ly+GxGfndM+ly2c4FQV2m/NBBu8AwAAAAB0yb9BD/uLuvl1fOyK2dplpps0P6UdTqfzWhsFyC2ercl3P+T+mh7F7Ke7NSP867r5ZT88UiTieI09s/POb2fnmzxbxWb+i6kjMm3e6+z8kRK9zrQ0XbPmOdduOv6LUjwVKHIExYy7pR1PhQJBiYj3+cZ8jl1qXq0V6mL/Tr8bEcfmjtME9zMOjfqYXss0HAAAAABI1MBY06M762tEHu9ufdzZTPT8/X2dPTD9WjNiYp5mpfKCTcBj7ArN3mXbo8tRGeluumrdz3WWHnIDOek4XQkAAAAA0tPAWNMjzPxqvmWhwrMdmlev0JZ5szqCBOFREjH7JSx2NEZX5/PS1fl7ep3pwiwkGi9IE9GObpvZtCuyjb32C4+ccRx1fHe47bxCdgmS6DrjXUNusWbL43Px+OzcY+N9N5qXqcxdlMQEP3Zp6eQdeirhYSsAAAAAMLANrKCH6TjuWqodM0JTH8aatRJqbTfT6YAvMtMtnPIpy8ZG7eduXS0gGXn8fS/awk7O16no46LO39PrTHfO/d1v1rew93PZkxM6RmpE3vvq4vj7mX0mdExtijo+ljsqJLy4aGcjKJzPw6wNMvboc8W/1tD6HZGfS2jpGO/PzvO7kTtOzoltPWO1Yvb9WpDSuUAAAACZ4errHtNXv74lZdvDf9hra5aOHGmLu09PtobHwn0CAP0pa//+/W02nRL79u1TXl6ezXVuya3VWnRDhc0ByBTbt2+3qeQFAgHl5OQk9fcfDAY1YsQIm4sW/jfHre/qElsKAAD85pT3PqCXX37b5tLfT350vi794hk2B6C/DLCRHgAAAAAAYKAg6AEAjlFjJtlU96WiDsOP9XBP3mgbb9yTN9rGG/fkzY9t40d83t64J2+0TXymDqa3AEga01sAAEBfY3oLgO4g6AEgaQQ9AABAX5v9xQ167fV3bC79XXf1BE294L02B6C/EPQAkDSCHgAAAAAyAWt6AAAAAAAAXyLoAQAAAAAAfImgBwAAAAAA8CWCHgAAAAAAwJdYyBRA0ljIFAAApJOCj/xaTwVftbm+85u6Il34iZE2ByAdMdIDAAAAQEZ7663DevPNvt+OHEnp78cAegFBDwAAAAAA4EsEPQAAAAAAgC8R9EhGU5P04os2g4yxbZt0xRXS1VdLL71kC7vBfPZXXRWqy9QJAAAAAEhrLGSaqBde0Pe//N9a8eQgZb3//bYw2quvvqUFCyY5feIP2RL0uz17dGhGsX41+cs69eB+XdhcL23ebN9M0pQpeji3SC8NPUmf2/JDHbNmtTRmjH1zYGEhUwAAkE5+u+Yfan3toM31nannj9R733u8zQFIRwQ9kvD2L36lQ+99n1RQYEui3Xnnn5w+cI4uvfRfbAn63X33qbVxp3LuHKaPfWy0/vetu6S1a6Xhw+0OCXrhBWnGDH38uK/pj398Rq/Of0PZZ+dLl19udxhYCHoAAAAAyARMb0nCsZ//nE4896M68cShcbehQwcrKyvL7o208JGPSI8+6ibbTODi4EHp1FPdfFJMkMQ51q3DMHWec04oDQAAAABISwQ94G/5+Wq77rpQ+tVXpV/8QupOYMocY441dRjXX+/WDQAAAABIXwQ94HtZn/506HXsWGncODfdLc6xbh3GjBmhVwAAAABA2iLokQI7d+50Xw8ePKz/+I9H9POfP+HmX3nlTWd7y00DSG+jxkyyqe5LRR2GH+vhnrzRNt64J2+0jTfuydtAbZtHNj6vX6x82nM7ecSlccvD26uvHrI1dS4T26Yr3JM32sZbut0TC5n2UGtrqxYtWqTq6mo3/8Ybh/SVr6zSF77wQb3vfe9ySrL04Q+PdN9D/2htfVs5ObeGFjL93y/b0u75+Md/GFrI9NUblJ19rC0deFjIFAAAZIrzL1yrRzc9b3PJe3zbLP3rv7zb5gBkGkZ69FB2drbOPfdcm5OGDTtGt91WqLvuekyjRr3L3QAAAAAAQN8j6NFDZqTHX//61/YpLsZbbx3WsccOsTkAAAAAANAfCHr0kBnpcdNNN+mss87Sm28e0pNPvqjy8t/quuum6LnnXnM3AAAAAADQ9wh6pNDdd/9ZH/vYDzV8+DDn9TSmtwAAAAD9bMiQLA0dOqjbW1ZWSpdABNDHCHqkUEXFJP3zn9e5C5jec0/3F3pE97344otas2aNzYUcOnTEfd2//y394x+tbrq7Xn/9oPv6xBMvuK8AAABIbw//bprefv3ybm//MuFkWxOATETQI8WysrJ09dWT9bOfPcH0lj62ceNGzZkz56igx1tvhR4z1tT0ok47bak++ckfu+nueOmlA+6rGdGTl/df+tWvnnTzAAAAAID0Q9CjFzz33Os69dQTmN7SD4YPH25THXJyjtO3v32BKis/rvPOG6P6+t366Ef/R2vX7rJ7JO7aa6fo5pvP1+zZ+e6okdLSFfrmN/9g3wUAAAAApBOCHinU0vKyHnywSV//+hq3k42+df755+vyyy+3uQ4nnjjUDVTccsuFeuSRK7R+/b+5T9e5+OJfqrn5ZbtXYswUJvPZPvjgRXrqqa/rnHNGOfVu0n33PW73AAAAAACkC4IeKfSnPz2rZcu2auTIE5Wbe3Ly01veeUd6OblOOJJ34YVn6L77PqvXXjuoG2982JYmb/ToHK1Zc6lOPvl4XX/9evfpPQAAAACA9EHQI4UuuWSCtmyZq/PPP13f+96Wo6a3PPzwbn3jG2t11VW/i79NW6pfz7+LwEcf+Mxnxik/f7hWrXpKra1v29LkDR9+gr785QK98MIb+t3vWmwpAAAAACAdEPToBV/84gfjrhfxzDOteuedw5o5c1zc7TOfzlX++JPNIhT2CCTj29/+tqZOnaqamhr3tSsTJ75Pb799WLt29SzI9JGPjHJfeaILAAAAAKQXgh69wHR+A4Gjp7cMHTrYLb/ggtPjblMXlij3pq9JgwfbI5CMb33rW2pra3O3DRs22FJvgwZlua9HjoQeadtdWaFqnPOGXgEAAAAA6YGgRwpt2/acbr/9j+46EUuWTOXpLWnuz3/eq2OOGaSxY0+xJd3T2Pi8+3rWWUc/OQYAAAAA0H8IeqRQfX2L+wSXtWsvJdiR5tav363HH39e06eP1UknHWdLk/fKK2/q3nsb9e53H6dPfSpgSwEAAAAA6YCgRwodc8xgdxHTnJxQJzpyeouZ8mIea/r22+/oRz/6kSoqKnT48GH3PfQt85SdL33pVzr++CG65ZZP2NLkvfjiG/rsZ3/uLmJqRvaYR+MCAAAAANIHQY9eFJ7e0ti4V1/72m91ww0f19y5Z2vGjBk69thjNZi1O/rEG28c1C23bNKSJRs1c+bPNGXKvdq//y39+MefU37+e+xeifnBDx7Tf/7no/rKV1Zp7Nj/0qZNf1d5+UecbaLdAwAAAACQLgh6JOPNN20iOd/5zians1ysT3ziA3rve0/UL37xCw0ZMoSRHn3k1Vff1je/+QfdfPMj+s1vgjpypE3V1dNVWnqm3SNx5rO86aYNuueeRrfez352nL7//Rn2XWSyUWMm2VT3paIOw4/1cE/eaBtv3JM32sYb9+SNtonPj/dk0Dbx+fGeDNomPlNH1v79+1P6zIl9+/YpLy/P5jq35NZqLbqhwubSXGurNlQs1Z8PnioVFNjCaBs3Pq3PfGac5s37sJv/85+fc/5/lm64Yb3uv3+WRo5knY/+8PrrB7V06Ra9884RbdnyD3c9j+OOG6IHH/y883kl9l0N+/73G/Tyy2+qufll/epXT+qNNw7p6qsn6447Pmn3GBi2b99uU8kLBALKyclJ6u8/GAxqxIgRNhct/G+OW9/VJbYUAAAAABjpkbhjjlFO9rEaNfqk9mkrsZsJeEyc+D57gNrL58z5kBYvftTtdKPvmbU2Fi06X9/+9lT9/vf/po0b52jYsKH64hd/qb/+9SW7V2K+/vWJuvnm83X//SXatWu+Jk16n773vS36n//pfhAAAAAAANA7CHok6vjjdfay63XJrZfqkksmxN3MCI8Pfei99oAO5r1XX33L6Xzfou9+94+2FP3l3HNPc0femFEaZtpLd40ceaJWr75Ep556gvuY4gMHDtl3AAAAAADpgKBHMrKybCIx4ae3mEfZmg72nj0Lde21H7Pvoj+ZR9X+y7+M0OrVQTcg1V2nnHKC5s4t0EsvHdDvftdiSwEAAAAA6YCgRy8KT29ZtuxPqq6ephEjhtl3kA7OOWeUDh48rF27XrYl3fPhD49yX5uaXnBfAQAAAADpgaAHAAAAAADwJYIevSg8vWXBgo+qomKd9u17w76DdLBt23MaOnSwxo492ZZ0T+gpPVJ+/nvcVwAAAABAeiDokYy25J7uG57eUlQU0LBhx2jMmKUsZJom1q7dpb/8ZZ+Ki/OUk3OcLU3eP/95QPfe2+guZvqpTwVsKQAAAAAgHRD0SNSbb2p7xa164Pqf6IEHdsTd7r77z3r88eftAR3Me6Zj/frrN7KQaRrYtOnvuuyyh9xA1H/+5ydsafL27n1dxcUPuIuY3nLLhTrhhGPsOwAAAACAdEDQI1GHDqn1tYN67tnW9mkrsdtvfvOUGhqetQd0TG9Zvvxx3XzzeRoyhObuD6+/flBLlmzUt761QZ/85I91/vnL9cYbB/Wzn12k8eNPtXsl5vvfb9DixRt12WV1Gjv2Tm3d+qyuvnqyvvKVs+0eAAAAAIB0QS88UdnZuuCu63TNT76ma66ZEnc7//zTdeKJQ+0BHdNbsrOP1csvd/+xqOiZ1ta3dfPNj2jx4kdVX7/bnaW0dOk0feYzeXaPxFVV/a++9a1H9OMf/8V9DPFnPztOd9zxSfsuAAAAACCdEPRIxvHH20RybrrpXH31q6v1hz/8Tc8//7otRV/JyTnWncayePEFbqBj0KAsVVSs1cqVT9o9Emc+y+98Z6o7ssPU++tfP6Wvf32NfRcAAAAAkE4IevSi8PSWgoKRuuuuT+vWW/9X99673b6LvjJs2FDdeOO5WrTofK1a9UVt3jxXJ510nP7t336lpqYX7F6J+epXP6JvfvM83X33Z7Rr1zd07rmnqabmMWdrsHsAAAAAANIFQY8e+tGPfqRf/OIXbvrQocPauPFpvfpqaCpLeHqL8cEPvkdXXPEhHXvsEDeP/vPRj75PP/nJ5/Tmm+/oxhv/YEuTN3z4MP3611/Qe94zTIsWbXDXDgEAAAAApA+CHj10+eWX65VXXtHhw4fdR9MGAidr2rSfuCM8kL4KC8/Qhz70XvfRtfv3d3+9lXe/+3jNnVvgfAfe0u9+12JLAQAAAADpgKBHDz322GMaN26cBg8erHPOGaXrrvuYqqoK3V/+w9NbkJ4+/OGROnToiHbt+qct6Z6Cgve6rzt3vui+AgAAAADSA0GPHtq5c6e2bNmigwc7pjaYqSwtLS9HTW8xDh487JY/8sjTcbcN/+9Xal5SIx0+bI9AbzpypM19HTSoZ38G5mkwhlkgFQAAAACQPgh69JCZ3nLDDTdo6NCOR9X+7GdPaPr0sTbXYfTobA0ZMlirVj0Vd/vNmhY1/fVl84xVewR6U0PDszr22MEaO/ZkW9I9jz32nPuanz/cfUVmGjVmkk11XyrqMPxYD/fkjbbxxj15o228cU/eaJv4/HhPBm0Tnx/vyaBt4jN1ZO3fv9/+Tp0a+/btU15ens11bsmt1Vp0Q4XNZb4HHtihO+/8k973vnfpwQc/r//7v+ed0ix3GkVCzAgPE/B497ttAXrLb34T1MyZP9PnP3+WVqz4vC1N3osvHtD48d/XkCGD9PTTFTr++GPsO/62fXv3n0IUCASUk5OT1N9/MBjUiBEjbC5a+N8ct76rS2wpAAAAADDSI6XMU0EWLpyk559/Q83NR09v6dLgwQQ8+sDDD/9Nl19ep3e9a6huueVCW5q8Z555VTNm/FQvv/ymbrutcMAEPAAAAAAgUxD0SCHz5JaLL/6gvv/9GfrWtx6xpehv5lGyixdv1I03Pqzzz79PhYX3u+urPPjgRcrNTW5qS3X1VvezvfjiX2rcuO9r27bnnHrPdR9HDAAAAABILwQ9esGoUSfqpZcO8PSWNPHqq2+5gYqqqv/Vpk17VFR0hv70pyvjrrvSle9+d7MbQFmxoknvf3+2Vq6crf/8z0/YdwEAAAAA6YSgR4q1tbXpe9/boksumZD89Bb0iuOOC007MQuN/v3vC/X73/+bk36PW5asU089wX394x+/rGDwG/rc58508wAAAACA9EPQI4XM1IdTTrldzz77mubOLbCl6G/HHBP6mp900nHu6IyeOPHE0FN6zGOJAQAAAADpjaBHCs2b92Ft3jxXL774hv74x78zvQUAAAAAgH5E0COFzNM7xo8/VTU1n9btt29megsAAAAAAP2IoEcvOO64wXr77XdsDgAAAAAA9AeCHin2xhuHdP316/W1r32E6S0AAAAAAPQjgh4pdMstm1RQ8N+aOXOcu51xxrud7ST7LgAAAAAA6EsEPVJo6NDB+o//uEBf+MIH3fy73328uwEAAAAAgL5H0AO+1/bb34Zed+2S/vpXN90tzrFuHcaaNaFXAAAAAEDaIugBf2tqUtbtt4fSOTnS7NlSW1sonwxzjDnW1GHcdptbNwAAAAAgfRH0SMLbv/iVXnt0q15//WDc7eDBw07fuBsdavSexx6TzjvPTWa95z1mDpL00ktuPikvvuge69ZhmDq3bQulAQAAAABpiaBHol54Qf/zoyf06Tnr9elPPxB3W7GiSYcOHbEHIC1Mnarj16/Vz+dm69tn7AkFPYYPt28mwQZMTB2mLlOnLrjAvgkAAAAASEcEPRLldHq/fvtFevRP/66NG6+Iuz3++L/riis+ZA9AWhgzRsf8aLkufuf/dOHw16VVq+wb3eAca+owdZk6Td3wj1FjJtlU96WiDsOP9XBP3mgbb9yTN9rGG/fkjbaJz4/3ZNA28fnxngzaJj5TR9b+/ftTOh9j3759ysvLs7nOLbm1WotuqLA5AJli+/btNpW8QCCgnJycpP7+g8GgRowYYXPRwv/muPVdXWJLAQAAAICRHgAAAAAAwKcIegAAAAAAAF8i6AEAAAAAAHyJoAcAAAAAAPAlgh4AAAAAAMCXCHoAAAAAAABfIuiRCs3LNGXKMjXbbI+ksi50js8NAAAAAHwtw4Iea1WWlaWs8Fa21pZbpuMZp3xtmVPWVYc01Z3W8LW4W5lz5b0sHTvdtg2mLIu4qnjXGW4rPjcAAAAAQAplVtBj7UPSmja1tZltl5buWKLI/rRr8jzNiyx3OpVLdkzWZJvtM7kLtHnXUk2evFS72mo13RYPOM7nMWHFZUd/TrH43AAAAAAAKZZZQY/ptapt74Xu0pNbJmhcrs22O1OzZksrVod6z2u/u1ATZjsFRuyv6u35Zi27bKG2bFmosWZkwk3f9NjPJKfYUQBmm9J1Zz7M1rHMjF6wx7cPbDDvhesc61xHuMzjGmJHvJStjbl+c1GRdYZHLERdQ6gs6n4iz5cyZ+raRRO08LtdjZngc0uvzw0AAAAAMl8GrunhdBSnmM7eQ5rl8Uv82AWLNGHhd7XW6Swu2bFU1xbbNzzlasH94V/327T5iuG2/Gi5CzbbkSbOtiaRznwEp3P75KzwsfN09xLTWXU6wk6HeUJ4BIsZZWB3j8/c/4yIES9tqp0ec/0LdkXVuWvpDs0I99Tbr8FpO6d9Lls4wakqtN+aCU9qV2iv1JpeqzWa0REs8MDnlmafGwAAAABkuAwMejgdxc2mszdLD3n+Yj9ds+bdrRmmA7logXNECplf3cO/sM+4W9rxlNOdTZDTub02HKUZe2aok9z8lHZElnelebVWqIv9Y+rMLZ6tyXc/FBo1EHmu3HGaIKed7OiB6bW9N51j+rVLtcMNFnSGzy3dPjcAAAAAyGQZGPQIMx3kLXrS4ydu08merHmalcreoOk4j12h2btCv7B3/et+upuuWne0gAkgmYCAnU7RG3IX6P7ZK/Td1Tbvgc8tEX34uQEAAABABsuooEfzsrKIkR1r9dDdk3XmWOrOre0AAAHTSURBVJuNZRakjDf9ZUvHVIDm1StC6zCERbznud/k2Sq2QxCOOr47zK/2W1bILmURXWe8a8gt1mwtVNzZGeH93To79nGPnTfr6LZoXqYyt0FNJ3qXlk7eoacSHv6QvNwFi6SFdu0LL3xuafe5AQAAAECmyqigh9Mn1MKxdopCllkfYbMWJDMHwow2MOsk2GkOlz05oeMXf+e9RWZqhVM+ZXVx/P3MPhNCi04edXwsd3RBeJHKzn6JdzquZo0Je1+R54p/raF1IHbMCJWbzV32IfL6l41V7a6Ofcaa9R86VoDtEGpQW89YrZh9f3LtmTRzr/NsOgl8btH6/HMDAAAAgMyUtX///jabTol9+/YpLy/P5jq35NZqLbqhwuYAZIrt27fbVPICgYBycnKS+vsPBoMaMWKEzUUL/5vj1nd1iS0FAAAAgIxe0wMAUmfUmEk21X2pqMPwYz3ckzfaxhv35I228cY9eaNt4vPjPRm0TXx+vCeDtonP1MFIDwBJY6QHAAAAgEzASA8AAAAAAOBLBD0AAAAAAIAvEfQAAAAAAAC+RNADAAAAAAD4EkEPAAAAAADgSwQ9AAAAAACALxH0AAAAAAAAvkTQAwAAAAAA+JD0/wHj7mzpfSA01QAAAABJRU5ErkJggg==;clipPath=inset(0% 69% 0% 0%);" vertex="1" parent="1">
          <mxGeometry x="333.09" y="200" width="500.29" height="914.51" as="geometry" />
        </mxCell>
        <mxCell id="iLzAXBDjAKeNAdl8jMWR-3" value="" style="rounded=0;whiteSpace=wrap;html=1;fillColor=none;strokeWidth=7;strokeColor=#FF0000;" vertex="1" parent="1">
          <mxGeometry x="330" y="760" width="380" height="40" as="geometry" />
        </mxCell>
        <mxCell id="iLzAXBDjAKeNAdl8jMWR-4" value="From your subcircuit schematic page, click here (or press F9) to open the symbol editor." style="shape=callout;whiteSpace=wrap;html=1;perimeter=calloutPerimeter;fillColor=#f8cecc;strokeColor=#b85450;direction=east;fontSize=30;size=60;position=0.54;" vertex="1" parent="1">
          <mxGeometry x="353.24" y="560" width="460" height="200" as="geometry" />
        </mxCell>
        <mxCell id="iLzAXBDjAKeNAdl8jMWR-6" value="" style="rounded=0;whiteSpace=wrap;html=1;fillColor=none;strokeWidth=7;strokeColor=#FF0000;" vertex="1" parent="1">
          <mxGeometry x="940" y="201.32" width="1050" height="918.68" as="geometry" />
        </mxCell>
        <mxCell id="iLzAXBDjAKeNAdl8jMWR-7" style="edgeStyle=orthogonalEdgeStyle;rounded=0;orthogonalLoop=1;jettySize=auto;html=1;exitX=1;exitY=0.5;exitDx=0;exitDy=0;entryX=-0.002;entryY=0.631;entryDx=0;entryDy=0;entryPerimeter=0;strokeWidth=10;strokeColor=#FF0000;" edge="1" parent="1" source="iLzAXBDjAKeNAdl8jMWR-3" target="iLzAXBDjAKeNAdl8jMWR-6">
          <mxGeometry relative="1" as="geometry" />
        </mxCell>
        <mxCell id="iLzAXBDjAKeNAdl8jMWR-8" value="&lt;font style=&quot;font-size: 30px;&quot;&gt;Double-click to add/edit the subcircuit parameters, and change the prefix that will be assigned when used in a parent schematic.&lt;/font&gt;" style="shape=callout;whiteSpace=wrap;html=1;perimeter=calloutPerimeter;fillColor=#d5e8d4;strokeColor=#82b366;direction=west;size=60;position=0.48;base=69;" vertex="1" parent="1">
          <mxGeometry x="1510" y="740" width="420" height="300" as="geometry" />
        </mxCell>
        <mxCell id="iLzAXBDjAKeNAdl8jMWR-9" value="" style="rounded=0;whiteSpace=wrap;html=1;fillColor=none;strokeWidth=7;strokeColor=#00FF00;" vertex="1" parent="1">
          <mxGeometry x="1660" y="610" width="270" height="130" as="geometry" />
        </mxCell>
        <mxCell id="iLzAXBDjAKeNAdl8jMWR-10" value="&lt;font style=&quot;font-size: 30px;&quot;&gt;Use the standard editing tools and these graphic components to customize your symbol.&lt;/font&gt;" style="shape=callout;whiteSpace=wrap;html=1;perimeter=calloutPerimeter;fillColor=#d5e8d4;strokeColor=#82b366;direction=south;size=120;position=0.35;base=33;position2=1;" vertex="1" parent="1">
          <mxGeometry x="1290" y="290" width="670" height="145" as="geometry" />
        </mxCell>
        <mxCell id="iLzAXBDjAKeNAdl8jMWR-11" value="" style="rounded=0;whiteSpace=wrap;html=1;fillColor=none;strokeWidth=7;strokeColor=#00FF00;" vertex="1" parent="1">
          <mxGeometry x="990" y="435" width="370" height="545" as="geometry" />
        </mxCell>
        <mxCell id="iLzAXBDjAKeNAdl8jMWR-12" value="&lt;font&gt;Customizing a Circuit Symbol for a Schematic&lt;/font&gt;" style="text;strokeColor=none;align=center;fillColor=none;html=1;verticalAlign=middle;whiteSpace=wrap;rounded=0;fontStyle=1;fontSize=60;" vertex="1" parent="1">
          <mxGeometry x="450" y="40" width="1420" height="140" as="geometry" />
        </mxCell>
      </root>
    </mxGraphModel>
  </diagram>
</mxfile>
